<?xml version="1.0" encoding="UTF-8" standalone="no"?>
<!DOCTYPE svg PUBLIC "-//W3C//DTD SVG 1.1//EN"
 "http://www.w3.org/Graphics/SVG/1.1/DTD/svg11.dtd">
<!-- Generated by graphviz version 2.38.0 (20140413.2041)
 -->
<!-- Title: g Pages: 1 -->
<svg width="241pt" height="52pt"
 viewBox="0.00 0.00 240.50 52.00" xmlns="http://www.w3.org/2000/svg" xmlns:xlink="http://www.w3.org/1999/xlink">
<g id="graph0" class="graph" transform="scale(1 1) rotate(0) translate(4 48)">
<title>g</title>
<polygon fill="white" stroke="none" points="-4,4 -4,-48 236.5,-48 236.5,4 -4,4"/>
<!-- N0 -->
<g id="node1" class="node"><title>N0</title>
<path fill="#ffffff" stroke="#2e3436" stroke-width="1.5" d="M12,-0.5C12,-0.5 82,-0.5 82,-0.5 88,-0.5 94,-6.5 94,-12.5 94,-12.5 94,-31.5 94,-31.5 94,-37.5 88,-43.5 82,-43.5 82,-43.5 12,-43.5 12,-43.5 6,-43.5 0,-37.5 0,-31.5 0,-31.5 0,-12.5 0,-12.5 0,-6.5 6,-0.5 12,-0.5"/>
<text text-anchor="middle" x="47" y="-33.1" font-family="sans-serif" font-size="8.00" fill="#1c2021">Movie</text>
<polyline fill="none" stroke="#2e3436" stroke-width="1.5" points="0,-26.5 94,-26.5 "/>
<text text-anchor="start" x="8" y="-16.1" font-family="sans-serif" font-size="8.00" fill="#1c2021">title = &#39;The Matrix&#39;</text>
<text text-anchor="start" x="8" y="-7.1" font-family="sans-serif" font-size="8.00" fill="#1c2021">released = 1997</text>
</g>
<!-- N1 -->
<g id="node2" class="node"><title>N1</title>
<path fill="#ffffff" stroke="#2e3436" stroke-width="1.5" d="M135.5,-0.5C135.5,-0.5 220.5,-0.5 220.5,-0.5 226.5,-0.5 232.5,-6.5 232.5,-12.5 232.5,-12.5 232.5,-31.5 232.5,-31.5 232.5,-37.5 226.5,-43.5 220.5,-43.5 220.5,-43.5 135.5,-43.5 135.5,-43.5 129.5,-43.5 123.5,-37.5 123.5,-31.5 123.5,-31.5 123.5,-12.5 123.5,-12.5 123.5,-6.5 129.5,-0.5 135.5,-0.5"/>
<text text-anchor="middle" x="178" y="-33.1" font-family="sans-serif" font-size="8.00" fill="#1c2021">Movie</text>
<polyline fill="none" stroke="#2e3436" stroke-width="1.5" points="123.5,-26.5 232.5,-26.5 "/>
<text text-anchor="start" x="131.5" y="-16.1" font-family="sans-serif" font-size="8.00" fill="#1c2021">title = &#39;Forrest Gump&#39;</text>
<text text-anchor="start" x="131.5" y="-7.1" font-family="sans-serif" font-size="8.00" fill="#1c2021">released = 1994</text>
</g>
</g>
</svg>
