<?xml version="1.0" encoding="UTF-8" standalone="no"?>
<!DOCTYPE svg PUBLIC "-//W3C//DTD SVG 1.1//EN"
 "http://www.w3.org/Graphics/SVG/1.1/DTD/svg11.dtd">
<!-- Generated by graphviz version 2.38.0 (20140413.2041)
 -->
<!-- Title: g Pages: 1 -->
<svg width="172pt" height="52pt"
 viewBox="0.00 0.00 172.00 52.00" xmlns="http://www.w3.org/2000/svg" xmlns:xlink="http://www.w3.org/1999/xlink">
<g id="graph0" class="graph" transform="scale(1 1) rotate(0) translate(4 48)">
<title>g</title>
<polygon fill="white" stroke="none" points="-4,4 -4,-48 168,-48 168,4 -4,4"/>
<!-- N2 -->
<g id="node1" class="node"><title>N2</title>
<path fill="#ffffff" stroke="#2e3436" stroke-width="1.5" d="M12,-0.5C12,-0.5 92,-0.5 92,-0.5 98,-0.5 104,-6.5 104,-12.5 104,-12.5 104,-31.5 104,-31.5 104,-37.5 98,-43.5 92,-43.5 92,-43.5 12,-43.5 12,-43.5 6,-43.5 0,-37.5 0,-31.5 0,-31.5 0,-12.5 0,-12.5 0,-6.5 6,-0.5 12,-0.5"/>
<text text-anchor="middle" x="52" y="-33.1" font-family="sans-serif" font-size="8.00" fill="#1c2021">Person</text>
<polyline fill="none" stroke="#2e3436" stroke-width="1.5" points="0,-26.5 104,-26.5 "/>
<text text-anchor="start" x="8" y="-16.1" font-family="sans-serif" font-size="8.00" fill="#1c2021">name = &#39;Tom Hanks&#39;</text>
<text text-anchor="start" x="8" y="-7.1" font-family="sans-serif" font-size="8.00" fill="#1c2021">born = 1956</text>
</g>
<!-- N2&#45;&gt;N2 -->
<g id="edge1" class="edge"><title>N2&#45;&gt;N2</title>
<path fill="none" stroke="#2e3436" stroke-width="2" d="M104.197,-29.8673C120.331,-29.7084 133,-27.0859 133,-22 133,-17.7485 124.147,-15.2184 111.817,-14.4098"/>
<polygon fill="#2e3436" stroke="#2e3436" stroke-width="2" points="104.197,-14.1327 111.815,-11.0326 107.963,-13.7694 111.71,-13.9057 111.692,-14.4054 111.674,-14.905 107.926,-14.7687 111.569,-17.7781 104.197,-14.1327 104.197,-14.1327"/>
<text text-anchor="middle" x="148.5" y="-20.1" font-family="sans-serif" font-size="8.00" fill="#1c2021">KNOWS</text>
</g>
</g>
</svg>
