<?xml version="1.0" encoding="UTF-8" standalone="no"?>
<!DOCTYPE svg PUBLIC "-//W3C//DTD SVG 1.1//EN"
 "http://www.w3.org/Graphics/SVG/1.1/DTD/svg11.dtd">
<!-- Generated by graphviz version 2.38.0 (20140413.2041)
 -->
<!-- Title: g Pages: 1 -->
<svg width="411pt" height="61pt"
 viewBox="0.00 0.00 410.50 61.00" xmlns="http://www.w3.org/2000/svg" xmlns:xlink="http://www.w3.org/1999/xlink">
<g id="graph0" class="graph" transform="scale(1 1) rotate(0) translate(4 57)">
<title>g</title>
<polygon fill="white" stroke="none" points="-4,4 -4,-57 406.5,-57 406.5,4 -4,4"/>
<!-- N2 -->
<g id="node1" class="node"><title>N2</title>
<path fill="#ffffff" stroke="#2e3436" stroke-width="1.5" d="M12,-0.5C12,-0.5 92,-0.5 92,-0.5 98,-0.5 104,-6.5 104,-12.5 104,-12.5 104,-40.5 104,-40.5 104,-46.5 98,-52.5 92,-52.5 92,-52.5 12,-52.5 12,-52.5 6,-52.5 0,-46.5 0,-40.5 0,-40.5 0,-12.5 0,-12.5 0,-6.5 6,-0.5 12,-0.5"/>
<text text-anchor="middle" x="52" y="-42.1" font-family="sans-serif" font-size="8.00" fill="#1c2021">Person</text>
<text text-anchor="middle" x="52" y="-33.1" font-family="sans-serif" font-size="8.00" fill="#1c2021">Actor</text>
<polyline fill="none" stroke="#2e3436" stroke-width="1.5" points="0,-26.5 104,-26.5 "/>
<text text-anchor="start" x="8" y="-16.1" font-family="sans-serif" font-size="8.00" fill="#1c2021">name = &#39;Tom Hanks&#39;</text>
<text text-anchor="start" x="8" y="-7.1" font-family="sans-serif" font-size="8.00" fill="#1c2021">born = 1956</text>
</g>
<!-- N3 -->
<g id="node2" class="node"><title>N3</title>
<path fill="#ffffff" stroke="#2e3436" stroke-width="1.5" d="M145.5,-5C145.5,-5 230.5,-5 230.5,-5 236.5,-5 242.5,-11 242.5,-17 242.5,-17 242.5,-36 242.5,-36 242.5,-42 236.5,-48 230.5,-48 230.5,-48 145.5,-48 145.5,-48 139.5,-48 133.5,-42 133.5,-36 133.5,-36 133.5,-17 133.5,-17 133.5,-11 139.5,-5 145.5,-5"/>
<text text-anchor="middle" x="188" y="-37.6" font-family="sans-serif" font-size="8.00" fill="#1c2021">Movie</text>
<polyline fill="none" stroke="#2e3436" stroke-width="1.5" points="133.5,-31 242.5,-31 "/>
<text text-anchor="start" x="141.5" y="-20.6" font-family="sans-serif" font-size="8.00" fill="#1c2021">title = &#39;Forrest Gump&#39;</text>
<text text-anchor="start" x="141.5" y="-11.6" font-family="sans-serif" font-size="8.00" fill="#1c2021">released = 1994</text>
</g>
<!-- N4 -->
<g id="node3" class="node"><title>N4</title>
<path fill="#ffffff" stroke="#2e3436" stroke-width="1.5" d="M283.5,-0.5C283.5,-0.5 390.5,-0.5 390.5,-0.5 396.5,-0.5 402.5,-6.5 402.5,-12.5 402.5,-12.5 402.5,-40.5 402.5,-40.5 402.5,-46.5 396.5,-52.5 390.5,-52.5 390.5,-52.5 283.5,-52.5 283.5,-52.5 277.5,-52.5 271.5,-46.5 271.5,-40.5 271.5,-40.5 271.5,-12.5 271.5,-12.5 271.5,-6.5 277.5,-0.5 283.5,-0.5"/>
<text text-anchor="middle" x="337" y="-42.1" font-family="sans-serif" font-size="8.00" fill="#1c2021">Person</text>
<text text-anchor="middle" x="337" y="-33.1" font-family="sans-serif" font-size="8.00" fill="#1c2021">Director</text>
<polyline fill="none" stroke="#2e3436" stroke-width="1.5" points="271.5,-26.5 402.5,-26.5 "/>
<text text-anchor="start" x="279.5" y="-16.1" font-family="sans-serif" font-size="8.00" fill="#1c2021">name = &#39;Robert Zemeckis&#39;</text>
<text text-anchor="start" x="279.5" y="-7.1" font-family="sans-serif" font-size="8.00" fill="#1c2021">born = 1951</text>
</g>
</g>
</svg>
