<?xml version="1.0" encoding="UTF-8" standalone="no"?>
<!DOCTYPE svg PUBLIC "-//W3C//DTD SVG 1.1//EN"
 "http://www.w3.org/Graphics/SVG/1.1/DTD/svg11.dtd">
<!-- Generated by graphviz version 2.38.0 (20140413.2041)
 -->
<!-- Title: g Pages: 1 -->
<svg width="112pt" height="52pt"
 viewBox="0.00 0.00 112.00 52.00" xmlns="http://www.w3.org/2000/svg" xmlns:xlink="http://www.w3.org/1999/xlink">
<g id="graph0" class="graph" transform="scale(1 1) rotate(0) translate(4 48)">
<title>g</title>
<polygon fill="white" stroke="none" points="-4,4 -4,-48 108,-48 108,4 -4,4"/>
<!-- N2 -->
<g id="node1" class="node"><title>N2</title>
<path fill="#ffffff" stroke="#2e3436" stroke-width="1.5" d="M12,-0.5C12,-0.5 92,-0.5 92,-0.5 98,-0.5 104,-6.5 104,-12.5 104,-12.5 104,-31.5 104,-31.5 104,-37.5 98,-43.5 92,-43.5 92,-43.5 12,-43.5 12,-43.5 6,-43.5 0,-37.5 0,-31.5 0,-31.5 0,-12.5 0,-12.5 0,-6.5 6,-0.5 12,-0.5"/>
<text text-anchor="middle" x="52" y="-33.1" font-family="sans-serif" font-size="8.00" fill="#1c2021">Person</text>
<polyline fill="none" stroke="#2e3436" stroke-width="1.5" points="0,-26.5 104,-26.5 "/>
<text text-anchor="start" x="8" y="-16.1" font-family="sans-serif" font-size="8.00" fill="#1c2021">name = &#39;Tom Hanks&#39;</text>
<text text-anchor="start" x="8" y="-7.1" font-family="sans-serif" font-size="8.00" fill="#1c2021">born = 1956</text>
</g>
</g>
</svg>
