<?xml version="1.0" encoding="UTF-8" standalone="no"?>
<!DOCTYPE svg PUBLIC "-//W3C//DTD SVG 1.1//EN"
 "http://www.w3.org/Graphics/SVG/1.1/DTD/svg11.dtd">
<!-- Generated by graphviz version 2.38.0 (20140413.2041)
 -->
<!-- Title: g Pages: 1 -->
<svg width="136pt" height="150pt"
 viewBox="0.00 0.00 136.00 150.00" xmlns="http://www.w3.org/2000/svg" xmlns:xlink="http://www.w3.org/1999/xlink">
<g id="graph0" class="graph" transform="scale(1 1) rotate(0) translate(4 146)">
<title>g</title>
<polygon fill="white" stroke="none" points="-4,4 -4,-146 132,-146 132,4 -4,4"/>
<!-- N2 -->
<g id="node1" class="node"><title>N2</title>
<path fill="#ffffff" stroke="#2e3436" stroke-width="1.5" d="M12,-98.5C12,-98.5 92,-98.5 92,-98.5 98,-98.5 104,-104.5 104,-110.5 104,-110.5 104,-129.5 104,-129.5 104,-135.5 98,-141.5 92,-141.5 92,-141.5 12,-141.5 12,-141.5 6,-141.5 0,-135.5 0,-129.5 0,-129.5 0,-110.5 0,-110.5 0,-104.5 6,-98.5 12,-98.5"/>
<text text-anchor="middle" x="52" y="-131.1" font-family="sans-serif" font-size="8.00" fill="#1c2021">Person</text>
<polyline fill="none" stroke="#2e3436" stroke-width="1.5" points="0,-124.5 104,-124.5 "/>
<text text-anchor="start" x="8" y="-114.1" font-family="sans-serif" font-size="8.00" fill="#1c2021">name = &#39;Tom Hanks&#39;</text>
<text text-anchor="start" x="8" y="-105.1" font-family="sans-serif" font-size="8.00" fill="#1c2021">born = 1956</text>
</g>
<!-- N5 -->
<g id="node2" class="node"><title>N5</title>
<path fill="#ffffff" stroke="#2e3436" stroke-width="1.5" d="M15,-0.5C15,-0.5 89,-0.5 89,-0.5 95,-0.5 101,-6.5 101,-12.5 101,-12.5 101,-31.5 101,-31.5 101,-37.5 95,-43.5 89,-43.5 89,-43.5 15,-43.5 15,-43.5 9,-43.5 3,-37.5 3,-31.5 3,-31.5 3,-12.5 3,-12.5 3,-6.5 9,-0.5 15,-0.5"/>
<text text-anchor="middle" x="52" y="-33.1" font-family="sans-serif" font-size="8.00" fill="#1c2021">Movie</text>
<polyline fill="none" stroke="#2e3436" stroke-width="1.5" points="3,-26.5 101,-26.5 "/>
<text text-anchor="start" x="11" y="-16.1" font-family="sans-serif" font-size="8.00" fill="#1c2021">title = &#39;Cloud Atlas&#39;</text>
<text text-anchor="start" x="11" y="-7.1" font-family="sans-serif" font-size="8.00" fill="#1c2021">released = 2012</text>
</g>
<!-- N2&#45;&gt;N5 -->
<g id="edge1" class="edge"><title>N2&#45;&gt;N5</title>
<path fill="none" stroke="#2e3436" stroke-width="2" d="M52,-98.1694C52,-84.4572 52,-66.3342 52,-51.3189"/>
<polygon fill="#2e3436" stroke="#2e3436" stroke-width="2" points="52,-43.7899 55.3751,-51.2899 52.5,-47.5399 52.5001,-51.2899 52.0001,-51.2899 51.5001,-51.2899 51.5,-47.5399 48.6251,-51.29 52,-43.7899 52,-43.7899"/>
<text text-anchor="middle" x="90" y="-73.6" font-family="sans-serif" font-size="8.00" fill="#2e3436">ACTED_IN</text>
<text text-anchor="start" x="52" y="-64.6" font-family="sans-serif" font-size="8.00" fill="#2e3436">roles = [&#39;Zachry&#39;]</text>
</g>
</g>
</svg>
