<?xml version="1.0" encoding="UTF-8" standalone="no"?>
<!DOCTYPE svg PUBLIC "-//W3C//DTD SVG 1.1//EN"
 "http://www.w3.org/Graphics/SVG/1.1/DTD/svg11.dtd">
<!-- Generated by graphviz version 2.38.0 (20140413.2041)
 -->
<!-- Title: g Pages: 1 -->
<svg width="504pt" height="131pt"
 viewBox="0.00 0.00 504.00 130.91" xmlns="http://www.w3.org/2000/svg" xmlns:xlink="http://www.w3.org/1999/xlink">
<g id="graph0" class="graph" transform="scale(0.872727 0.872727) rotate(0) translate(4 146)">
<title>g</title>
<polygon fill="white" stroke="none" points="-4,4 -4,-146 573.5,-146 573.5,4 -4,4"/>
<!-- N0 -->
<g id="node1" class="node"><title>N0</title>
<path fill="#ffffff" stroke="#2e3436" stroke-width="1.5" d="M12,-98.5C12,-98.5 82,-98.5 82,-98.5 88,-98.5 94,-104.5 94,-110.5 94,-110.5 94,-129.5 94,-129.5 94,-135.5 88,-141.5 82,-141.5 82,-141.5 12,-141.5 12,-141.5 6,-141.5 0,-135.5 0,-129.5 0,-129.5 0,-110.5 0,-110.5 0,-104.5 6,-98.5 12,-98.5"/>
<text text-anchor="middle" x="47" y="-131.1" font-family="sans-serif" font-size="8.00" fill="#1c2021">Movie</text>
<polyline fill="none" stroke="#2e3436" stroke-width="1.5" points="0,-124.5 94,-124.5 "/>
<text text-anchor="start" x="8" y="-114.1" font-family="sans-serif" font-size="8.00" fill="#1c2021">title = &#39;The Matrix&#39;</text>
<text text-anchor="start" x="8" y="-105.1" font-family="sans-serif" font-size="8.00" fill="#1c2021">released = 1997</text>
</g>
<!-- N1 -->
<g id="node2" class="node"><title>N1</title>
<path fill="#ffffff" stroke="#2e3436" stroke-width="1.5" d="M101,-0.5C101,-0.5 175,-0.5 175,-0.5 181,-0.5 187,-6.5 187,-12.5 187,-12.5 187,-31.5 187,-31.5 187,-37.5 181,-43.5 175,-43.5 175,-43.5 101,-43.5 101,-43.5 95,-43.5 89,-37.5 89,-31.5 89,-31.5 89,-12.5 89,-12.5 89,-6.5 95,-0.5 101,-0.5"/>
<text text-anchor="middle" x="138" y="-33.1" font-family="sans-serif" font-size="8.00" fill="#1c2021">Movie</text>
<polyline fill="none" stroke="#2e3436" stroke-width="1.5" points="89,-26.5 187,-26.5 "/>
<text text-anchor="start" x="97" y="-16.1" font-family="sans-serif" font-size="8.00" fill="#1c2021">title = &#39;Cloud Atlas&#39;</text>
<text text-anchor="start" x="97" y="-7.1" font-family="sans-serif" font-size="8.00" fill="#1c2021">released = 2012</text>
</g>
<!-- N2 -->
<g id="node3" class="node"><title>N2</title>
<path fill="#ffffff" stroke="#2e3436" stroke-width="1.5" d="M271.5,-0.5C271.5,-0.5 356.5,-0.5 356.5,-0.5 362.5,-0.5 368.5,-6.5 368.5,-12.5 368.5,-12.5 368.5,-31.5 368.5,-31.5 368.5,-37.5 362.5,-43.5 356.5,-43.5 356.5,-43.5 271.5,-43.5 271.5,-43.5 265.5,-43.5 259.5,-37.5 259.5,-31.5 259.5,-31.5 259.5,-12.5 259.5,-12.5 259.5,-6.5 265.5,-0.5 271.5,-0.5"/>
<text text-anchor="middle" x="314" y="-33.1" font-family="sans-serif" font-size="8.00" fill="#1c2021">Movie</text>
<polyline fill="none" stroke="#2e3436" stroke-width="1.5" points="259.5,-26.5 368.5,-26.5 "/>
<text text-anchor="start" x="267.5" y="-16.1" font-family="sans-serif" font-size="8.00" fill="#1c2021">title = &#39;Forrest Gump&#39;</text>
<text text-anchor="start" x="267.5" y="-7.1" font-family="sans-serif" font-size="8.00" fill="#1c2021">released = 1994</text>
</g>
<!-- N3 -->
<g id="node4" class="node"><title>N3</title>
<path fill="#ffffff" stroke="#2e3436" stroke-width="1.5" d="M464.5,-98.5C464.5,-98.5 557.5,-98.5 557.5,-98.5 563.5,-98.5 569.5,-104.5 569.5,-110.5 569.5,-110.5 569.5,-129.5 569.5,-129.5 569.5,-135.5 563.5,-141.5 557.5,-141.5 557.5,-141.5 464.5,-141.5 464.5,-141.5 458.5,-141.5 452.5,-135.5 452.5,-129.5 452.5,-129.5 452.5,-110.5 452.5,-110.5 452.5,-104.5 458.5,-98.5 464.5,-98.5"/>
<text text-anchor="middle" x="511" y="-131.1" font-family="sans-serif" font-size="8.00" fill="#1c2021">Person</text>
<polyline fill="none" stroke="#2e3436" stroke-width="1.5" points="452.5,-124.5 569.5,-124.5 "/>
<text text-anchor="start" x="460.5" y="-114.1" font-family="sans-serif" font-size="8.00" fill="#1c2021">name = &#39;Keanu Reeves&#39;</text>
<text text-anchor="start" x="460.5" y="-105.1" font-family="sans-serif" font-size="8.00" fill="#1c2021">born = 1964</text>
</g>
<!-- N4 -->
<g id="node5" class="node"><title>N4</title>
<path fill="#ffffff" stroke="#2e3436" stroke-width="1.5" d="M304.5,-98.5C304.5,-98.5 411.5,-98.5 411.5,-98.5 417.5,-98.5 423.5,-104.5 423.5,-110.5 423.5,-110.5 423.5,-129.5 423.5,-129.5 423.5,-135.5 417.5,-141.5 411.5,-141.5 411.5,-141.5 304.5,-141.5 304.5,-141.5 298.5,-141.5 292.5,-135.5 292.5,-129.5 292.5,-129.5 292.5,-110.5 292.5,-110.5 292.5,-104.5 298.5,-98.5 304.5,-98.5"/>
<text text-anchor="middle" x="358" y="-131.1" font-family="sans-serif" font-size="8.00" fill="#1c2021">Person</text>
<polyline fill="none" stroke="#2e3436" stroke-width="1.5" points="292.5,-124.5 423.5,-124.5 "/>
<text text-anchor="start" x="300.5" y="-114.1" font-family="sans-serif" font-size="8.00" fill="#1c2021">name = &#39;Robert Zemeckis&#39;</text>
<text text-anchor="start" x="300.5" y="-105.1" font-family="sans-serif" font-size="8.00" fill="#1c2021">born = 1951</text>
</g>
<!-- N4&#45;&gt;N2 -->
<g id="edge1" class="edge"><title>N4&#45;&gt;N2</title>
<path fill="none" stroke="#2e3436" stroke-width="2" d="M348.453,-98.1694C342.11,-84.3314 333.709,-66.0013 326.79,-50.9064"/>
<polygon fill="#2e3436" stroke="#2e3436" stroke-width="2" points="323.529,-43.7899 329.722,-49.2017 325.546,-46.9906 327.108,-50.3996 326.654,-50.6079 326.199,-50.8162 324.637,-47.4072 323.586,-52.0141 323.529,-43.7899 323.529,-43.7899"/>
<text text-anchor="middle" x="360" y="-69.1" font-family="sans-serif" font-size="8.00" fill="#2e3436">DIRECTED</text>
</g>
<!-- N5 -->
<g id="node6" class="node"><title>N5</title>
<path fill="#ffffff" stroke="#2e3436" stroke-width="1.5" d="M135,-98.5C135,-98.5 215,-98.5 215,-98.5 221,-98.5 227,-104.5 227,-110.5 227,-110.5 227,-129.5 227,-129.5 227,-135.5 221,-141.5 215,-141.5 215,-141.5 135,-141.5 135,-141.5 129,-141.5 123,-135.5 123,-129.5 123,-129.5 123,-110.5 123,-110.5 123,-104.5 129,-98.5 135,-98.5"/>
<text text-anchor="middle" x="175" y="-131.1" font-family="sans-serif" font-size="8.00" fill="#1c2021">Person</text>
<polyline fill="none" stroke="#2e3436" stroke-width="1.5" points="123,-124.5 227,-124.5 "/>
<text text-anchor="start" x="131" y="-114.1" font-family="sans-serif" font-size="8.00" fill="#1c2021">name = &#39;Tom Hanks&#39;</text>
<text text-anchor="start" x="131" y="-105.1" font-family="sans-serif" font-size="8.00" fill="#1c2021">born = 1956</text>
</g>
<!-- N5&#45;&gt;N1 -->
<g id="edge2" class="edge"><title>N5&#45;&gt;N1</title>
<path fill="none" stroke="#4e9a06" stroke-width="2" d="M148.401,-98.2427C143.354,-92.892 138.785,-86.7234 136,-80 132.3,-71.0662 131.713,-60.6538 132.404,-51.1909"/>
<polygon fill="#4e9a06" stroke="#4e9a06" stroke-width="2" points="133.244,-43.5186 135.782,-51.3414 133.333,-47.3008 132.925,-51.0285 132.428,-50.9741 131.93,-50.9196 132.339,-47.1919 129.073,-50.6067 133.244,-43.5186 133.244,-43.5186"/>
<text text-anchor="middle" x="174" y="-73.6" font-family="sans-serif" font-size="8.00" fill="#4e9a06">ACTED_IN</text>
<text text-anchor="start" x="136" y="-64.6" font-family="sans-serif" font-size="8.00" fill="#4e9a06">roles = [&#39;Zachry&#39;]</text>
</g>
<!-- N5&#45;&gt;N2 -->
<g id="edge3" class="edge"><title>N5&#45;&gt;N2</title>
<path fill="none" stroke="#4e9a06" stroke-width="2" d="M200.143,-98.4684C214.216,-87.2762 232.251,-73.4187 249,-62 256.076,-57.1756 263.755,-52.2838 271.273,-47.6705"/>
<polygon fill="#4e9a06" stroke="#4e9a06" stroke-width="2" points="278.111,-43.522 273.449,-50.298 275.164,-45.8948 271.958,-47.84 271.699,-47.4126 271.439,-46.9851 274.645,-45.0398 269.948,-44.5271 278.111,-43.522 278.111,-43.522"/>
<text text-anchor="middle" x="287" y="-73.6" font-family="sans-serif" font-size="8.00" fill="#4e9a06">ACTED_IN</text>
<text text-anchor="start" x="249" y="-64.6" font-family="sans-serif" font-size="8.00" fill="#4e9a06">roles = [&#39;Forrest&#39;]</text>
</g>
</g>
</svg>
