<?xml version="1.0" encoding="UTF-8" standalone="no"?>
<!DOCTYPE svg PUBLIC "-//W3C//DTD SVG 1.1//EN"
 "http://www.w3.org/Graphics/SVG/1.1/DTD/svg11.dtd">
<!-- Generated by graphviz version 2.38.0 (20140413.2041)
 -->
<!-- Title: g Pages: 1 -->
<svg width="176pt" height="225pt"
 viewBox="0.00 0.00 176.00 225.00" xmlns="http://www.w3.org/2000/svg" xmlns:xlink="http://www.w3.org/1999/xlink">
<g id="graph0" class="graph" transform="scale(1 1) rotate(0) translate(4 221)">
<title>g</title>
<polygon fill="white" stroke="none" points="-4,4 -4,-221 172,-221 172,4 -4,4"/>
<!-- N0 -->
<g id="node1" class="node"><title>N0</title>
<path fill="#ffffff" stroke="#2e3436" stroke-width="1.5" d="M20,-82.5C20,-82.5 108,-82.5 108,-82.5 114,-82.5 120,-88.5 120,-94.5 120,-94.5 120,-113.5 120,-113.5 120,-119.5 114,-125.5 108,-125.5 108,-125.5 20,-125.5 20,-125.5 14,-125.5 8,-119.5 8,-113.5 8,-113.5 8,-94.5 8,-94.5 8,-88.5 14,-82.5 20,-82.5"/>
<text text-anchor="middle" x="64" y="-115.1" font-family="sans-serif" font-size="8.00" fill="#1c2021">Movie</text>
<polyline fill="none" stroke="#2e3436" stroke-width="1.5" points="8,-108.5 120,-108.5 "/>
<text text-anchor="start" x="16" y="-98.1" font-family="sans-serif" font-size="8.00" fill="#1c2021">title = &#39;movie title&#39;</text>
<text text-anchor="start" x="16" y="-89.1" font-family="sans-serif" font-size="8.00" fill="#1c2021">year = &#39;year released&#39;</text>
</g>
<!-- N8 -->
<g id="node3" class="node"><title>N8</title>
<path fill="#ffffff" stroke="#2e3436" stroke-width="1.5" d="M12,-0.5C12,-0.5 116,-0.5 116,-0.5 122,-0.5 128,-6.5 128,-12.5 128,-12.5 128,-24.5 128,-24.5 128,-30.5 122,-36.5 116,-36.5 116,-36.5 12,-36.5 12,-36.5 6,-36.5 0,-30.5 0,-24.5 0,-24.5 0,-12.5 0,-12.5 0,-6.5 6,-0.5 12,-0.5"/>
<text text-anchor="middle" x="64" y="-25.6" font-family="sans-serif" font-size="8.00" fill="#1c2021">Country</text>
<polyline fill="none" stroke="#2e3436" stroke-width="1.5" points="0,-18.5 128,-18.5 "/>
<text text-anchor="start" x="8" y="-7.6" font-family="sans-serif" font-size="8.00" fill="#1c2021">name = &#39;name of country&#39;</text>
</g>
<!-- N0&#45;&gt;N8 -->
<g id="edge2" class="edge"><title>N0&#45;&gt;N8</title>
<path fill="none" stroke="#2e3436" stroke-width="2" d="M64,-82.3595C64,-70.7915 64,-56.2893 64,-44.1303"/>
<polygon fill="#2e3436" stroke="#2e3436" stroke-width="2" points="64,-36.5328 67.3751,-44.0327 64.5,-40.2828 64.5001,-44.0328 64.0001,-44.0328 63.5001,-44.0328 63.5,-40.2828 60.6251,-44.0328 64,-36.5328 64,-36.5328"/>
<text text-anchor="middle" x="82.5" y="-57.6" font-family="sans-serif" font-size="8.00" fill="#2e3436">MADE_IN</text>
</g>
<!-- N3 -->
<g id="node2" class="node"><title>N3</title>
<path fill="#ffffff" stroke="#2e3436" stroke-width="1.5" d="M13,-180.5C13,-180.5 115,-180.5 115,-180.5 121,-180.5 127,-186.5 127,-192.5 127,-192.5 127,-204.5 127,-204.5 127,-210.5 121,-216.5 115,-216.5 115,-216.5 13,-216.5 13,-216.5 7,-216.5 1,-210.5 1,-204.5 1,-204.5 1,-192.5 1,-192.5 1,-186.5 7,-180.5 13,-180.5"/>
<text text-anchor="middle" x="64" y="-205.6" font-family="sans-serif" font-size="8.00" fill="#1c2021">Person</text>
<polyline fill="none" stroke="#2e3436" stroke-width="1.5" points="1,-198.5 127,-198.5 "/>
<text text-anchor="start" x="9" y="-187.6" font-family="sans-serif" font-size="8.00" fill="#1c2021">name = &#39;name of person&#39;</text>
</g>
<!-- N3&#45;&gt;N0 -->
<g id="edge1" class="edge"><title>N3&#45;&gt;N0</title>
<path fill="none" stroke="#4e9a06" stroke-width="2" d="M64,-180.101C64,-166.91 64,-148.505 64,-133.217"/>
<polygon fill="#4e9a06" stroke="#4e9a06" stroke-width="2" points="64,-125.55 67.3751,-133.05 64.5,-129.3 64.5001,-133.05 64.0001,-133.05 63.5001,-133.05 63.5,-129.3 60.6251,-133.05 64,-125.55 64,-125.55"/>
<text text-anchor="middle" x="116" y="-155.6" font-family="sans-serif" font-size="8.00" fill="#4e9a06">PLAYED</text>
<text text-anchor="start" x="64" y="-146.6" font-family="sans-serif" font-size="8.00" fill="#4e9a06">roles = [&#39;role(s) played&#39;]</text>
</g>
</g>
</svg>
