<?xml version="1.0" encoding="UTF-8" standalone="no"?>
<!DOCTYPE svg PUBLIC "-//W3C//DTD SVG 1.1//EN"
 "http://www.w3.org/Graphics/SVG/1.1/DTD/svg11.dtd">
<!-- Generated by graphviz version 2.38.0 (20140413.2041)
 -->
<!-- Title: g Pages: 1 -->
<svg width="504pt" height="128pt"
 viewBox="0.00 0.00 504.00 128.27" xmlns="http://www.w3.org/2000/svg" xmlns:xlink="http://www.w3.org/1999/xlink">
<g id="graph0" class="graph" transform="scale(0.570093 0.570093) rotate(0) translate(4 221)">
<title>g</title>
<polygon fill="white" stroke="none" points="-4,4 -4,-221 880.066,-221 880.066,4 -4,4"/>
<!-- N0 -->
<g id="node1" class="node"><title>N0</title>
<path fill="#ffffff" stroke="#2e3436" stroke-width="1.5" d="M427.566,-82.5C427.566,-82.5 498.566,-82.5 498.566,-82.5 504.566,-82.5 510.566,-88.5 510.566,-94.5 510.566,-94.5 510.566,-113.5 510.566,-113.5 510.566,-119.5 504.566,-125.5 498.566,-125.5 498.566,-125.5 427.566,-125.5 427.566,-125.5 421.566,-125.5 415.566,-119.5 415.566,-113.5 415.566,-113.5 415.566,-94.5 415.566,-94.5 415.566,-88.5 421.566,-82.5 427.566,-82.5"/>
<text text-anchor="middle" x="463.066" y="-115.1" font-family="sans-serif" font-size="8.00" fill="#1c2021">Movie</text>
<polyline fill="none" stroke="#2e3436" stroke-width="1.5" points="415.566,-108.5 510.566,-108.5 "/>
<text text-anchor="start" x="423.566" y="-98.1" font-family="sans-serif" font-size="8.00" fill="#1c2021">title = &#39;Wall Street&#39;</text>
<text text-anchor="start" x="423.566" y="-89.1" font-family="sans-serif" font-size="8.00" fill="#1c2021">year = 1987</text>
</g>
<!-- N8 -->
<g id="node8" class="node"><title>N8</title>
<path fill="#ffffff" stroke="#2e3436" stroke-width="1.5" d="M437.566,-0.5C437.566,-0.5 488.566,-0.5 488.566,-0.5 494.566,-0.5 500.566,-6.5 500.566,-12.5 500.566,-12.5 500.566,-24.5 500.566,-24.5 500.566,-30.5 494.566,-36.5 488.566,-36.5 488.566,-36.5 437.566,-36.5 437.566,-36.5 431.566,-36.5 425.566,-30.5 425.566,-24.5 425.566,-24.5 425.566,-12.5 425.566,-12.5 425.566,-6.5 431.566,-0.5 437.566,-0.5"/>
<text text-anchor="middle" x="463.066" y="-25.6" font-family="sans-serif" font-size="8.00" fill="#1c2021">Country</text>
<polyline fill="none" stroke="#2e3436" stroke-width="1.5" points="425.566,-18.5 500.566,-18.5 "/>
<text text-anchor="start" x="433.566" y="-7.6" font-family="sans-serif" font-size="8.00" fill="#1c2021">name = &#39;USA&#39;</text>
</g>
<!-- N0&#45;&gt;N8 -->
<g id="edge7" class="edge"><title>N0&#45;&gt;N8</title>
<path fill="none" stroke="#2e3436" stroke-width="2" d="M463.066,-82.3595C463.066,-70.7915 463.066,-56.2893 463.066,-44.1303"/>
<polygon fill="#2e3436" stroke="#2e3436" stroke-width="2" points="463.066,-36.5328 466.441,-44.0327 463.566,-40.2828 463.566,-44.0328 463.066,-44.0328 462.566,-44.0328 462.566,-40.2828 459.691,-44.0328 463.066,-36.5328 463.066,-36.5328"/>
<text text-anchor="middle" x="481.566" y="-57.6" font-family="sans-serif" font-size="8.00" fill="#2e3436">MADE_IN</text>
</g>
<!-- N1 -->
<g id="node2" class="node"><title>N1</title>
<path fill="#ffffff" stroke="#2e3436" stroke-width="1.5" d="M617.066,-82.5C617.066,-82.5 763.066,-82.5 763.066,-82.5 769.066,-82.5 775.066,-88.5 775.066,-94.5 775.066,-94.5 775.066,-113.5 775.066,-113.5 775.066,-119.5 769.066,-125.5 763.066,-125.5 763.066,-125.5 617.066,-125.5 617.066,-125.5 611.066,-125.5 605.066,-119.5 605.066,-113.5 605.066,-113.5 605.066,-94.5 605.066,-94.5 605.066,-88.5 611.066,-82.5 617.066,-82.5"/>
<text text-anchor="middle" x="690.066" y="-115.1" font-family="sans-serif" font-size="8.00" fill="#1c2021">Movie</text>
<polyline fill="none" stroke="#2e3436" stroke-width="1.5" points="605.066,-108.5 775.066,-108.5 "/>
<text text-anchor="start" x="613.066" y="-98.1" font-family="sans-serif" font-size="8.00" fill="#1c2021">title = &#39;The Shawshank Redemption&#39;</text>
<text text-anchor="start" x="613.066" y="-89.1" font-family="sans-serif" font-size="8.00" fill="#1c2021">year = 1994</text>
</g>
<!-- N1&#45;&gt;N8 -->
<g id="edge8" class="edge"><title>N1&#45;&gt;N8</title>
<path fill="none" stroke="#2e3436" stroke-width="2" d="M634.245,-82.4667C595.354,-68.1613 544.159,-49.3296 507.919,-35.999"/>
<polygon fill="#2e3436" stroke="#2e3436" stroke-width="2" points="500.879,-33.4092 509.083,-32.831 504.571,-34.2346 508.09,-35.5292 507.918,-35.9985 507.745,-36.4677 504.226,-35.1731 506.752,-39.166 500.879,-33.4092 500.879,-33.4092"/>
<text text-anchor="middle" x="602.566" y="-57.6" font-family="sans-serif" font-size="8.00" fill="#2e3436">MADE_IN</text>
</g>
<!-- N2 -->
<g id="node3" class="node"><title>N2</title>
<path fill="#ffffff" stroke="#2e3436" stroke-width="1.5" d="M200.066,-82.5C200.066,-82.5 328.066,-82.5 328.066,-82.5 334.066,-82.5 340.066,-88.5 340.066,-94.5 340.066,-94.5 340.066,-113.5 340.066,-113.5 340.066,-119.5 334.066,-125.5 328.066,-125.5 328.066,-125.5 200.066,-125.5 200.066,-125.5 194.066,-125.5 188.066,-119.5 188.066,-113.5 188.066,-113.5 188.066,-94.5 188.066,-94.5 188.066,-88.5 194.066,-82.5 200.066,-82.5"/>
<text text-anchor="middle" x="264.066" y="-115.1" font-family="sans-serif" font-size="8.00" fill="#1c2021">Movie</text>
<polyline fill="none" stroke="#2e3436" stroke-width="1.5" points="188.066,-108.5 340.066,-108.5 "/>
<text text-anchor="start" x="196.066" y="-98.1" font-family="sans-serif" font-size="8.00" fill="#1c2021">title = &#39;The American President&#39;</text>
<text text-anchor="start" x="196.066" y="-89.1" font-family="sans-serif" font-size="8.00" fill="#1c2021">year = 1995</text>
</g>
<!-- N2&#45;&gt;N8 -->
<g id="edge9" class="edge"><title>N2&#45;&gt;N8</title>
<path fill="none" stroke="#2e3436" stroke-width="2" d="M313.001,-82.4667C345.07,-69.0107 386.683,-51.5499 417.952,-38.4296"/>
<polygon fill="#2e3436" stroke="#2e3436" stroke-width="2" points="425.263,-35.3621 419.653,-41.3761 421.998,-37.2741 418.54,-38.7251 418.347,-38.264 418.153,-37.803 421.611,-36.352 417.041,-35.1519 425.263,-35.3621 425.263,-35.3621"/>
<text text-anchor="middle" x="394.566" y="-57.6" font-family="sans-serif" font-size="8.00" fill="#2e3436">MADE_IN</text>
</g>
<!-- N3 -->
<g id="node4" class="node"><title>N3</title>
<path fill="#ffffff" stroke="#2e3436" stroke-width="1.5" d="M15.0657,-180.5C15.0657,-180.5 105.066,-180.5 105.066,-180.5 111.066,-180.5 117.066,-186.5 117.066,-192.5 117.066,-192.5 117.066,-204.5 117.066,-204.5 117.066,-210.5 111.066,-216.5 105.066,-216.5 105.066,-216.5 15.0657,-216.5 15.0657,-216.5 9.06571,-216.5 3.06571,-210.5 3.06571,-204.5 3.06571,-204.5 3.06571,-192.5 3.06571,-192.5 3.06571,-186.5 9.06571,-180.5 15.0657,-180.5"/>
<text text-anchor="middle" x="60.0657" y="-205.6" font-family="sans-serif" font-size="8.00" fill="#1c2021">Person</text>
<polyline fill="none" stroke="#2e3436" stroke-width="1.5" points="3.06571,-198.5 117.066,-198.5 "/>
<text text-anchor="start" x="11.0657" y="-187.6" font-family="sans-serif" font-size="8.00" fill="#1c2021">name = &#39;Martin Sheen&#39;</text>
</g>
<!-- N3&#45;&gt;N0 -->
<g id="edge2" class="edge"><title>N3&#45;&gt;N0</title>
<path fill="none" stroke="#4e9a06" stroke-width="2" d="M88.359,-180.252C109.942,-167.976 140.84,-152.249 170.066,-144 249.144,-121.68 272.747,-137.785 354.066,-126 371.597,-123.459 390.592,-120.036 407.739,-116.691"/>
<polygon fill="#4e9a06" stroke="#4e9a06" stroke-width="2" points="415.476,-115.163 408.772,-119.927 411.894,-116.38 408.215,-117.106 408.118,-116.616 408.021,-116.125 411.7,-115.399 407.464,-113.305 415.476,-115.163 415.476,-115.163"/>
<text text-anchor="middle" x="210.066" y="-155.6" font-family="sans-serif" font-size="8.00" fill="#4e9a06">PLAYED</text>
<text text-anchor="start" x="170.066" y="-146.6" font-family="sans-serif" font-size="8.00" fill="#4e9a06">roles = [&#39;Carl Fox&#39;]</text>
</g>
<!-- N3&#45;&gt;N2 -->
<g id="edge5" class="edge"><title>N3&#45;&gt;N2</title>
<path fill="none" stroke="#4e9a06" stroke-width="2" d="M23.2491,-180.293C6.61751,-170.207 -7.07753,-156.939 4.06571,-144 26.5794,-117.857 113.17,-108.99 180.309,-106.112"/>
<polygon fill="#4e9a06" stroke="#4e9a06" stroke-width="2" points="187.98,-105.805 180.621,-109.477 184.253,-106.455 180.506,-106.605 180.486,-106.105 180.466,-105.606 184.213,-105.456 180.351,-102.733 187.98,-105.805 187.98,-105.805"/>
<text text-anchor="middle" x="59.0657" y="-155.6" font-family="sans-serif" font-size="8.00" fill="#4e9a06">PLAYED</text>
<text text-anchor="start" x="4.06571" y="-146.6" font-family="sans-serif" font-size="8.00" fill="#4e9a06">roles = [&#39;A.J. MacInerney&#39;]</text>
</g>
<!-- N4 -->
<g id="node5" class="node"><title>N4</title>
<path fill="#ffffff" stroke="#2e3436" stroke-width="1.5" d="M556.066,-180.5C556.066,-180.5 650.066,-180.5 650.066,-180.5 656.066,-180.5 662.066,-186.5 662.066,-192.5 662.066,-192.5 662.066,-204.5 662.066,-204.5 662.066,-210.5 656.066,-216.5 650.066,-216.5 650.066,-216.5 556.066,-216.5 556.066,-216.5 550.066,-216.5 544.066,-210.5 544.066,-204.5 544.066,-204.5 544.066,-192.5 544.066,-192.5 544.066,-186.5 550.066,-180.5 556.066,-180.5"/>
<text text-anchor="middle" x="603.066" y="-205.6" font-family="sans-serif" font-size="8.00" fill="#1c2021">Person</text>
<polyline fill="none" stroke="#2e3436" stroke-width="1.5" points="544.066,-198.5 662.066,-198.5 "/>
<text text-anchor="start" x="552.066" y="-187.6" font-family="sans-serif" font-size="8.00" fill="#1c2021">name = &#39;Charlie Sheen&#39;</text>
</g>
<!-- N4&#45;&gt;N0 -->
<g id="edge1" class="edge"><title>N4&#45;&gt;N0</title>
<path fill="none" stroke="#4e9a06" stroke-width="2" d="M591.481,-180.2C583.053,-168.689 570.755,-153.917 557.066,-144 545.247,-135.438 531.269,-128.341 517.755,-122.655"/>
<polygon fill="#4e9a06" stroke="#4e9a06" stroke-width="2" points="510.744,-119.809 518.963,-119.503 514.407,-120.756 517.882,-122.167 517.694,-122.63 517.506,-123.093 514.031,-121.683 516.425,-125.757 510.744,-119.809 510.744,-119.809"/>
<text text-anchor="middle" x="615.566" y="-155.6" font-family="sans-serif" font-size="8.00" fill="#4e9a06">PLAYED</text>
<text text-anchor="start" x="576.066" y="-146.6" font-family="sans-serif" font-size="8.00" fill="#4e9a06">roles = [&#39;Bud Fox&#39;]</text>
</g>
<!-- N6 -->
<g id="node6" class="node"><title>N6</title>
<path fill="#ffffff" stroke="#2e3436" stroke-width="1.5" d="M703.566,-180.5C703.566,-180.5 808.566,-180.5 808.566,-180.5 814.566,-180.5 820.566,-186.5 820.566,-192.5 820.566,-192.5 820.566,-204.5 820.566,-204.5 820.566,-210.5 814.566,-216.5 808.566,-216.5 808.566,-216.5 703.566,-216.5 703.566,-216.5 697.566,-216.5 691.566,-210.5 691.566,-204.5 691.566,-204.5 691.566,-192.5 691.566,-192.5 691.566,-186.5 697.566,-180.5 703.566,-180.5"/>
<text text-anchor="middle" x="756.066" y="-205.6" font-family="sans-serif" font-size="8.00" fill="#1c2021">Person</text>
<polyline fill="none" stroke="#2e3436" stroke-width="1.5" points="691.566,-198.5 820.566,-198.5 "/>
<text text-anchor="start" x="699.566" y="-187.6" font-family="sans-serif" font-size="8.00" fill="#1c2021">name = &#39;Morgan Freeman&#39;</text>
</g>
<!-- N6&#45;&gt;N1 -->
<g id="edge6" class="edge"><title>N6&#45;&gt;N1</title>
<path fill="none" stroke="#4e9a06" stroke-width="2" d="M743.652,-180.101C733.98,-166.547 720.381,-147.488 709.303,-131.962"/>
<polygon fill="#4e9a06" stroke="#4e9a06" stroke-width="2" points="704.729,-125.55 711.832,-129.695 707.314,-128.312 709.492,-131.365 709.085,-131.656 708.678,-131.946 706.5,-128.893 706.337,-133.616 704.729,-125.55 704.729,-125.55"/>
<text text-anchor="middle" x="802.566" y="-155.6" font-family="sans-serif" font-size="8.00" fill="#4e9a06">PLAYED</text>
<text text-anchor="start" x="729.066" y="-146.6" font-family="sans-serif" font-size="8.00" fill="#4e9a06">roles = [&#39;Ellis Boyd &#39;Red&#39; Redding&#39;]</text>
</g>
<!-- N7 -->
<g id="node7" class="node"><title>N7</title>
<path fill="#ffffff" stroke="#2e3436" stroke-width="1.5" d="M305.566,-180.5C305.566,-180.5 408.566,-180.5 408.566,-180.5 414.566,-180.5 420.566,-186.5 420.566,-192.5 420.566,-192.5 420.566,-204.5 420.566,-204.5 420.566,-210.5 414.566,-216.5 408.566,-216.5 408.566,-216.5 305.566,-216.5 305.566,-216.5 299.566,-216.5 293.566,-210.5 293.566,-204.5 293.566,-204.5 293.566,-192.5 293.566,-192.5 293.566,-186.5 299.566,-180.5 305.566,-180.5"/>
<text text-anchor="middle" x="357.066" y="-205.6" font-family="sans-serif" font-size="8.00" fill="#1c2021">Person</text>
<polyline fill="none" stroke="#2e3436" stroke-width="1.5" points="293.566,-198.5 420.566,-198.5 "/>
<text text-anchor="start" x="301.566" y="-187.6" font-family="sans-serif" font-size="8.00" fill="#1c2021">name = &#39;Michael Douglas&#39;</text>
</g>
<!-- N7&#45;&gt;N0 -->
<g id="edge3" class="edge"><title>N7&#45;&gt;N0</title>
<path fill="none" stroke="#4e9a06" stroke-width="2" d="M402.954,-180.349C412.604,-175.388 422.224,-169.295 430.066,-162 438.841,-153.837 445.962,-142.803 451.313,-132.618"/>
<polygon fill="#4e9a06" stroke="#4e9a06" stroke-width="2" points="454.733,-125.748 454.412,-133.966 453.509,-129.328 451.838,-132.685 451.39,-132.462 450.943,-132.239 452.614,-128.882 448.369,-130.958 454.733,-125.748 454.733,-125.748"/>
<text text-anchor="middle" x="497.066" y="-155.6" font-family="sans-serif" font-size="8.00" fill="#4e9a06">PLAYED</text>
<text text-anchor="start" x="444.066" y="-146.6" font-family="sans-serif" font-size="8.00" fill="#4e9a06">roles = [&#39;Gordon Gekko&#39;]</text>
</g>
<!-- N7&#45;&gt;N2 -->
<g id="edge4" class="edge"><title>N7&#45;&gt;N2</title>
<path fill="none" stroke="#4e9a06" stroke-width="2" d="M293.527,-185.834C281.166,-180.589 269.694,-172.994 262.066,-162 256.364,-153.783 255.473,-143.178 256.484,-133.347"/>
<polygon fill="#4e9a06" stroke="#4e9a06" stroke-width="2" points="257.647,-125.69 259.857,-133.612 257.578,-129.473 257.015,-133.18 256.521,-133.105 256.026,-133.03 256.589,-129.322 253.184,-132.598 257.647,-125.69 257.647,-125.69"/>
<text text-anchor="middle" x="344.566" y="-155.6" font-family="sans-serif" font-size="8.00" fill="#4e9a06">PLAYED</text>
<text text-anchor="start" x="262.066" y="-146.6" font-family="sans-serif" font-size="8.00" fill="#4e9a06">roles = [&#39;President Andrew Shepherd&#39;]</text>
</g>
</g>
</svg>
