<?xml version="1.0" encoding="UTF-8" standalone="no"?>
<!DOCTYPE svg PUBLIC "-//W3C//DTD SVG 1.1//EN"
 "http://www.w3.org/Graphics/SVG/1.1/DTD/svg11.dtd">
<!-- Generated by graphviz version 2.38.0 (20140413.2041)
 -->
<!-- Title: g Pages: 1 -->
<svg width="273pt" height="136pt"
 viewBox="0.00 0.00 272.50 136.00" xmlns="http://www.w3.org/2000/svg" xmlns:xlink="http://www.w3.org/1999/xlink">
<g id="graph0" class="graph" transform="scale(1 1) rotate(0) translate(4 132)">
<title>g</title>
<polygon fill="white" stroke="none" points="-4,4 -4,-132 268.5,-132 268.5,4 -4,4"/>
<!-- N2 -->
<g id="node1" class="node"><title>N2</title>
<path fill="#ffffff" stroke="#2e3436" stroke-width="1.5" d="M12,-91.5C12,-91.5 92,-91.5 92,-91.5 98,-91.5 104,-97.5 104,-103.5 104,-103.5 104,-115.5 104,-115.5 104,-121.5 98,-127.5 92,-127.5 92,-127.5 12,-127.5 12,-127.5 6,-127.5 0,-121.5 0,-115.5 0,-115.5 0,-103.5 0,-103.5 0,-97.5 6,-91.5 12,-91.5"/>
<text text-anchor="start" x="8" y="-112.1" font-family="sans-serif" font-size="8.00" fill="#1c2021">name = &#39;Tom Hanks&#39;</text>
<text text-anchor="start" x="8" y="-103.1" font-family="sans-serif" font-size="8.00" fill="#1c2021">born = 1956</text>
</g>
<!-- N3 -->
<g id="node2" class="node"><title>N3</title>
<path fill="#ffffff" stroke="#2e3436" stroke-width="1.5" d="M82.5,-0.5C82.5,-0.5 167.5,-0.5 167.5,-0.5 173.5,-0.5 179.5,-6.5 179.5,-12.5 179.5,-12.5 179.5,-24.5 179.5,-24.5 179.5,-30.5 173.5,-36.5 167.5,-36.5 167.5,-36.5 82.5,-36.5 82.5,-36.5 76.5,-36.5 70.5,-30.5 70.5,-24.5 70.5,-24.5 70.5,-12.5 70.5,-12.5 70.5,-6.5 76.5,-0.5 82.5,-0.5"/>
<text text-anchor="start" x="78.5" y="-21.1" font-family="sans-serif" font-size="8.00" fill="#1c2021">title = &#39;Forrest Gump&#39;</text>
<text text-anchor="start" x="78.5" y="-12.1" font-family="sans-serif" font-size="8.00" fill="#1c2021">released = 1994</text>
</g>
<!-- N2&#45;&gt;N3 -->
<g id="edge1" class="edge"><title>N2&#45;&gt;N3</title>
<path fill="none" stroke="#2e3436" stroke-width="2" d="M61.7472,-91.3842C68.2851,-80.5064 77.4258,-66.3816 87,-55 90.6759,-50.6302 94.8551,-46.2526 99.0644,-42.1378"/>
<polygon fill="#2e3436" stroke="#2e3436" stroke-width="2" points="104.779,-36.7151 101.662,-44.326 102.403,-39.6592 99.6825,-42.2405 99.3384,-41.8778 98.9942,-41.5152 101.714,-38.9338 97.0152,-39.4297 104.779,-36.7151 104.779,-36.7151"/>
<text text-anchor="middle" x="125" y="-66.6" font-family="sans-serif" font-size="8.00" fill="#1c2021">ACTED_IN</text>
<text text-anchor="start" x="87" y="-57.6" font-family="sans-serif" font-size="8.00" fill="#1c2021">roles = [&#39;Forrest&#39;]</text>
</g>
<!-- N4 -->
<g id="node3" class="node"><title>N4</title>
<path fill="#ffffff" stroke="#2e3436" stroke-width="1.5" d="M145.5,-91.5C145.5,-91.5 252.5,-91.5 252.5,-91.5 258.5,-91.5 264.5,-97.5 264.5,-103.5 264.5,-103.5 264.5,-115.5 264.5,-115.5 264.5,-121.5 258.5,-127.5 252.5,-127.5 252.5,-127.5 145.5,-127.5 145.5,-127.5 139.5,-127.5 133.5,-121.5 133.5,-115.5 133.5,-115.5 133.5,-103.5 133.5,-103.5 133.5,-97.5 139.5,-91.5 145.5,-91.5"/>
<text text-anchor="start" x="141.5" y="-112.1" font-family="sans-serif" font-size="8.00" fill="#1c2021">name = &#39;Robert Zemeckis&#39;</text>
<text text-anchor="start" x="141.5" y="-103.1" font-family="sans-serif" font-size="8.00" fill="#1c2021">born = 1951</text>
</g>
<!-- N4&#45;&gt;N3 -->
<g id="edge2" class="edge"><title>N4&#45;&gt;N3</title>
<path fill="none" stroke="#2e3436" stroke-width="2" d="M190.115,-91.2182C184.073,-80.2742 175.476,-66.138 166,-55 162.139,-50.4619 157.682,-45.9981 153.159,-41.8493"/>
<polygon fill="#2e3436" stroke="#2e3436" stroke-width="2" points="147.434,-36.7806 155.287,-39.2258 150.573,-38.8923 153.381,-41.3783 153.049,-41.7526 152.718,-42.1269 149.91,-39.641 150.812,-44.2794 147.434,-36.7806 147.434,-36.7806"/>
<text text-anchor="middle" x="200" y="-62.1" font-family="sans-serif" font-size="8.00" fill="#1c2021">DIRECTED</text>
</g>
</g>
</svg>
