<?xml version="1.0" encoding="UTF-8" standalone="no"?>
<!DOCTYPE svg PUBLIC "-//W3C//DTD SVG 1.1//EN"
 "http://www.w3.org/Graphics/SVG/1.1/DTD/svg11.dtd">
<!-- Generated by graphviz version 2.38.0 (20140413.2041)
 -->
<!-- Title: g Pages: 1 -->
<svg width="172pt" height="45pt"
 viewBox="0.00 0.00 172.00 45.00" xmlns="http://www.w3.org/2000/svg" xmlns:xlink="http://www.w3.org/1999/xlink">
<g id="graph0" class="graph" transform="scale(1 1) rotate(0) translate(4 41)">
<title>g</title>
<polygon fill="white" stroke="none" points="-4,4 -4,-41 168,-41 168,4 -4,4"/>
<!-- N2 -->
<g id="node1" class="node"><title>N2</title>
<path fill="#ffffff" stroke="#2e3436" stroke-width="1.5" d="M12,-0.5C12,-0.5 92,-0.5 92,-0.5 98,-0.5 104,-6.5 104,-12.5 104,-12.5 104,-24.5 104,-24.5 104,-30.5 98,-36.5 92,-36.5 92,-36.5 12,-36.5 12,-36.5 6,-36.5 0,-30.5 0,-24.5 0,-24.5 0,-12.5 0,-12.5 0,-6.5 6,-0.5 12,-0.5"/>
<text text-anchor="start" x="8" y="-21.1" font-family="sans-serif" font-size="8.00" fill="#1c2021">name = &#39;Tom Hanks&#39;</text>
<text text-anchor="start" x="8" y="-12.1" font-family="sans-serif" font-size="8.00" fill="#1c2021">born = 1956</text>
</g>
<!-- N2&#45;&gt;N2 -->
<g id="edge1" class="edge"><title>N2&#45;&gt;N2</title>
<path fill="none" stroke="#2e3436" stroke-width="2" d="M104.197,-25.2434C120.331,-25.1072 133,-22.8594 133,-18.5 133,-14.8558 124.147,-12.6872 111.817,-11.9942"/>
<polygon fill="#2e3436" stroke="#2e3436" stroke-width="2" points="104.197,-11.7566 111.798,-8.61702 107.961,-11.3737 111.709,-11.4906 111.693,-11.9904 111.678,-12.4901 107.929,-12.3732 111.588,-15.3637 104.197,-11.7566 104.197,-11.7566"/>
<text text-anchor="middle" x="148.5" y="-16.6" font-family="sans-serif" font-size="8.00" fill="#1c2021">KNOWS</text>
</g>
</g>
</svg>
