<?xml version="1.0" encoding="UTF-8" standalone="no"?>
<!DOCTYPE svg PUBLIC "-//W3C//DTD SVG 1.1//EN"
 "http://www.w3.org/Graphics/SVG/1.1/DTD/svg11.dtd">
<!-- Generated by graphviz version 2.38.0 (20140413.2041)
 -->
<!-- Title: g Pages: 1 -->
<svg width="421pt" height="45pt"
 viewBox="0.00 0.00 421.00 45.00" xmlns="http://www.w3.org/2000/svg" xmlns:xlink="http://www.w3.org/1999/xlink">
<g id="graph0" class="graph" transform="scale(1 1) rotate(0) translate(4 41)">
<title>g</title>
<polygon fill="white" stroke="none" points="-4,4 -4,-41 417,-41 417,4 -4,4"/>
<!-- N2 -->
<g id="node1" class="node"><title>N2</title>
<path fill="#ffffff" stroke="#2e3436" stroke-width="1.5" d="M12,-0.5C12,-0.5 139,-0.5 139,-0.5 145,-0.5 151,-6.5 151,-12.5 151,-12.5 151,-24.5 151,-24.5 151,-30.5 145,-36.5 139,-36.5 139,-36.5 12,-36.5 12,-36.5 6,-36.5 0,-30.5 0,-24.5 0,-24.5 0,-12.5 0,-12.5 0,-6.5 6,-0.5 12,-0.5"/>
<text text-anchor="middle" x="23.5" y="-16.6" font-family="sans-serif" font-size="8.00" fill="#1c2021">Person</text>
<polyline fill="none" stroke="#2e3436" stroke-width="1.5" points="47,-0.5 47,-36.5 "/>
<text text-anchor="start" x="55" y="-21.1" font-family="sans-serif" font-size="8.00" fill="#1c2021">name = &#39;Tom Hanks&#39;</text>
<text text-anchor="start" x="55" y="-12.1" font-family="sans-serif" font-size="8.00" fill="#1c2021">born = 1956</text>
</g>
<!-- N3 -->
<g id="node2" class="node"><title>N3</title>
<path fill="#ffffff" stroke="#2e3436" stroke-width="1.5" d="M275,-0.5C275,-0.5 401,-0.5 401,-0.5 407,-0.5 413,-6.5 413,-12.5 413,-12.5 413,-24.5 413,-24.5 413,-30.5 407,-36.5 401,-36.5 401,-36.5 275,-36.5 275,-36.5 269,-36.5 263,-30.5 263,-24.5 263,-24.5 263,-12.5 263,-12.5 263,-6.5 269,-0.5 275,-0.5"/>
<text text-anchor="middle" x="283.5" y="-16.6" font-family="sans-serif" font-size="8.00" fill="#1c2021">Movie</text>
<polyline fill="none" stroke="#2e3436" stroke-width="1.5" points="304,-0.5 304,-36.5 "/>
<text text-anchor="start" x="312" y="-21.1" font-family="sans-serif" font-size="8.00" fill="#1c2021">title = &#39;Forrest Gump&#39;</text>
<text text-anchor="start" x="312" y="-12.1" font-family="sans-serif" font-size="8.00" fill="#1c2021">released = 1994</text>
</g>
<!-- N2&#45;&gt;N3 -->
<g id="edge1" class="edge"><title>N2&#45;&gt;N3</title>
<path fill="none" stroke="#2e3436" stroke-width="2" d="M151.149,-18.5C183.58,-18.5 221.672,-18.5 254.899,-18.5"/>
<polygon fill="#2e3436" stroke="#2e3436" stroke-width="2" points="262.791,-18.5 255.291,-21.8751 259.041,-19 255.291,-19.0001 255.291,-18.5001 255.291,-18.0001 259.041,-18 255.291,-15.1251 262.791,-18.5 262.791,-18.5"/>
<text text-anchor="middle" x="207" y="-30.1" font-family="sans-serif" font-size="8.00" fill="#1c2021">ACTED_IN</text>
<text text-anchor="start" x="169" y="-21.1" font-family="sans-serif" font-size="8.00" fill="#1c2021">roles = [&#39;Forrest&#39;]</text>
</g>
</g>
</svg>
