<?xml version="1.0" encoding="UTF-8" standalone="no"?>
<!DOCTYPE svg PUBLIC "-//W3C//DTD SVG 1.1//EN"
 "http://www.w3.org/Graphics/SVG/1.1/DTD/svg11.dtd">
<!-- Generated by graphviz version 2.38.0 (20140413.2041)
 -->
<!-- Title: g Pages: 1 -->
<svg width="290pt" height="232pt"
 viewBox="0.00 0.00 290.00 232.00" xmlns="http://www.w3.org/2000/svg" xmlns:xlink="http://www.w3.org/1999/xlink">
<g id="graph0" class="graph" transform="scale(1 1) rotate(0) translate(4 228)">
<title>g</title>
<polygon fill="white" stroke="none" points="-4,4 -4,-228 286,-228 286,4 -4,4"/>
<!-- N0 -->
<g id="node1" class="node"><title>N0</title>
<path fill="#ffffff" stroke="#2e3436" stroke-width="1.5" d="M117.5,-180.5C117.5,-180.5 156.5,-180.5 156.5,-180.5 162.5,-180.5 168.5,-186.5 168.5,-192.5 168.5,-192.5 168.5,-211.5 168.5,-211.5 168.5,-217.5 162.5,-223.5 156.5,-223.5 156.5,-223.5 117.5,-223.5 117.5,-223.5 111.5,-223.5 105.5,-217.5 105.5,-211.5 105.5,-211.5 105.5,-192.5 105.5,-192.5 105.5,-186.5 111.5,-180.5 117.5,-180.5"/>
<text text-anchor="middle" x="137" y="-213.1" font-family="sans-serif" font-size="8.00" fill="#1c2021">Person</text>
<polyline fill="none" stroke="#2e3436" stroke-width="1.5" points="105.5,-206.5 168.5,-206.5 "/>
<text text-anchor="start" x="113.5" y="-196.1" font-family="sans-serif" font-size="8.00" fill="#1c2021">name = &#39;A&#39;</text>
<text text-anchor="start" x="113.5" y="-187.1" font-family="sans-serif" font-size="8.00" fill="#1c2021">age = 13</text>
</g>
<!-- N1 -->
<g id="node2" class="node"><title>N1</title>
<path fill="#ffffff" stroke="#2e3436" stroke-width="1.5" d="M12,-82.5C12,-82.5 60,-82.5 60,-82.5 66,-82.5 72,-88.5 72,-94.5 72,-94.5 72,-122.5 72,-122.5 72,-128.5 66,-134.5 60,-134.5 60,-134.5 12,-134.5 12,-134.5 6,-134.5 0,-128.5 0,-122.5 0,-122.5 0,-94.5 0,-94.5 0,-88.5 6,-82.5 12,-82.5"/>
<text text-anchor="middle" x="36" y="-124.1" font-family="sans-serif" font-size="8.00" fill="#1c2021">Person</text>
<polyline fill="none" stroke="#2e3436" stroke-width="1.5" points="0,-117.5 72,-117.5 "/>
<text text-anchor="start" x="8" y="-107.1" font-family="sans-serif" font-size="8.00" fill="#1c2021">name = &#39;B&#39;</text>
<text text-anchor="start" x="8" y="-98.1" font-family="sans-serif" font-size="8.00" fill="#1c2021">age = 33</text>
<text text-anchor="start" x="8" y="-89.1" font-family="sans-serif" font-size="8.00" fill="#1c2021">eyes = &#39;blue&#39;</text>
</g>
<!-- N0&#45;&gt;N1 -->
<g id="edge1" class="edge"><title>N0&#45;&gt;N1</title>
<path fill="none" stroke="#2e3436" stroke-width="2" d="M114.334,-180.466C101.087,-168.465 84.1238,-153.097 69.3725,-139.734"/>
<polygon fill="#2e3436" stroke="#2e3436" stroke-width="2" points="63.6289,-134.53 71.4532,-137.064 66.7438,-136.677 69.5229,-139.195 69.1872,-139.566 68.8515,-139.936 66.0724,-137.418 66.9213,-142.067 63.6289,-134.53 63.6289,-134.53"/>
<text text-anchor="middle" x="108.5" y="-155.6" font-family="sans-serif" font-size="8.00" fill="#2e3436">KNOWS</text>
</g>
<!-- N2 -->
<g id="node3" class="node"><title>N2</title>
<path fill="#ffffff" stroke="#2e3436" stroke-width="1.5" d="M113,-82.5C113,-82.5 161,-82.5 161,-82.5 167,-82.5 173,-88.5 173,-94.5 173,-94.5 173,-122.5 173,-122.5 173,-128.5 167,-134.5 161,-134.5 161,-134.5 113,-134.5 113,-134.5 107,-134.5 101,-128.5 101,-122.5 101,-122.5 101,-94.5 101,-94.5 101,-88.5 107,-82.5 113,-82.5"/>
<text text-anchor="middle" x="137" y="-124.1" font-family="sans-serif" font-size="8.00" fill="#1c2021">Person</text>
<polyline fill="none" stroke="#2e3436" stroke-width="1.5" points="101,-117.5 173,-117.5 "/>
<text text-anchor="start" x="109" y="-107.1" font-family="sans-serif" font-size="8.00" fill="#1c2021">name = &#39;C&#39;</text>
<text text-anchor="start" x="109" y="-98.1" font-family="sans-serif" font-size="8.00" fill="#1c2021">age = 44</text>
<text text-anchor="start" x="109" y="-89.1" font-family="sans-serif" font-size="8.00" fill="#1c2021">eyes = &#39;blue&#39;</text>
</g>
<!-- N0&#45;&gt;N2 -->
<g id="edge2" class="edge"><title>N0&#45;&gt;N2</title>
<path fill="none" stroke="#2e3436" stroke-width="2" d="M137,-180.237C137,-169.059 137,-155.01 137,-142.384"/>
<polygon fill="#2e3436" stroke="#2e3436" stroke-width="2" points="137,-134.745 140.375,-142.245 137.5,-138.495 137.5,-142.245 137,-142.245 136.5,-142.245 136.5,-138.495 133.625,-142.245 137,-134.745 137,-134.745"/>
<text text-anchor="middle" x="152.5" y="-155.6" font-family="sans-serif" font-size="8.00" fill="#2e3436">KNOWS</text>
</g>
<!-- N3 -->
<g id="node4" class="node"><title>N3</title>
<path fill="#ffffff" stroke="#2e3436" stroke-width="1.5" d="M214,-87C214,-87 270,-87 270,-87 276,-87 282,-93 282,-99 282,-99 282,-118 282,-118 282,-124 276,-130 270,-130 270,-130 214,-130 214,-130 208,-130 202,-124 202,-118 202,-118 202,-99 202,-99 202,-93 208,-87 214,-87"/>
<text text-anchor="middle" x="242" y="-119.6" font-family="sans-serif" font-size="8.00" fill="#1c2021">Person</text>
<polyline fill="none" stroke="#2e3436" stroke-width="1.5" points="202,-113 282,-113 "/>
<text text-anchor="start" x="210" y="-102.6" font-family="sans-serif" font-size="8.00" fill="#1c2021">name = &#39;D&#39;</text>
<text text-anchor="start" x="210" y="-93.6" font-family="sans-serif" font-size="8.00" fill="#1c2021">eyes = &#39;brown&#39;</text>
</g>
<!-- N0&#45;&gt;N3 -->
<g id="edge3" class="edge"><title>N0&#45;&gt;N3</title>
<path fill="none" stroke="#2e3436" stroke-width="2" d="M160.564,-180.466C175.858,-167.138 195.915,-149.659 212.298,-135.383"/>
<polygon fill="#2e3436" stroke="#2e3436" stroke-width="2" points="218.151,-130.282 214.714,-137.754 215.653,-133.123 212.825,-135.587 212.497,-135.21 212.168,-134.833 214.996,-132.369 210.28,-132.665 218.151,-130.282 218.151,-130.282"/>
<text text-anchor="middle" x="204.5" y="-155.6" font-family="sans-serif" font-size="8.00" fill="#2e3436">KNOWS</text>
</g>
<!-- N4 -->
<g id="node5" class="node"><title>N4</title>
<path fill="#ffffff" stroke="#2e3436" stroke-width="1.5" d="M71,-0.5C71,-0.5 111,-0.5 111,-0.5 117,-0.5 123,-6.5 123,-12.5 123,-12.5 123,-24.5 123,-24.5 123,-30.5 117,-36.5 111,-36.5 111,-36.5 71,-36.5 71,-36.5 65,-36.5 59,-30.5 59,-24.5 59,-24.5 59,-12.5 59,-12.5 59,-6.5 65,-0.5 71,-0.5"/>
<text text-anchor="middle" x="91" y="-25.6" font-family="sans-serif" font-size="8.00" fill="#1c2021">Person</text>
<polyline fill="none" stroke="#2e3436" stroke-width="1.5" points="59,-18.5 123,-18.5 "/>
<text text-anchor="start" x="67" y="-7.6" font-family="sans-serif" font-size="8.00" fill="#1c2021">name = &#39;D&#39;</text>
</g>
<!-- N1&#45;&gt;N4 -->
<g id="edge4" class="edge"><title>N1&#45;&gt;N4</title>
<path fill="none" stroke="#2e3436" stroke-width="2" d="M51.9083,-82.0468C59.6176,-69.7118 68.8147,-54.9965 76.3507,-42.9388"/>
<polygon fill="#2e3436" stroke="#2e3436" stroke-width="2" points="80.3465,-36.5455 79.2335,-44.6943 78.783,-39.9905 76.7955,-43.1705 76.3715,-42.9055 75.9475,-42.6405 77.935,-39.4605 73.5095,-41.1168 80.3465,-36.5455 80.3465,-36.5455"/>
<text text-anchor="middle" x="84.5" y="-57.6" font-family="sans-serif" font-size="8.00" fill="#2e3436">KNOWS</text>
</g>
<!-- N2&#45;&gt;N4 -->
<g id="edge5" class="edge"><title>N2&#45;&gt;N4</title>
<path fill="none" stroke="#2e3436" stroke-width="2" d="M123.695,-82.0468C117.307,-69.826 109.697,-55.2688 103.428,-43.2744"/>
<polygon fill="#2e3436" stroke="#2e3436" stroke-width="2" points="99.9102,-36.5455 106.376,-41.6287 102.091,-39.6372 103.828,-42.9606 103.385,-43.1922 102.942,-43.4239 101.204,-40.1005 100.394,-44.7557 99.9102,-36.5455 99.9102,-36.5455"/>
<text text-anchor="middle" x="129.5" y="-57.6" font-family="sans-serif" font-size="8.00" fill="#2e3436">KNOWS</text>
</g>
</g>
</svg>
