<?xml version="1.0" encoding="UTF-8" standalone="no"?>
<!DOCTYPE svg PUBLIC "-//W3C//DTD SVG 1.1//EN"
 "http://www.w3.org/Graphics/SVG/1.1/DTD/svg11.dtd">
<!-- Generated by graphviz version 2.38.0 (20140413.2041)
 -->
<!-- Title: g Pages: 1 -->
<svg width="97pt" height="209pt"
 viewBox="0.00 0.00 97.00 209.00" xmlns="http://www.w3.org/2000/svg" xmlns:xlink="http://www.w3.org/1999/xlink">
<g id="graph0" class="graph" transform="scale(1 1) rotate(0) translate(4 205)">
<title>g</title>
<polygon fill="white" stroke="none" points="-4,4 -4,-205 93,-205 93,4 -4,4"/>
<!-- N0 -->
<g id="node1" class="node"><title>N0</title>
<path fill="#ffffff" stroke="#2e3436" stroke-width="1.5" d="M15.5,-164.5C15.5,-164.5 73.5,-164.5 73.5,-164.5 79.5,-164.5 85.5,-170.5 85.5,-176.5 85.5,-176.5 85.5,-188.5 85.5,-188.5 85.5,-194.5 79.5,-200.5 73.5,-200.5 73.5,-200.5 15.5,-200.5 15.5,-200.5 9.5,-200.5 3.5,-194.5 3.5,-188.5 3.5,-188.5 3.5,-176.5 3.5,-176.5 3.5,-170.5 9.5,-164.5 15.5,-164.5"/>
<text text-anchor="middle" x="44.5" y="-189.6" font-family="sans-serif" font-size="8.00" fill="#1c2021">User</text>
<polyline fill="none" stroke="#2e3436" stroke-width="1.5" points="3.5,-182.5 85.5,-182.5 "/>
<text text-anchor="start" x="11.5" y="-171.6" font-family="sans-serif" font-size="8.00" fill="#1c2021">name = &#39;Adam&#39;</text>
</g>
<!-- N1 -->
<g id="node2" class="node"><title>N1</title>
<path fill="#ffffff" stroke="#2e3436" stroke-width="1.5" d="M12,-82.5C12,-82.5 77,-82.5 77,-82.5 83,-82.5 89,-88.5 89,-94.5 89,-94.5 89,-106.5 89,-106.5 89,-112.5 83,-118.5 77,-118.5 77,-118.5 12,-118.5 12,-118.5 6,-118.5 -7.10543e-15,-112.5 -7.10543e-15,-106.5 -7.10543e-15,-106.5 -7.10543e-15,-94.5 -7.10543e-15,-94.5 -7.10543e-15,-88.5 6,-82.5 12,-82.5"/>
<text text-anchor="middle" x="44.5" y="-107.6" font-family="sans-serif" font-size="8.00" fill="#1c2021">User</text>
<polyline fill="none" stroke="#2e3436" stroke-width="1.5" points="-7.10543e-15,-100.5 89,-100.5 "/>
<text text-anchor="start" x="8" y="-89.6" font-family="sans-serif" font-size="8.00" fill="#1c2021">name = &#39;Pernilla&#39;</text>
</g>
<!-- N0&#45;&gt;N1 -->
<g id="edge1" class="edge"><title>N0&#45;&gt;N1</title>
<path fill="none" stroke="#2e3436" stroke-width="2" d="M44.5,-164.141C44.5,-153.058 44.5,-138.518 44.5,-126.236"/>
<polygon fill="#2e3436" stroke="#2e3436" stroke-width="2" points="44.5,-118.55 47.8751,-126.05 45,-122.3 45.0001,-126.05 44.5001,-126.05 44.0001,-126.05 44,-122.3 41.1251,-126.05 44.5,-118.55 44.5,-118.55"/>
<text text-anchor="middle" x="59.5" y="-139.6" font-family="sans-serif" font-size="8.00" fill="#2e3436">FRIEND</text>
</g>
<!-- N2 -->
<g id="node3" class="node"><title>N2</title>
<path fill="#ffffff" stroke="#2e3436" stroke-width="1.5" d="M16,-0.5C16,-0.5 73,-0.5 73,-0.5 79,-0.5 85,-6.5 85,-12.5 85,-12.5 85,-24.5 85,-24.5 85,-30.5 79,-36.5 73,-36.5 73,-36.5 16,-36.5 16,-36.5 10,-36.5 4,-30.5 4,-24.5 4,-24.5 4,-12.5 4,-12.5 4,-6.5 10,-0.5 16,-0.5"/>
<text text-anchor="middle" x="44.5" y="-25.6" font-family="sans-serif" font-size="8.00" fill="#1c2021">User</text>
<polyline fill="none" stroke="#2e3436" stroke-width="1.5" points="4,-18.5 85,-18.5 "/>
<text text-anchor="start" x="12" y="-7.6" font-family="sans-serif" font-size="8.00" fill="#1c2021">name = &#39;David&#39;</text>
</g>
<!-- N1&#45;&gt;N2 -->
<g id="edge2" class="edge"><title>N1&#45;&gt;N2</title>
<path fill="none" stroke="#2e3436" stroke-width="2" d="M44.5,-82.1412C44.5,-71.0583 44.5,-56.5177 44.5,-44.2358"/>
<polygon fill="#2e3436" stroke="#2e3436" stroke-width="2" points="44.5,-36.5501 47.8751,-44.0501 45,-40.3001 45.0001,-44.0501 44.5001,-44.0501 44.0001,-44.0501 44,-40.3001 41.1251,-44.0501 44.5,-36.5501 44.5,-36.5501"/>
<text text-anchor="middle" x="59.5" y="-57.6" font-family="sans-serif" font-size="8.00" fill="#2e3436">FRIEND</text>
</g>
</g>
</svg>
