<?xml version="1.0" encoding="UTF-8" standalone="no"?>
<!DOCTYPE svg PUBLIC "-//W3C//DTD SVG 1.1//EN"
 "http://www.w3.org/Graphics/SVG/1.1/DTD/svg11.dtd">
<!-- Generated by graphviz version 2.38.0 (20140413.2041)
 -->
<!-- Title: g Pages: 1 -->
<svg width="229pt" height="209pt"
 viewBox="0.00 0.00 228.50 209.00" xmlns="http://www.w3.org/2000/svg" xmlns:xlink="http://www.w3.org/1999/xlink">
<g id="graph0" class="graph" transform="scale(1 1) rotate(0) translate(4 205)">
<title>g</title>
<polygon fill="white" stroke="none" points="-4,4 -4,-205 224.5,-205 224.5,4 -4,4"/>
<!-- N0 -->
<g id="node1" class="node"><title>N0</title>
<path fill="#ffffff" stroke="#2e3436" stroke-width="1.5" d="M12,-82.5C12,-82.5 51,-82.5 51,-82.5 57,-82.5 63,-88.5 63,-94.5 63,-94.5 63,-106.5 63,-106.5 63,-112.5 57,-118.5 51,-118.5 51,-118.5 12,-118.5 12,-118.5 6,-118.5 0,-112.5 0,-106.5 0,-106.5 0,-94.5 0,-94.5 0,-88.5 6,-82.5 12,-82.5"/>
<text text-anchor="start" x="8" y="-98.6" font-family="sans-serif" font-size="8.00" fill="#1c2021">name = &#39;A&#39;</text>
</g>
<!-- N2 -->
<g id="node2" class="node"><title>N2</title>
<path fill="#ffffff" stroke="#2e3436" stroke-width="1.5" d="M66.5,-0.5C66.5,-0.5 106.5,-0.5 106.5,-0.5 112.5,-0.5 118.5,-6.5 118.5,-12.5 118.5,-12.5 118.5,-24.5 118.5,-24.5 118.5,-30.5 112.5,-36.5 106.5,-36.5 106.5,-36.5 66.5,-36.5 66.5,-36.5 60.5,-36.5 54.5,-30.5 54.5,-24.5 54.5,-24.5 54.5,-12.5 54.5,-12.5 54.5,-6.5 60.5,-0.5 66.5,-0.5"/>
<text text-anchor="start" x="62.5" y="-16.6" font-family="sans-serif" font-size="8.00" fill="#1c2021">name = &#39;C&#39;</text>
</g>
<!-- N0&#45;&gt;N2 -->
<g id="edge1" class="edge"><title>N0&#45;&gt;N2</title>
<path fill="none" stroke="#2e3436" stroke-width="2" d="M43.4342,-82.1412C51.3439,-70.6361 61.8155,-55.4048 70.4522,-42.8423"/>
<polygon fill="#2e3436" stroke="#2e3436" stroke-width="2" points="74.7781,-36.5501 73.3102,-44.6425 73.0656,-39.9235 70.9411,-43.0137 70.529,-42.7304 70.117,-42.4472 72.2415,-39.357 67.7479,-40.8184 74.7781,-36.5501 74.7781,-36.5501"/>
<text text-anchor="middle" x="77" y="-57.6" font-family="sans-serif" font-size="8.00" fill="#2e3436">KNOWS</text>
</g>
<!-- N1 -->
<g id="node3" class="node"><title>N1</title>
<path fill="#ffffff" stroke="#2e3436" stroke-width="1.5" d="M168.5,-82.5C168.5,-82.5 208.5,-82.5 208.5,-82.5 214.5,-82.5 220.5,-88.5 220.5,-94.5 220.5,-94.5 220.5,-106.5 220.5,-106.5 220.5,-112.5 214.5,-118.5 208.5,-118.5 208.5,-118.5 168.5,-118.5 168.5,-118.5 162.5,-118.5 156.5,-112.5 156.5,-106.5 156.5,-106.5 156.5,-94.5 156.5,-94.5 156.5,-88.5 162.5,-82.5 168.5,-82.5"/>
<text text-anchor="start" x="164.5" y="-98.6" font-family="sans-serif" font-size="8.00" fill="#1c2021">name = &#39;B&#39;</text>
</g>
<!-- N3 -->
<g id="node4" class="node"><title>N3</title>
<path fill="#ffffff" stroke="#2e3436" stroke-width="1.5" d="M96,-164.5C96,-164.5 147,-164.5 147,-164.5 153,-164.5 159,-170.5 159,-176.5 159,-176.5 159,-188.5 159,-188.5 159,-194.5 153,-200.5 147,-200.5 147,-200.5 96,-200.5 96,-200.5 90,-200.5 84,-194.5 84,-188.5 84,-188.5 84,-176.5 84,-176.5 84,-170.5 90,-164.5 96,-164.5"/>
<text text-anchor="start" x="92" y="-180.6" font-family="sans-serif" font-size="8.00" fill="#1c2021">name = &#39;root&#39;</text>
</g>
<!-- N3&#45;&gt;N0 -->
<g id="edge4" class="edge"><title>N3&#45;&gt;N0</title>
<path fill="none" stroke="#4e9a06" stroke-width="2" d="M101.971,-164.141C88.6719,-152.319 70.9465,-136.564 56.6002,-123.811"/>
<polygon fill="#4e9a06" stroke="#4e9a06" stroke-width="2" points="50.6814,-118.55 58.5292,-121.01 53.8163,-120.668 56.6191,-123.159 56.287,-123.533 55.9548,-123.907 53.152,-121.415 54.0447,-126.055 50.6814,-118.55 50.6814,-118.55"/>
<text text-anchor="middle" x="82.5" y="-139.6" font-family="sans-serif" font-size="8.00" fill="#4e9a06">X</text>
</g>
<!-- N3&#45;&gt;N2 -->
<g id="edge2" class="edge"><title>N3&#45;&gt;N2</title>
<path fill="none" stroke="#4e9a06" stroke-width="2" d="M119.476,-164.1C116.39,-139.514 109.762,-93.3287 99.5,-55 98.5324,-51.3861 97.3512,-47.6216 96.0995,-43.9527"/>
<polygon fill="#4e9a06" stroke="#4e9a06" stroke-width="2" points="93.477,-36.6349 99.1844,-42.5566 95.2128,-39.9964 96.478,-43.5266 96.0073,-43.6953 95.5366,-43.8639 94.2714,-40.3338 92.8301,-44.8339 93.477,-36.6349 93.477,-36.6349"/>
<text text-anchor="middle" x="116.5" y="-98.6" font-family="sans-serif" font-size="8.00" fill="#4e9a06">X</text>
</g>
<!-- N3&#45;&gt;N1 -->
<g id="edge3" class="edge"><title>N3&#45;&gt;N1</title>
<path fill="none" stroke="#4e9a06" stroke-width="2" d="M136.038,-164.141C145.762,-152.531 158.664,-137.125 169.24,-124.497"/>
<polygon fill="#4e9a06" stroke="#4e9a06" stroke-width="2" points="174.221,-118.55 171.992,-126.467 172.196,-121.746 169.788,-124.621 169.405,-124.3 169.022,-123.979 171.429,-121.104 166.818,-122.133 174.221,-118.55 174.221,-118.55"/>
<text text-anchor="middle" x="160.5" y="-139.6" font-family="sans-serif" font-size="8.00" fill="#4e9a06">X</text>
</g>
</g>
</svg>
