<?xml version="1.0" encoding="UTF-8" standalone="no"?>
<!DOCTYPE svg PUBLIC "-//W3C//DTD SVG 1.1//EN"
 "http://www.w3.org/Graphics/SVG/1.1/DTD/svg11.dtd">
<!-- Generated by graphviz version 2.38.0 (20140413.2041)
 -->
<!-- Title: g Pages: 1 -->
<svg width="171pt" height="127pt"
 viewBox="0.00 0.00 171.00 127.00" xmlns="http://www.w3.org/2000/svg" xmlns:xlink="http://www.w3.org/1999/xlink">
<g id="graph0" class="graph" transform="scale(1 1) rotate(0) translate(4 123)">
<title>g</title>
<polygon fill="white" stroke="none" points="-4,4 -4,-123 167,-123 167,4 -4,4"/>
<!-- N6 -->
<g id="node1" class="node"><title>N6</title>
<path fill="#ffffff" stroke="#2e3436" stroke-width="1.5" d="M59,-0.5C59,-0.5 104,-0.5 104,-0.5 110,-0.5 116,-6.5 116,-12.5 116,-12.5 116,-24.5 116,-24.5 116,-30.5 110,-36.5 104,-36.5 104,-36.5 59,-36.5 59,-36.5 53,-36.5 47,-30.5 47,-24.5 47,-24.5 47,-12.5 47,-12.5 47,-6.5 53,-0.5 59,-0.5"/>
<text text-anchor="middle" x="81.5" y="-25.6" font-family="sans-serif" font-size="8.00" fill="#1c2021">Year</text>
<polyline fill="none" stroke="#2e3436" stroke-width="1.5" points="47,-18.5 116,-18.5 "/>
<text text-anchor="start" x="55" y="-7.6" font-family="sans-serif" font-size="8.00" fill="#1c2021">year = 2014</text>
</g>
<!-- N8 -->
<g id="node2" class="node"><title>N8</title>
<path fill="#ffffff" stroke="#2e3436" stroke-width="1.5" d="M12,-82.5C12,-82.5 55,-82.5 55,-82.5 61,-82.5 67,-88.5 67,-94.5 67,-94.5 67,-106.5 67,-106.5 67,-112.5 61,-118.5 55,-118.5 55,-118.5 12,-118.5 12,-118.5 6,-118.5 0,-112.5 0,-106.5 0,-106.5 0,-94.5 0,-94.5 0,-88.5 6,-82.5 12,-82.5"/>
<text text-anchor="middle" x="33.5" y="-107.6" font-family="sans-serif" font-size="8.00" fill="#1c2021">Month</text>
<polyline fill="none" stroke="#2e3436" stroke-width="1.5" points="0,-100.5 67,-100.5 "/>
<text text-anchor="start" x="8" y="-89.6" font-family="sans-serif" font-size="8.00" fill="#1c2021">month = 11</text>
</g>
<!-- N8&#45;&gt;N6 -->
<g id="edge1" class="edge"><title>N8&#45;&gt;N6</title>
<path fill="none" stroke="#2e3436" stroke-width="2" d="M43.5206,-82.1091C48.3076,-73.8635 54.1477,-63.8929 59.5,-55 61.7994,-51.1794 64.2638,-47.1457 66.681,-43.2217"/>
<polygon fill="#2e3436" stroke="#2e3436" stroke-width="2" points="70.6672,-36.7787 69.5913,-44.9324 69.1194,-40.2308 67.1464,-43.4198 66.7212,-43.1567 66.296,-42.8936 68.269,-39.7046 63.8511,-41.381 70.6672,-36.7787 70.6672,-36.7787"/>
<text text-anchor="middle" x="76.5" y="-57.6" font-family="sans-serif" font-size="8.00" fill="#2e3436">IN_YEAR</text>
</g>
<!-- N7 -->
<g id="node3" class="node"><title>N7</title>
<path fill="#ffffff" stroke="#2e3436" stroke-width="1.5" d="M108,-82.5C108,-82.5 151,-82.5 151,-82.5 157,-82.5 163,-88.5 163,-94.5 163,-94.5 163,-106.5 163,-106.5 163,-112.5 157,-118.5 151,-118.5 151,-118.5 108,-118.5 108,-118.5 102,-118.5 96,-112.5 96,-106.5 96,-106.5 96,-94.5 96,-94.5 96,-88.5 102,-82.5 108,-82.5"/>
<text text-anchor="middle" x="129.5" y="-107.6" font-family="sans-serif" font-size="8.00" fill="#1c2021">Month</text>
<polyline fill="none" stroke="#2e3436" stroke-width="1.5" points="96,-100.5 163,-100.5 "/>
<text text-anchor="start" x="104" y="-89.6" font-family="sans-serif" font-size="8.00" fill="#1c2021">month = 10</text>
</g>
<!-- N7&#45;&gt;N6 -->
<g id="edge2" class="edge"><title>N7&#45;&gt;N6</title>
<path fill="none" stroke="#2e3436" stroke-width="2" d="M119.085,-82.1412C112.245,-70.7416 103.21,-55.6839 95.7132,-43.1887"/>
<polygon fill="#2e3436" stroke="#2e3436" stroke-width="2" points="91.7301,-36.5501 98.4829,-41.2449 94.0882,-39.5085 96.0176,-42.7241 95.5888,-42.9813 95.1601,-43.2386 93.2307,-40.023 92.6948,-44.7178 91.7301,-36.5501 91.7301,-36.5501"/>
<text text-anchor="middle" x="123.5" y="-57.6" font-family="sans-serif" font-size="8.00" fill="#2e3436">IN_YEAR</text>
</g>
</g>
</svg>
