<?xml version="1.0" encoding="UTF-8" standalone="no"?>
<!DOCTYPE svg PUBLIC "-//W3C//DTD SVG 1.1//EN"
 "http://www.w3.org/Graphics/SVG/1.1/DTD/svg11.dtd">
<!-- Generated by graphviz version 2.38.0 (20140413.2041)
 -->
<!-- Title: g Pages: 1 -->
<svg width="281pt" height="141pt"
 viewBox="0.00 0.00 280.50 141.00" xmlns="http://www.w3.org/2000/svg" xmlns:xlink="http://www.w3.org/1999/xlink">
<g id="graph0" class="graph" transform="scale(1 1) rotate(0) translate(4 137)">
<title>g</title>
<polygon fill="white" stroke="none" points="-4,4 -4,-137 276.5,-137 276.5,4 -4,4"/>
<!-- N0 -->
<g id="node1" class="node"><title>N0</title>
<path fill="#ffffff" stroke="#2e3436" stroke-width="1.5" d="M76,-89.5C76,-89.5 130,-89.5 130,-89.5 136,-89.5 142,-95.5 142,-101.5 142,-101.5 142,-120.5 142,-120.5 142,-126.5 136,-132.5 130,-132.5 130,-132.5 76,-132.5 76,-132.5 70,-132.5 64,-126.5 64,-120.5 64,-120.5 64,-101.5 64,-101.5 64,-95.5 70,-89.5 76,-89.5"/>
<text text-anchor="middle" x="103" y="-122.1" font-family="sans-serif" font-size="8.00" fill="#1c2021">Person</text>
<polyline fill="none" stroke="#2e3436" stroke-width="1.5" points="64,-115.5 142,-115.5 "/>
<text text-anchor="start" x="72" y="-105.1" font-family="sans-serif" font-size="8.00" fill="#1c2021">name = &#39;Andy&#39;</text>
<text text-anchor="start" x="72" y="-96.1" font-family="sans-serif" font-size="8.00" fill="#1c2021">age = 36</text>
</g>
<!-- N1 -->
<g id="node2" class="node"><title>N1</title>
<path fill="#ffffff" stroke="#2e3436" stroke-width="1.5" d="M12,-0.5C12,-0.5 80,-0.5 80,-0.5 86,-0.5 92,-6.5 92,-12.5 92,-12.5 92,-31.5 92,-31.5 92,-37.5 86,-43.5 80,-43.5 80,-43.5 12,-43.5 12,-43.5 6,-43.5 0,-37.5 0,-31.5 0,-31.5 0,-12.5 0,-12.5 0,-6.5 6,-0.5 12,-0.5"/>
<text text-anchor="middle" x="46" y="-33.1" font-family="sans-serif" font-size="8.00" fill="#1c2021">Person</text>
<polyline fill="none" stroke="#2e3436" stroke-width="1.5" points="0,-26.5 92,-26.5 "/>
<text text-anchor="start" x="8" y="-16.1" font-family="sans-serif" font-size="8.00" fill="#1c2021">name = &#39;Timothy&#39;</text>
<text text-anchor="start" x="8" y="-7.1" font-family="sans-serif" font-size="8.00" fill="#1c2021">age = 25</text>
</g>
<!-- N0&#45;&gt;N1 -->
<g id="edge1" class="edge"><title>N0&#45;&gt;N1</title>
<path fill="none" stroke="#2e3436" stroke-width="2" d="M89.4918,-89.3822C81.8103,-77.6579 72.0977,-62.8333 63.8004,-50.1691"/>
<polygon fill="#2e3436" stroke="#2e3436" stroke-width="2" points="59.6088,-43.7713 66.5421,-48.1952 62.0821,-46.634 64.1372,-49.7707 63.719,-50.0448 63.3008,-50.3188 61.2457,-47.182 60.896,-51.8944 59.6088,-43.7713 59.6088,-43.7713"/>
<text text-anchor="middle" x="92.5" y="-64.6" font-family="sans-serif" font-size="8.00" fill="#2e3436">KNOWS</text>
</g>
<!-- N2 -->
<g id="node3" class="node"><title>N2</title>
<path fill="#ffffff" stroke="#2e3436" stroke-width="1.5" d="M133,-0.5C133,-0.5 189,-0.5 189,-0.5 195,-0.5 201,-6.5 201,-12.5 201,-12.5 201,-31.5 201,-31.5 201,-37.5 195,-43.5 189,-43.5 189,-43.5 133,-43.5 133,-43.5 127,-43.5 121,-37.5 121,-31.5 121,-31.5 121,-12.5 121,-12.5 121,-6.5 127,-0.5 133,-0.5"/>
<text text-anchor="middle" x="161" y="-33.1" font-family="sans-serif" font-size="8.00" fill="#1c2021">Person</text>
<polyline fill="none" stroke="#2e3436" stroke-width="1.5" points="121,-26.5 201,-26.5 "/>
<text text-anchor="start" x="129" y="-16.1" font-family="sans-serif" font-size="8.00" fill="#1c2021">name = &#39;Peter&#39;</text>
<text text-anchor="start" x="129" y="-7.1" font-family="sans-serif" font-size="8.00" fill="#1c2021">age = 34</text>
</g>
<!-- N0&#45;&gt;N2 -->
<g id="edge2" class="edge"><title>N0&#45;&gt;N2</title>
<path fill="none" stroke="#2e3436" stroke-width="2" d="M116.745,-89.3822C124.561,-77.6579 134.444,-62.8333 142.887,-50.1691"/>
<polygon fill="#2e3436" stroke="#2e3436" stroke-width="2" points="147.152,-43.7713 145.8,-51.8838 145.488,-47.1688 143.408,-50.289 142.992,-50.0117 142.576,-49.7343 144.656,-46.6141 140.184,-48.1396 147.152,-43.7713 147.152,-43.7713"/>
<text text-anchor="middle" x="149.5" y="-64.6" font-family="sans-serif" font-size="8.00" fill="#2e3436">KNOWS</text>
</g>
<!-- N3 -->
<g id="node4" class="node"><title>N3</title>
<path fill="#ffffff" stroke="#2e3436" stroke-width="1.5" d="M183.5,-93C183.5,-93 260.5,-93 260.5,-93 266.5,-93 272.5,-99 272.5,-105 272.5,-105 272.5,-117 272.5,-117 272.5,-123 266.5,-129 260.5,-129 260.5,-129 183.5,-129 183.5,-129 177.5,-129 171.5,-123 171.5,-117 171.5,-117 171.5,-105 171.5,-105 171.5,-99 177.5,-93 183.5,-93"/>
<text text-anchor="middle" x="222" y="-118.1" font-family="sans-serif" font-size="8.00" fill="#1c2021">Person</text>
<polyline fill="none" stroke="#2e3436" stroke-width="1.5" points="171.5,-111 272.5,-111 "/>
<text text-anchor="start" x="179.5" y="-100.1" font-family="sans-serif" font-size="8.00" fill="#1c2021">name = &#39;UNKNOWN&#39;</text>
</g>
</g>
</svg>
