<?xml version="1.0" encoding="UTF-8" standalone="no"?>
<!DOCTYPE svg PUBLIC "-//W3C//DTD SVG 1.1//EN"
 "http://www.w3.org/Graphics/SVG/1.1/DTD/svg11.dtd">
<!-- Generated by graphviz version 2.38.0 (20140413.2041)
 -->
<!-- Title: g Pages: 1 -->
<svg width="201pt" height="209pt"
 viewBox="0.00 0.00 200.50 209.00" xmlns="http://www.w3.org/2000/svg" xmlns:xlink="http://www.w3.org/1999/xlink">
<g id="graph0" class="graph" transform="scale(1 1) rotate(0) translate(4 205)">
<title>g</title>
<polygon fill="white" stroke="none" points="-4,4 -4,-205 196.5,-205 196.5,4 -4,4"/>
<!-- N0 -->
<g id="node1" class="node"><title>N0</title>
<path fill="#ffffff" stroke="#2e3436" stroke-width="1.5" d="M19.5,-82.5C19.5,-82.5 66.5,-82.5 66.5,-82.5 72.5,-82.5 78.5,-88.5 78.5,-94.5 78.5,-94.5 78.5,-106.5 78.5,-106.5 78.5,-112.5 72.5,-118.5 66.5,-118.5 66.5,-118.5 19.5,-118.5 19.5,-118.5 13.5,-118.5 7.5,-112.5 7.5,-106.5 7.5,-106.5 7.5,-94.5 7.5,-94.5 7.5,-88.5 13.5,-82.5 19.5,-82.5"/>
<text text-anchor="start" x="15.5" y="-98.6" font-family="sans-serif" font-size="8.00" fill="#1c2021">name = &#39;Joe&#39;</text>
</g>
<!-- N1 -->
<g id="node2" class="node"><title>N1</title>
<path fill="#ffffff" stroke="#2e3436" stroke-width="1.5" d="M12,-0.5C12,-0.5 70,-0.5 70,-0.5 76,-0.5 82,-6.5 82,-12.5 82,-12.5 82,-24.5 82,-24.5 82,-30.5 76,-36.5 70,-36.5 70,-36.5 12,-36.5 12,-36.5 6,-36.5 0,-30.5 0,-24.5 0,-24.5 0,-12.5 0,-12.5 0,-6.5 6,-0.5 12,-0.5"/>
<text text-anchor="start" x="8" y="-16.6" font-family="sans-serif" font-size="8.00" fill="#1c2021">name = &#39;Steve&#39;</text>
</g>
<!-- N0&#45;&gt;N1 -->
<g id="edge1" class="edge"><title>N0&#45;&gt;N1</title>
<path fill="none" stroke="#2e3436" stroke-width="2" d="M42.566,-82.1412C42.289,-71.0583 41.9254,-56.5177 41.6184,-44.2358"/>
<polygon fill="#2e3436" stroke="#2e3436" stroke-width="2" points="41.4263,-36.5501 44.9877,-43.9634 42.0199,-40.2864 42.1136,-44.0353 41.6138,-44.0478 41.1139,-44.0603 41.0202,-40.3114 38.2398,-44.1321 41.4263,-36.5501 41.4263,-36.5501"/>
<text text-anchor="middle" x="55.5" y="-57.6" font-family="sans-serif" font-size="8.00" fill="#2e3436">friend</text>
</g>
<!-- N2 -->
<g id="node3" class="node"><title>N2</title>
<path fill="#ffffff" stroke="#2e3436" stroke-width="1.5" d="M76,-164.5C76,-164.5 128,-164.5 128,-164.5 134,-164.5 140,-170.5 140,-176.5 140,-176.5 140,-188.5 140,-188.5 140,-194.5 134,-200.5 128,-200.5 128,-200.5 76,-200.5 76,-200.5 70,-200.5 64,-194.5 64,-188.5 64,-188.5 64,-176.5 64,-176.5 64,-170.5 70,-164.5 76,-164.5"/>
<text text-anchor="start" x="72" y="-180.6" font-family="sans-serif" font-size="8.00" fill="#1c2021">name = &#39;John&#39;</text>
</g>
<!-- N2&#45;&gt;N0 -->
<g id="edge3" class="edge"><title>N2&#45;&gt;N0</title>
<path fill="none" stroke="#2e3436" stroke-width="2" d="M89.1979,-164.141C80.7129,-152.636 69.4798,-137.405 60.215,-124.842"/>
<polygon fill="#2e3436" stroke="#2e3436" stroke-width="2" points="55.5744,-118.55 62.7423,-122.583 58.2027,-121.271 60.4285,-124.289 60.0261,-124.586 59.6236,-124.883 57.3978,-121.865 57.3098,-126.589 55.5744,-118.55 55.5744,-118.55"/>
<text text-anchor="middle" x="87.5" y="-139.6" font-family="sans-serif" font-size="8.00" fill="#2e3436">friend</text>
</g>
<!-- N3 -->
<g id="node4" class="node"><title>N3</title>
<path fill="#ffffff" stroke="#2e3436" stroke-width="1.5" d="M123,-82.5C123,-82.5 177,-82.5 177,-82.5 183,-82.5 189,-88.5 189,-94.5 189,-94.5 189,-106.5 189,-106.5 189,-112.5 183,-118.5 177,-118.5 177,-118.5 123,-118.5 123,-118.5 117,-118.5 111,-112.5 111,-106.5 111,-106.5 111,-94.5 111,-94.5 111,-88.5 117,-82.5 123,-82.5"/>
<text text-anchor="start" x="119" y="-98.6" font-family="sans-serif" font-size="8.00" fill="#1c2021">name = &#39;Sara&#39;</text>
</g>
<!-- N2&#45;&gt;N3 -->
<g id="edge2" class="edge"><title>N2&#45;&gt;N3</title>
<path fill="none" stroke="#2e3436" stroke-width="2" d="M112.415,-164.141C119.255,-152.742 128.29,-137.684 135.787,-125.189"/>
<polygon fill="#2e3436" stroke="#2e3436" stroke-width="2" points="139.77,-118.55 138.805,-126.718 138.269,-122.023 136.34,-125.239 135.911,-124.981 135.482,-124.724 137.412,-121.508 133.017,-123.245 139.77,-118.55 139.77,-118.55"/>
<text text-anchor="middle" x="140.5" y="-139.6" font-family="sans-serif" font-size="8.00" fill="#2e3436">friend</text>
</g>
<!-- N4 -->
<g id="node5" class="node"><title>N4</title>
<path fill="#ffffff" stroke="#2e3436" stroke-width="1.5" d="M123.5,-0.5C123.5,-0.5 180.5,-0.5 180.5,-0.5 186.5,-0.5 192.5,-6.5 192.5,-12.5 192.5,-12.5 192.5,-24.5 192.5,-24.5 192.5,-30.5 186.5,-36.5 180.5,-36.5 180.5,-36.5 123.5,-36.5 123.5,-36.5 117.5,-36.5 111.5,-30.5 111.5,-24.5 111.5,-24.5 111.5,-12.5 111.5,-12.5 111.5,-6.5 117.5,-0.5 123.5,-0.5"/>
<text text-anchor="start" x="119.5" y="-16.6" font-family="sans-serif" font-size="8.00" fill="#1c2021">name = &#39;Maria&#39;</text>
</g>
<!-- N3&#45;&gt;N4 -->
<g id="edge4" class="edge"><title>N3&#45;&gt;N4</title>
<path fill="none" stroke="#2e3436" stroke-width="2" d="M150.434,-82.1412C150.711,-71.0583 151.075,-56.5177 151.382,-44.2358"/>
<polygon fill="#2e3436" stroke="#2e3436" stroke-width="2" points="151.574,-36.5501 154.76,-44.1321 151.98,-40.3114 151.886,-44.0603 151.386,-44.0478 150.886,-44.0353 150.98,-40.2864 148.012,-43.9634 151.574,-36.5501 151.574,-36.5501"/>
<text text-anchor="middle" x="163.5" y="-57.6" font-family="sans-serif" font-size="8.00" fill="#2e3436">friend</text>
</g>
</g>
</svg>
