<?xml version="1.0" encoding="UTF-8" standalone="no"?>
<!DOCTYPE svg PUBLIC "-//W3C//DTD SVG 1.1//EN"
 "http://www.w3.org/Graphics/SVG/1.1/DTD/svg11.dtd">
<!-- Generated by graphviz version 2.38.0 (20140413.2041)
 -->
<!-- Title: g Pages: 1 -->
<svg width="72pt" height="291pt"
 viewBox="0.00 0.00 72.00 291.00" xmlns="http://www.w3.org/2000/svg" xmlns:xlink="http://www.w3.org/1999/xlink">
<g id="graph0" class="graph" transform="scale(1 1) rotate(0) translate(4 287)">
<title>g</title>
<polygon fill="white" stroke="none" points="-4,4 -4,-287 68,-287 68,4 -4,4"/>
<!-- N0 -->
<g id="node1" class="node"><title>N0</title>
<path fill="#ffffff" stroke="#2e3436" stroke-width="1.5" d="M12.5,-246.5C12.5,-246.5 51.5,-246.5 51.5,-246.5 57.5,-246.5 63.5,-252.5 63.5,-258.5 63.5,-258.5 63.5,-270.5 63.5,-270.5 63.5,-276.5 57.5,-282.5 51.5,-282.5 51.5,-282.5 12.5,-282.5 12.5,-282.5 6.5,-282.5 0.5,-276.5 0.5,-270.5 0.5,-270.5 0.5,-258.5 0.5,-258.5 0.5,-252.5 6.5,-246.5 12.5,-246.5"/>
<text text-anchor="middle" x="32" y="-271.6" font-family="sans-serif" font-size="8.00" fill="#1c2021">Person</text>
<polyline fill="none" stroke="#2e3436" stroke-width="1.5" points="0.5,-264.5 63.5,-264.5 "/>
<text text-anchor="start" x="8.5" y="-253.6" font-family="sans-serif" font-size="8.00" fill="#1c2021">name = &#39;A&#39;</text>
</g>
<!-- N1 -->
<g id="node2" class="node"><title>N1</title>
<path fill="#ffffff" stroke="#2e3436" stroke-width="1.5" d="M12,-164.5C12,-164.5 52,-164.5 52,-164.5 58,-164.5 64,-170.5 64,-176.5 64,-176.5 64,-188.5 64,-188.5 64,-194.5 58,-200.5 52,-200.5 52,-200.5 12,-200.5 12,-200.5 6,-200.5 0,-194.5 0,-188.5 0,-188.5 0,-176.5 0,-176.5 0,-170.5 6,-164.5 12,-164.5"/>
<text text-anchor="middle" x="32" y="-189.6" font-family="sans-serif" font-size="8.00" fill="#1c2021">Person</text>
<polyline fill="none" stroke="#2e3436" stroke-width="1.5" points="0,-182.5 64,-182.5 "/>
<text text-anchor="start" x="8" y="-171.6" font-family="sans-serif" font-size="8.00" fill="#1c2021">name = &#39;B&#39;</text>
</g>
<!-- N0&#45;&gt;N1 -->
<g id="edge1" class="edge"><title>N0&#45;&gt;N1</title>
<path fill="none" stroke="#2e3436" stroke-width="2" d="M32,-246.141C32,-235.058 32,-220.518 32,-208.236"/>
<polygon fill="#2e3436" stroke="#2e3436" stroke-width="2" points="32,-200.55 35.3751,-208.05 32.5,-204.3 32.5001,-208.05 32.0001,-208.05 31.5001,-208.05 31.5,-204.3 28.6251,-208.05 32,-200.55 32,-200.55"/>
<text text-anchor="middle" x="47.5" y="-221.6" font-family="sans-serif" font-size="8.00" fill="#2e3436">KNOWS</text>
</g>
<!-- N2 -->
<g id="node3" class="node"><title>N2</title>
<path fill="#ffffff" stroke="#2e3436" stroke-width="1.5" d="M12,-82.5C12,-82.5 52,-82.5 52,-82.5 58,-82.5 64,-88.5 64,-94.5 64,-94.5 64,-106.5 64,-106.5 64,-112.5 58,-118.5 52,-118.5 52,-118.5 12,-118.5 12,-118.5 6,-118.5 0,-112.5 0,-106.5 0,-106.5 0,-94.5 0,-94.5 0,-88.5 6,-82.5 12,-82.5"/>
<text text-anchor="middle" x="32" y="-107.6" font-family="sans-serif" font-size="8.00" fill="#1c2021">Person</text>
<polyline fill="none" stroke="#2e3436" stroke-width="1.5" points="0,-100.5 64,-100.5 "/>
<text text-anchor="start" x="8" y="-89.6" font-family="sans-serif" font-size="8.00" fill="#1c2021">name = &#39;C&#39;</text>
</g>
<!-- N1&#45;&gt;N2 -->
<g id="edge2" class="edge"><title>N1&#45;&gt;N2</title>
<path fill="none" stroke="#2e3436" stroke-width="2" d="M32,-164.141C32,-153.058 32,-138.518 32,-126.236"/>
<polygon fill="#2e3436" stroke="#2e3436" stroke-width="2" points="32,-118.55 35.3751,-126.05 32.5,-122.3 32.5001,-126.05 32.0001,-126.05 31.5001,-126.05 31.5,-122.3 28.6251,-126.05 32,-118.55 32,-118.55"/>
<text text-anchor="middle" x="47.5" y="-139.6" font-family="sans-serif" font-size="8.00" fill="#2e3436">KNOWS</text>
</g>
<!-- N3 -->
<g id="node4" class="node"><title>N3</title>
<path fill="#ffffff" stroke="#2e3436" stroke-width="1.5" d="M12,-0.5C12,-0.5 52,-0.5 52,-0.5 58,-0.5 64,-6.5 64,-12.5 64,-12.5 64,-24.5 64,-24.5 64,-30.5 58,-36.5 52,-36.5 52,-36.5 12,-36.5 12,-36.5 6,-36.5 0,-30.5 0,-24.5 0,-24.5 0,-12.5 0,-12.5 0,-6.5 6,-0.5 12,-0.5"/>
<text text-anchor="middle" x="32" y="-25.6" font-family="sans-serif" font-size="8.00" fill="#1c2021">Person</text>
<polyline fill="none" stroke="#2e3436" stroke-width="1.5" points="0,-18.5 64,-18.5 "/>
<text text-anchor="start" x="8" y="-7.6" font-family="sans-serif" font-size="8.00" fill="#1c2021">name = &#39;D&#39;</text>
</g>
<!-- N2&#45;&gt;N3 -->
<g id="edge3" class="edge"><title>N2&#45;&gt;N3</title>
<path fill="none" stroke="#2e3436" stroke-width="2" d="M32,-82.1412C32,-71.0583 32,-56.5177 32,-44.2358"/>
<polygon fill="#2e3436" stroke="#2e3436" stroke-width="2" points="32,-36.5501 35.3751,-44.0501 32.5,-40.3001 32.5001,-44.0501 32.0001,-44.0501 31.5001,-44.0501 31.5,-40.3001 28.6251,-44.0501 32,-36.5501 32,-36.5501"/>
<text text-anchor="middle" x="47.5" y="-57.6" font-family="sans-serif" font-size="8.00" fill="#2e3436">KNOWS</text>
</g>
</g>
</svg>
