<?xml version="1.0" encoding="UTF-8" standalone="no"?>
<!DOCTYPE svg PUBLIC "-//W3C//DTD SVG 1.1//EN"
 "http://www.w3.org/Graphics/SVG/1.1/DTD/svg11.dtd">
<!-- Generated by graphviz version 2.38.0 (20140413.2041)
 -->
<!-- Title: g Pages: 1 -->
<svg width="411pt" height="45pt"
 viewBox="0.00 0.00 410.50 45.00" xmlns="http://www.w3.org/2000/svg" xmlns:xlink="http://www.w3.org/1999/xlink">
<g id="graph0" class="graph" transform="scale(1 1) rotate(0) translate(4 41)">
<title>g</title>
<polygon fill="white" stroke="none" points="-4,4 -4,-41 406.5,-41 406.5,4 -4,4"/>
<!-- N2 -->
<g id="node1" class="node"><title>N2</title>
<path fill="#ffffff" stroke="#2e3436" stroke-width="1.5" d="M12,-0.5C12,-0.5 92,-0.5 92,-0.5 98,-0.5 104,-6.5 104,-12.5 104,-12.5 104,-24.5 104,-24.5 104,-30.5 98,-36.5 92,-36.5 92,-36.5 12,-36.5 12,-36.5 6,-36.5 0,-30.5 0,-24.5 0,-24.5 0,-12.5 0,-12.5 0,-6.5 6,-0.5 12,-0.5"/>
<text text-anchor="start" x="8" y="-21.1" font-family="sans-serif" font-size="8.00" fill="#1c2021">name = &#39;Tom Hanks&#39;</text>
<text text-anchor="start" x="8" y="-12.1" font-family="sans-serif" font-size="8.00" fill="#1c2021">born = 1956</text>
</g>
<!-- N3 -->
<g id="node2" class="node"><title>N3</title>
<path fill="#ffffff" stroke="#2e3436" stroke-width="1.5" d="M145.5,-0.5C145.5,-0.5 230.5,-0.5 230.5,-0.5 236.5,-0.5 242.5,-6.5 242.5,-12.5 242.5,-12.5 242.5,-24.5 242.5,-24.5 242.5,-30.5 236.5,-36.5 230.5,-36.5 230.5,-36.5 145.5,-36.5 145.5,-36.5 139.5,-36.5 133.5,-30.5 133.5,-24.5 133.5,-24.5 133.5,-12.5 133.5,-12.5 133.5,-6.5 139.5,-0.5 145.5,-0.5"/>
<text text-anchor="start" x="141.5" y="-21.1" font-family="sans-serif" font-size="8.00" fill="#1c2021">title = &#39;Forrest Gump&#39;</text>
<text text-anchor="start" x="141.5" y="-12.1" font-family="sans-serif" font-size="8.00" fill="#1c2021">released = 1994</text>
</g>
<!-- N4 -->
<g id="node3" class="node"><title>N4</title>
<path fill="#ffffff" stroke="#2e3436" stroke-width="1.5" d="M283.5,-0.5C283.5,-0.5 390.5,-0.5 390.5,-0.5 396.5,-0.5 402.5,-6.5 402.5,-12.5 402.5,-12.5 402.5,-24.5 402.5,-24.5 402.5,-30.5 396.5,-36.5 390.5,-36.5 390.5,-36.5 283.5,-36.5 283.5,-36.5 277.5,-36.5 271.5,-30.5 271.5,-24.5 271.5,-24.5 271.5,-12.5 271.5,-12.5 271.5,-6.5 277.5,-0.5 283.5,-0.5"/>
<text text-anchor="start" x="279.5" y="-21.1" font-family="sans-serif" font-size="8.00" fill="#1c2021">name = &#39;Robert Zemeckis&#39;</text>
<text text-anchor="start" x="279.5" y="-12.1" font-family="sans-serif" font-size="8.00" fill="#1c2021">born = 1951</text>
</g>
</g>
</svg>
