<?xml version="1.0" encoding="UTF-8" standalone="no"?>
<!DOCTYPE svg PUBLIC "-//W3C//DTD SVG 1.1//EN"
 "http://www.w3.org/Graphics/SVG/1.1/DTD/svg11.dtd">
<!-- Generated by graphviz version 2.38.0 (20140413.2041)
 -->
<!-- Title: g Pages: 1 -->
<svg width="273pt" height="150pt"
 viewBox="0.00 0.00 272.50 150.00" xmlns="http://www.w3.org/2000/svg" xmlns:xlink="http://www.w3.org/1999/xlink">
<g id="graph0" class="graph" transform="scale(1 1) rotate(0) translate(4 146)">
<title>g</title>
<polygon fill="white" stroke="none" points="-4,4 -4,-146 268.5,-146 268.5,4 -4,4"/>
<!-- N2 -->
<g id="node1" class="node"><title>N2</title>
<path fill="none" stroke="#2e3436" stroke-width="1.5" stroke-dasharray="5,2" d="M12,-98.5C12,-98.5 92,-98.5 92,-98.5 98,-98.5 104,-104.5 104,-110.5 104,-110.5 104,-129.5 104,-129.5 104,-135.5 98,-141.5 92,-141.5 92,-141.5 12,-141.5 12,-141.5 6,-141.5 0,-135.5 0,-129.5 0,-129.5 0,-110.5 0,-110.5 0,-104.5 6,-98.5 12,-98.5"/>
<text text-anchor="middle" x="52" y="-131.1" font-family="sans-serif" font-size="8.00" fill="#1c2021">Person</text>
<polyline fill="none" stroke="#2e3436" stroke-width="1.5" stroke-dasharray="5,2" points="0,-124.5 104,-124.5 "/>
<text text-anchor="start" x="8" y="-114.1" font-family="sans-serif" font-size="8.00" fill="#1c2021">name = &#39;Tom Hanks&#39;</text>
<text text-anchor="start" x="8" y="-105.1" font-family="sans-serif" font-size="8.00" fill="#1c2021">born = 1956</text>
</g>
<!-- N3 -->
<g id="node2" class="node"><title>N3</title>
<path fill="none" stroke="#2e3436" stroke-width="1.5" stroke-dasharray="5,2" d="M82.5,-0.5C82.5,-0.5 167.5,-0.5 167.5,-0.5 173.5,-0.5 179.5,-6.5 179.5,-12.5 179.5,-12.5 179.5,-31.5 179.5,-31.5 179.5,-37.5 173.5,-43.5 167.5,-43.5 167.5,-43.5 82.5,-43.5 82.5,-43.5 76.5,-43.5 70.5,-37.5 70.5,-31.5 70.5,-31.5 70.5,-12.5 70.5,-12.5 70.5,-6.5 76.5,-0.5 82.5,-0.5"/>
<text text-anchor="middle" x="125" y="-33.1" font-family="sans-serif" font-size="8.00" fill="#1c2021">Movie</text>
<polyline fill="none" stroke="#2e3436" stroke-width="1.5" stroke-dasharray="5,2" points="70.5,-26.5 179.5,-26.5 "/>
<text text-anchor="start" x="78.5" y="-16.1" font-family="sans-serif" font-size="8.00" fill="#1c2021">title = &#39;Forrest Gump&#39;</text>
<text text-anchor="start" x="78.5" y="-7.1" font-family="sans-serif" font-size="8.00" fill="#1c2021">released = 1994</text>
</g>
<!-- N2&#45;&gt;N3 -->
<g id="edge1" class="edge"><title>N2&#45;&gt;N3</title>
<path fill="none" stroke="#2e3436" stroke-width="2" stroke-dasharray="5,2" d="M63.1098,-98.4957C69.5289,-87.3118 78.0825,-73.4535 87,-62 90.3539,-57.6923 94.1284,-53.3435 97.963,-49.1912"/>
<polygon fill="#2e3436" stroke="#2e3436" stroke-width="2" points="103.196,-43.6733 100.484,-51.4378 100.978,-46.7385 98.3976,-49.4596 98.0348,-49.1155 97.672,-48.7715 100.252,-46.0504 95.5858,-46.7932 103.196,-43.6733 103.196,-43.6733"/>
<text text-anchor="middle" x="125" y="-73.6" font-family="sans-serif" font-size="8.00" fill="#1c2021">ACTED_IN</text>
<text text-anchor="start" x="87" y="-64.6" font-family="sans-serif" font-size="8.00" fill="#1c2021">roles = [&#39;Forrest&#39;]</text>
</g>
<!-- N4 -->
<g id="node3" class="node"><title>N4</title>
<path fill="#ffffff" stroke="#2e3436" stroke-width="1.5" d="M145.5,-98.5C145.5,-98.5 252.5,-98.5 252.5,-98.5 258.5,-98.5 264.5,-104.5 264.5,-110.5 264.5,-110.5 264.5,-129.5 264.5,-129.5 264.5,-135.5 258.5,-141.5 252.5,-141.5 252.5,-141.5 145.5,-141.5 145.5,-141.5 139.5,-141.5 133.5,-135.5 133.5,-129.5 133.5,-129.5 133.5,-110.5 133.5,-110.5 133.5,-104.5 139.5,-98.5 145.5,-98.5"/>
<text text-anchor="middle" x="199" y="-131.1" font-family="sans-serif" font-size="8.00" fill="#1c2021">Person</text>
<polyline fill="none" stroke="#2e3436" stroke-width="1.5" points="133.5,-124.5 264.5,-124.5 "/>
<text text-anchor="start" x="141.5" y="-114.1" font-family="sans-serif" font-size="8.00" fill="#1c2021">name = &#39;Robert Zemeckis&#39;</text>
<text text-anchor="start" x="141.5" y="-105.1" font-family="sans-serif" font-size="8.00" fill="#1c2021">born = 1951</text>
</g>
<!-- N4&#45;&gt;N3 -->
<g id="edge2" class="edge"><title>N4&#45;&gt;N3</title>
<path fill="none" stroke="#2e3436" stroke-width="2" d="M188.871,-98.316C182.924,-87.0777 174.849,-73.2247 166,-62 162.571,-57.6507 158.664,-53.3257 154.656,-49.2252"/>
<polygon fill="#2e3436" stroke="#2e3436" stroke-width="2" points="149.163,-43.7915 156.869,-46.6665 152.181,-46.0732 154.847,-48.7104 154.495,-49.0659 154.144,-49.4214 151.477,-46.7842 152.122,-51.4654 149.163,-43.7915 149.163,-43.7915"/>
<text text-anchor="middle" x="200" y="-69.1" font-family="sans-serif" font-size="8.00" fill="#1c2021">DIRECTED</text>
</g>
</g>
</svg>
