<?xml version="1.0" encoding="UTF-8" standalone="no"?>
<!DOCTYPE svg PUBLIC "-//W3C//DTD SVG 1.1//EN"
 "http://www.w3.org/Graphics/SVG/1.1/DTD/svg11.dtd">
<!-- Generated by graphviz version 2.38.0 (20140413.2041)
 -->
<!-- Title: g Pages: 1 -->
<svg width="395pt" height="141pt"
 viewBox="0.00 0.00 394.50 141.00" xmlns="http://www.w3.org/2000/svg" xmlns:xlink="http://www.w3.org/1999/xlink">
<g id="graph0" class="graph" transform="scale(1 1) rotate(0) translate(4 137)">
<title>g</title>
<polygon fill="white" stroke="none" points="-4,4 -4,-137 390.5,-137 390.5,4 -4,4"/>
<!-- N0 -->
<g id="node1" class="node"><title>N0</title>
<path fill="#ffffff" stroke="#2e3436" stroke-width="1.5" d="M197,-89.5C197,-89.5 334,-89.5 334,-89.5 340,-89.5 346,-95.5 346,-101.5 346,-101.5 346,-120.5 346,-120.5 346,-126.5 340,-132.5 334,-132.5 334,-132.5 197,-132.5 197,-132.5 191,-132.5 185,-126.5 185,-120.5 185,-120.5 185,-101.5 185,-101.5 185,-95.5 191,-89.5 197,-89.5"/>
<text text-anchor="middle" x="265.5" y="-122.1" font-family="sans-serif" font-size="8.00" fill="#1c2021">Person</text>
<polyline fill="none" stroke="#2e3436" stroke-width="1.5" points="185,-115.5 346,-115.5 "/>
<text text-anchor="start" x="193" y="-105.1" font-family="sans-serif" font-size="8.00" fill="#1c2021">realName = &#39;Carlos Irwin Estévez&#39;</text>
<text text-anchor="start" x="193" y="-96.1" font-family="sans-serif" font-size="8.00" fill="#1c2021">name = &#39;Charlie Sheen&#39;</text>
</g>
<!-- N4 -->
<g id="node2" class="node"><title>N4</title>
<path fill="#ffffff" stroke="#2e3436" stroke-width="1.5" d="M150,-0.5C150,-0.5 245,-0.5 245,-0.5 251,-0.5 257,-6.5 257,-12.5 257,-12.5 257,-31.5 257,-31.5 257,-37.5 251,-43.5 245,-43.5 245,-43.5 150,-43.5 150,-43.5 144,-43.5 138,-37.5 138,-31.5 138,-31.5 138,-12.5 138,-12.5 138,-6.5 144,-0.5 150,-0.5"/>
<text text-anchor="middle" x="197.5" y="-33.1" font-family="sans-serif" font-size="8.00" fill="#1c2021">Movie</text>
<polyline fill="none" stroke="#2e3436" stroke-width="1.5" points="138,-26.5 257,-26.5 "/>
<text text-anchor="start" x="146" y="-16.1" font-family="sans-serif" font-size="8.00" fill="#1c2021">title = &#39;Apocalypse Now&#39;</text>
<text text-anchor="start" x="146" y="-7.1" font-family="sans-serif" font-size="8.00" fill="#1c2021">year = 1979</text>
</g>
<!-- N0&#45;&gt;N4 -->
<g id="edge1" class="edge"><title>N0&#45;&gt;N4</title>
<path fill="none" stroke="#2e3436" stroke-width="2" d="M251.938,-89.0259C246.184,-80.466 239.255,-70.5821 232.5,-62 229.249,-57.8694 225.682,-53.6166 222.108,-49.5072"/>
<polygon fill="#2e3436" stroke="#2e3436" stroke-width="2" points="216.902,-43.6199 224.399,-47.0028 219.761,-46.098 222.245,-48.9072 221.87,-49.2385 221.496,-49.5697 219.012,-46.7604 219.342,-51.4741 216.902,-43.6199 216.902,-43.6199"/>
<text text-anchor="middle" x="260" y="-64.6" font-family="sans-serif" font-size="8.00" fill="#2e3436">ACTED_IN</text>
</g>
<!-- N3 -->
<g id="node3" class="node"><title>N3</title>
<path fill="#ffffff" stroke="#2e3436" stroke-width="1.5" d="M306.5,-0.5C306.5,-0.5 374.5,-0.5 374.5,-0.5 380.5,-0.5 386.5,-6.5 386.5,-12.5 386.5,-12.5 386.5,-31.5 386.5,-31.5 386.5,-37.5 380.5,-43.5 374.5,-43.5 374.5,-43.5 306.5,-43.5 306.5,-43.5 300.5,-43.5 294.5,-37.5 294.5,-31.5 294.5,-31.5 294.5,-12.5 294.5,-12.5 294.5,-6.5 300.5,-0.5 306.5,-0.5"/>
<text text-anchor="middle" x="340.5" y="-33.1" font-family="sans-serif" font-size="8.00" fill="#1c2021">Movie</text>
<polyline fill="none" stroke="#2e3436" stroke-width="1.5" points="294.5,-26.5 386.5,-26.5 "/>
<text text-anchor="start" x="302.5" y="-16.1" font-family="sans-serif" font-size="8.00" fill="#1c2021">title = &#39;Red Dawn&#39;</text>
<text text-anchor="start" x="302.5" y="-7.1" font-family="sans-serif" font-size="8.00" fill="#1c2021">year = 1984</text>
</g>
<!-- N0&#45;&gt;N3 -->
<g id="edge2" class="edge"><title>N0&#45;&gt;N3</title>
<path fill="none" stroke="#2e3436" stroke-width="2" d="M283.274,-89.3822C293.567,-77.4428 306.631,-62.2883 317.677,-49.4742"/>
<polygon fill="#2e3436" stroke="#2e3436" stroke-width="2" points="322.594,-43.7713 320.253,-51.6556 320.524,-46.9381 318.075,-49.7784 317.697,-49.4519 317.318,-49.1254 319.766,-46.2851 315.14,-47.2482 322.594,-43.7713 322.594,-43.7713"/>
<text text-anchor="middle" x="326" y="-64.6" font-family="sans-serif" font-size="8.00" fill="#2e3436">ACTED_IN</text>
</g>
<!-- N2 -->
<g id="node4" class="node"><title>N2</title>
<path fill="#ffffff" stroke="#2e3436" stroke-width="1.5" d="M12,-0.5C12,-0.5 83,-0.5 83,-0.5 89,-0.5 95,-6.5 95,-12.5 95,-12.5 95,-31.5 95,-31.5 95,-37.5 89,-43.5 83,-43.5 83,-43.5 12,-43.5 12,-43.5 6,-43.5 0,-37.5 0,-31.5 0,-31.5 0,-12.5 0,-12.5 0,-6.5 6,-0.5 12,-0.5"/>
<text text-anchor="middle" x="47.5" y="-33.1" font-family="sans-serif" font-size="8.00" fill="#1c2021">Movie</text>
<polyline fill="none" stroke="#2e3436" stroke-width="1.5" points="0,-26.5 95,-26.5 "/>
<text text-anchor="start" x="8" y="-16.1" font-family="sans-serif" font-size="8.00" fill="#1c2021">title = &#39;Wall Street&#39;</text>
<text text-anchor="start" x="8" y="-7.1" font-family="sans-serif" font-size="8.00" fill="#1c2021">year = 1987</text>
</g>
<!-- N0&#45;&gt;N2 -->
<g id="edge3" class="edge"><title>N0&#45;&gt;N2</title>
<path fill="none" stroke="#2e3436" stroke-width="2" d="M221.428,-89.4854C201.978,-80.6728 178.751,-70.4747 157.5,-62 139.797,-54.94 120.253,-47.8029 102.61,-41.5985"/>
<polygon fill="#2e3436" stroke="#2e3436" stroke-width="2" points="95.1762,-38.9995 103.37,-38.2889 98.8811,-39.7652 102.421,-41.0028 102.256,-41.4748 102.091,-41.9468 98.5511,-40.7092 101.142,-44.6607 95.1762,-38.9995 95.1762,-38.9995"/>
<text text-anchor="middle" x="199" y="-64.6" font-family="sans-serif" font-size="8.00" fill="#2e3436">ACTED_IN</text>
</g>
<!-- N1 -->
<g id="node5" class="node"><title>N1</title>
<path fill="#ffffff" stroke="#2e3436" stroke-width="1.5" d="M24.5,-93C24.5,-93 114.5,-93 114.5,-93 120.5,-93 126.5,-99 126.5,-105 126.5,-105 126.5,-117 126.5,-117 126.5,-123 120.5,-129 114.5,-129 114.5,-129 24.5,-129 24.5,-129 18.5,-129 12.5,-123 12.5,-117 12.5,-117 12.5,-105 12.5,-105 12.5,-99 18.5,-93 24.5,-93"/>
<text text-anchor="middle" x="69.5" y="-118.1" font-family="sans-serif" font-size="8.00" fill="#1c2021">Person</text>
<polyline fill="none" stroke="#2e3436" stroke-width="1.5" points="12.5,-111 126.5,-111 "/>
<text text-anchor="start" x="20.5" y="-100.1" font-family="sans-serif" font-size="8.00" fill="#1c2021">name = &#39;Martin Sheen&#39;</text>
</g>
<!-- N1&#45;&gt;N4 -->
<g id="edge4" class="edge"><title>N1&#45;&gt;N4</title>
<path fill="none" stroke="#2e3436" stroke-width="2" d="M82.3655,-92.8699C90.4792,-82.9214 101.64,-70.679 113.5,-62 120.974,-56.5305 129.337,-51.5479 137.811,-47.1099"/>
<polygon fill="#2e3436" stroke="#2e3436" stroke-width="2" points="144.616,-43.6686 139.446,-50.0651 141.495,-45.8071 138.149,-47.4995 137.923,-47.0533 137.698,-46.6071 141.044,-44.9148 136.4,-44.0415 144.616,-43.6686 144.616,-43.6686"/>
<text text-anchor="middle" x="134" y="-64.6" font-family="sans-serif" font-size="8.00" fill="#2e3436">ACTED_IN</text>
</g>
<!-- N1&#45;&gt;N2 -->
<g id="edge5" class="edge"><title>N1&#45;&gt;N2</title>
<path fill="none" stroke="#2e3436" stroke-width="2" d="M51.8425,-92.9154C46.4907,-86.5938 41.2932,-79.0028 38.5,-71 36.3312,-64.7861 36.3052,-57.9273 37.3218,-51.386"/>
<polygon fill="#2e3436" stroke="#2e3436" stroke-width="2" points="38.9284,-43.9106 40.6521,-51.9524 38.6292,-47.682 37.8413,-51.3483 37.3525,-51.2432 36.8636,-51.1381 37.6516,-47.4718 34.0528,-50.534 38.9284,-43.9106 38.9284,-43.9106"/>
<text text-anchor="middle" x="59" y="-64.6" font-family="sans-serif" font-size="8.00" fill="#2e3436">ACTED_IN</text>
</g>
</g>
</svg>
