<?xml version="1.0" encoding="UTF-8" standalone="no"?>
<!DOCTYPE svg PUBLIC "-//W3C//DTD SVG 1.1//EN"
 "http://www.w3.org/Graphics/SVG/1.1/DTD/svg11.dtd">
<!-- Generated by graphviz version 2.38.0 (20140413.2041)
 -->
<!-- Title: g Pages: 1 -->
<svg width="504pt" height="57pt"
 viewBox="0.00 0.00 504.00 57.24" xmlns="http://www.w3.org/2000/svg" xmlns:xlink="http://www.w3.org/1999/xlink">
<g id="graph0" class="graph" transform="scale(0.420902 0.420902) rotate(0) translate(4 132)">
<title>g</title>
<polygon fill="white" stroke="none" points="-4,4 -4,-132 1193.43,-132 1193.43,4 -4,4"/>
<!-- N0 -->
<g id="node1" class="node"><title>N0</title>
<path fill="#ffffff" stroke="#2e3436" stroke-width="1.5" d="M56.4287,-91.5C56.4287,-91.5 150.429,-91.5 150.429,-91.5 156.429,-91.5 162.429,-97.5 162.429,-103.5 162.429,-103.5 162.429,-115.5 162.429,-115.5 162.429,-121.5 156.429,-127.5 150.429,-127.5 150.429,-127.5 56.4287,-127.5 56.4287,-127.5 50.4287,-127.5 44.4287,-121.5 44.4287,-115.5 44.4287,-115.5 44.4287,-103.5 44.4287,-103.5 44.4287,-97.5 50.4287,-91.5 56.4287,-91.5"/>
<text text-anchor="middle" x="103.429" y="-116.6" font-family="sans-serif" font-size="8.00" fill="#1c2021">Person</text>
<polyline fill="none" stroke="#2e3436" stroke-width="1.5" points="44.4287,-109.5 162.429,-109.5 "/>
<text text-anchor="start" x="52.4287" y="-98.6" font-family="sans-serif" font-size="8.00" fill="#1c2021">name = &#39;Charlie Sheen&#39;</text>
</g>
<!-- N21 -->
<g id="node2" class="node"><title>N21</title>
<path fill="#ffffff" stroke="#2e3436" stroke-width="1.5" d="M90.4287,-0.5C90.4287,-0.5 122.429,-0.5 122.429,-0.5 128.429,-0.5 134.429,-6.5 134.429,-12.5 134.429,-12.5 134.429,-24.5 134.429,-24.5 134.429,-30.5 128.429,-36.5 122.429,-36.5 122.429,-36.5 90.4287,-36.5 90.4287,-36.5 84.4287,-36.5 78.4287,-30.5 78.4287,-24.5 78.4287,-24.5 78.4287,-12.5 78.4287,-12.5 78.4287,-6.5 84.4287,-0.5 90.4287,-0.5"/>
<text text-anchor="middle" x="106.429" y="-25.6" font-family="sans-serif" font-size="8.00" fill="#1c2021">BLOCKED</text>
<polyline fill="none" stroke="#2e3436" stroke-width="1.5" points="78.4287,-18.5 134.429,-18.5 "/>
<text text-anchor="middle" x="106.429" y="-7.6" font-family="sans-serif" font-size="8.00" fill="#1c2021"> </text>
</g>
<!-- N0&#45;&gt;N21 -->
<g id="edge1" class="edge"><title>N0&#45;&gt;N21</title>
<path fill="none" stroke="#2e3436" stroke-width="2" d="M44.3953,-97.4213C15.4739,-89.1738 -10.2855,-75.701 4.42867,-55 19.361,-33.992 47.6662,-25.3094 70.6777,-21.7728"/>
<polygon fill="#2e3436" stroke="#2e3436" stroke-width="2" points="78.2516,-20.7603 71.265,-25.0994 74.6009,-21.7528 70.884,-22.2497 70.8178,-21.7541 70.7515,-21.2585 74.4684,-20.7616 70.3705,-18.4089 78.2516,-20.7603 78.2516,-20.7603"/>
<text text-anchor="middle" x="35.9287" y="-66.6" font-family="sans-serif" font-size="8.00" fill="#2e3436">X</text>
<text text-anchor="start" x="4.42867" y="-57.6" font-family="sans-serif" font-size="8.00" fill="#2e3436">blocked = true</text>
</g>
<!-- N20 -->
<g id="node3" class="node"><title>N20</title>
<path fill="#ffffff" stroke="#2e3436" stroke-width="1.5" d="M178.429,-0.5C178.429,-0.5 222.429,-0.5 222.429,-0.5 228.429,-0.5 234.429,-6.5 234.429,-12.5 234.429,-12.5 234.429,-24.5 234.429,-24.5 234.429,-30.5 228.429,-36.5 222.429,-36.5 222.429,-36.5 178.429,-36.5 178.429,-36.5 172.429,-36.5 166.429,-30.5 166.429,-24.5 166.429,-24.5 166.429,-12.5 166.429,-12.5 166.429,-6.5 172.429,-0.5 178.429,-0.5"/>
<text text-anchor="middle" x="200.429" y="-25.6" font-family="sans-serif" font-size="8.00" fill="#1c2021">UNBLOCKED</text>
<polyline fill="none" stroke="#2e3436" stroke-width="1.5" points="166.429,-18.5 234.429,-18.5 "/>
<text text-anchor="middle" x="200.429" y="-7.6" font-family="sans-serif" font-size="8.00" fill="#1c2021"> </text>
</g>
<!-- N0&#45;&gt;N20 -->
<g id="edge2" class="edge"><title>N0&#45;&gt;N20</title>
<path fill="none" stroke="#2e3436" stroke-width="2" d="M97.7267,-91.0688C95.1727,-79.7904 94.1536,-65.3374 101.429,-55 102.353,-53.6863 132.194,-43.0838 158.871,-33.8049"/>
<polygon fill="#2e3436" stroke="#2e3436" stroke-width="2" points="166.285,-31.2317 160.306,-36.8794 162.906,-32.9337 159.364,-34.1633 159.2,-33.691 159.036,-33.2186 162.578,-31.989 158.093,-30.5026 166.285,-31.2317 166.285,-31.2317"/>
<text text-anchor="middle" x="134.929" y="-66.6" font-family="sans-serif" font-size="8.00" fill="#2e3436">X</text>
<text text-anchor="start" x="101.429" y="-57.6" font-family="sans-serif" font-size="8.00" fill="#2e3436">blocked = false</text>
</g>
<!-- N5 -->
<g id="node4" class="node"><title>N5</title>
<path fill="#ffffff" stroke="#2e3436" stroke-width="1.5" d="M523.929,-0.5C523.929,-0.5 594.929,-0.5 594.929,-0.5 600.929,-0.5 606.929,-6.5 606.929,-12.5 606.929,-12.5 606.929,-24.5 606.929,-24.5 606.929,-30.5 600.929,-36.5 594.929,-36.5 594.929,-36.5 523.929,-36.5 523.929,-36.5 517.929,-36.5 511.929,-30.5 511.929,-24.5 511.929,-24.5 511.929,-12.5 511.929,-12.5 511.929,-6.5 517.929,-0.5 523.929,-0.5"/>
<text text-anchor="middle" x="559.429" y="-25.6" font-family="sans-serif" font-size="8.00" fill="#1c2021">Movie</text>
<polyline fill="none" stroke="#2e3436" stroke-width="1.5" points="511.929,-18.5 606.929,-18.5 "/>
<text text-anchor="start" x="519.929" y="-7.6" font-family="sans-serif" font-size="8.00" fill="#1c2021">title = &#39;Wall Street&#39;</text>
</g>
<!-- N0&#45;&gt;N5 -->
<g id="edge3" class="edge"><title>N0&#45;&gt;N5</title>
<path fill="none" stroke="#4e9a06" stroke-width="2" d="M162.57,-101.709C195.785,-96.5227 237.461,-87.6824 272.429,-73 285.726,-67.4166 285.94,-60.1055 299.429,-55 366.842,-29.483 450.24,-21.947 504.115,-19.9129"/>
<polygon fill="#4e9a06" stroke="#4e9a06" stroke-width="2" points="511.844,-19.6512 504.462,-23.2781 508.113,-20.2778 504.365,-20.4048 504.348,-19.905 504.331,-19.4053 508.079,-19.2784 504.234,-16.532 511.844,-19.6512 511.844,-19.6512"/>
<text text-anchor="middle" x="333.429" y="-66.6" font-family="sans-serif" font-size="8.00" fill="#4e9a06">ACTED_IN</text>
<text text-anchor="start" x="299.429" y="-57.6" font-family="sans-serif" font-size="8.00" fill="#4e9a06">role = &#39;Bud Fox&#39;</text>
</g>
<!-- N1 -->
<g id="node5" class="node"><title>N1</title>
<path fill="#ffffff" stroke="#2e3436" stroke-width="1.5" d="M393.429,-91.5C393.429,-91.5 483.429,-91.5 483.429,-91.5 489.429,-91.5 495.429,-97.5 495.429,-103.5 495.429,-103.5 495.429,-115.5 495.429,-115.5 495.429,-121.5 489.429,-127.5 483.429,-127.5 483.429,-127.5 393.429,-127.5 393.429,-127.5 387.429,-127.5 381.429,-121.5 381.429,-115.5 381.429,-115.5 381.429,-103.5 381.429,-103.5 381.429,-97.5 387.429,-91.5 393.429,-91.5"/>
<text text-anchor="middle" x="438.429" y="-116.6" font-family="sans-serif" font-size="8.00" fill="#1c2021">Person</text>
<polyline fill="none" stroke="#2e3436" stroke-width="1.5" points="381.429,-109.5 495.429,-109.5 "/>
<text text-anchor="start" x="389.429" y="-98.6" font-family="sans-serif" font-size="8.00" fill="#1c2021">name = &#39;Martin Sheen&#39;</text>
</g>
<!-- N1&#45;&gt;N21 -->
<g id="edge4" class="edge"><title>N1&#45;&gt;N21</title>
<path fill="none" stroke="#2e3436" stroke-width="2" d="M381.198,-105.908C332.487,-102.297 261.264,-93.6591 202.429,-73 187.396,-67.7217 185.31,-62.819 171.429,-55 161.689,-49.5139 151.068,-43.6598 141.288,-38.3204"/>
<polygon fill="#2e3436" stroke="#2e3436" stroke-width="2" points="134.673,-34.7169 142.873,-35.3407 138.205,-36.0717 141.498,-37.8655 141.259,-38.3046 141.02,-38.7436 137.726,-36.9498 139.644,-41.2684 134.673,-34.7169 134.673,-34.7169"/>
<text text-anchor="middle" x="235.929" y="-66.6" font-family="sans-serif" font-size="8.00" fill="#2e3436">X</text>
<text text-anchor="start" x="202.429" y="-57.6" font-family="sans-serif" font-size="8.00" fill="#2e3436">blocked = false</text>
</g>
<!-- N1&#45;&gt;N20 -->
<g id="edge5" class="edge"><title>N1&#45;&gt;N20</title>
<path fill="none" stroke="#2e3436" stroke-width="2" d="M422.68,-91.4289C410.622,-79.4069 392.957,-63.922 374.429,-55 332.157,-34.6449 278.658,-25.9454 242.215,-22.2369"/>
<polygon fill="#2e3436" stroke="#2e3436" stroke-width="2" points="234.708,-21.519 242.495,-18.8734 238.489,-21.3783 242.222,-21.7353 242.174,-22.2331 242.126,-22.7308 238.393,-22.3737 241.853,-25.5927 234.708,-21.519 234.708,-21.519"/>
<text text-anchor="middle" x="434.929" y="-66.6" font-family="sans-serif" font-size="8.00" fill="#2e3436">X</text>
<text text-anchor="start" x="401.429" y="-57.6" font-family="sans-serif" font-size="8.00" fill="#2e3436">blocked = false</text>
</g>
<!-- N1&#45;&gt;N5 -->
<g id="edge7" class="edge"><title>N1&#45;&gt;N5</title>
<path fill="none" stroke="#4e9a06" stroke-width="2" d="M458.87,-91.3687C471.947,-80.6129 489.405,-66.6267 505.429,-55 512.034,-50.2075 519.244,-45.2727 526.184,-40.6631"/>
<polygon fill="#4e9a06" stroke="#4e9a06" stroke-width="2" points="532.455,-36.5348 528.046,-43.4777 529.598,-39.0144 526.465,-41.0764 526.19,-40.6587 525.915,-40.2411 529.048,-38.1791 524.335,-37.8397 532.455,-36.5348 532.455,-36.5348"/>
<text text-anchor="middle" x="539.929" y="-66.6" font-family="sans-serif" font-size="8.00" fill="#4e9a06">ACTED_IN</text>
<text text-anchor="start" x="505.429" y="-57.6" font-family="sans-serif" font-size="8.00" fill="#4e9a06">role = &#39;Carl Fox&#39;</text>
</g>
<!-- N6 -->
<g id="node6" class="node"><title>N6</title>
<path fill="#ffffff" stroke="#2e3436" stroke-width="1.5" d="M885.429,-0.5C885.429,-0.5 1013.43,-0.5 1013.43,-0.5 1019.43,-0.5 1025.43,-6.5 1025.43,-12.5 1025.43,-12.5 1025.43,-24.5 1025.43,-24.5 1025.43,-30.5 1019.43,-36.5 1013.43,-36.5 1013.43,-36.5 885.429,-36.5 885.429,-36.5 879.429,-36.5 873.429,-30.5 873.429,-24.5 873.429,-24.5 873.429,-12.5 873.429,-12.5 873.429,-6.5 879.429,-0.5 885.429,-0.5"/>
<text text-anchor="middle" x="949.429" y="-25.6" font-family="sans-serif" font-size="8.00" fill="#1c2021">Movie</text>
<polyline fill="none" stroke="#2e3436" stroke-width="1.5" points="873.429,-18.5 1025.43,-18.5 "/>
<text text-anchor="start" x="881.429" y="-7.6" font-family="sans-serif" font-size="8.00" fill="#1c2021">title = &#39;The American President&#39;</text>
</g>
<!-- N1&#45;&gt;N6 -->
<g id="edge6" class="edge"><title>N1&#45;&gt;N6</title>
<path fill="none" stroke="#4e9a06" stroke-width="2" d="M495.473,-98.7557C552.425,-88.9763 632.489,-75.0699 639.429,-73 658.89,-67.1955 661.846,-60.3836 681.429,-55 741.816,-38.3982 812.064,-29.4584 865.486,-24.7037"/>
<polygon fill="#4e9a06" stroke="#4e9a06" stroke-width="2" points="873.243,-24.0321 866.062,-28.0416 869.55,-24.8538 865.814,-25.1773 865.771,-24.6791 865.728,-24.181 869.464,-23.8575 865.48,-21.3167 873.243,-24.0321 873.243,-24.0321"/>
<text text-anchor="middle" x="730.929" y="-66.6" font-family="sans-serif" font-size="8.00" fill="#4e9a06">ACTED_IN</text>
<text text-anchor="start" x="681.429" y="-57.6" font-family="sans-serif" font-size="8.00" fill="#4e9a06">role = &#39;A.J. MacInerney&#39;</text>
</g>
<!-- N2 -->
<g id="node7" class="node"><title>N2</title>
<path fill="#ffffff" stroke="#2e3436" stroke-width="1.5" d="M832.929,-91.5C832.929,-91.5 935.929,-91.5 935.929,-91.5 941.929,-91.5 947.929,-97.5 947.929,-103.5 947.929,-103.5 947.929,-115.5 947.929,-115.5 947.929,-121.5 941.929,-127.5 935.929,-127.5 935.929,-127.5 832.929,-127.5 832.929,-127.5 826.929,-127.5 820.929,-121.5 820.929,-115.5 820.929,-115.5 820.929,-103.5 820.929,-103.5 820.929,-97.5 826.929,-91.5 832.929,-91.5"/>
<text text-anchor="middle" x="884.429" y="-116.6" font-family="sans-serif" font-size="8.00" fill="#1c2021">Person</text>
<polyline fill="none" stroke="#2e3436" stroke-width="1.5" points="820.929,-109.5 947.929,-109.5 "/>
<text text-anchor="start" x="828.929" y="-98.6" font-family="sans-serif" font-size="8.00" fill="#1c2021">name = &#39;Michael Douglas&#39;</text>
</g>
<!-- N2&#45;&gt;N5 -->
<g id="edge9" class="edge"><title>N2&#45;&gt;N5</title>
<path fill="none" stroke="#4e9a06" stroke-width="2" d="M848.739,-91.4251C837.601,-85.8246 825.371,-79.3918 814.429,-73 801.975,-65.7256 800.868,-60.2319 787.429,-55 731.202,-33.112 662.215,-24.691 614.945,-21.4671"/>
<polygon fill="#4e9a06" stroke="#4e9a06" stroke-width="2" points="607.259,-20.9756 614.959,-18.0862 611.033,-20.716 614.775,-20.9553 614.743,-21.4543 614.712,-21.9533 610.969,-21.7139 614.528,-24.8224 607.259,-20.9756 607.259,-20.9756"/>
<text text-anchor="middle" x="861.929" y="-66.6" font-family="sans-serif" font-size="8.00" fill="#4e9a06">ACTED_IN</text>
<text text-anchor="start" x="814.429" y="-57.6" font-family="sans-serif" font-size="8.00" fill="#4e9a06">role = &#39;Gordon Gekko&#39;</text>
</g>
<!-- N2&#45;&gt;N6 -->
<g id="edge8" class="edge"><title>N2&#45;&gt;N6</title>
<path fill="none" stroke="#4e9a06" stroke-width="2" d="M901.034,-91.3422C906.194,-85.6856 911.751,-79.2414 916.429,-73 923.38,-63.7242 930.244,-52.9354 935.897,-43.4861"/>
<polygon fill="#4e9a06" stroke="#4e9a06" stroke-width="2" points="939.782,-36.883 938.887,-45.0586 938.312,-40.3685 936.41,-43.6005 935.979,-43.3469 935.548,-43.0933 937.45,-39.8613 933.07,-41.6352 939.782,-36.883 939.782,-36.883"/>
<text text-anchor="middle" x="1004.43" y="-66.6" font-family="sans-serif" font-size="8.00" fill="#4e9a06">ACTED_IN</text>
<text text-anchor="start" x="927.429" y="-57.6" font-family="sans-serif" font-size="8.00" fill="#4e9a06">role = &#39;President Andrew Shepherd&#39;</text>
</g>
<!-- N3 -->
<g id="node8" class="node"><title>N3</title>
<path fill="#ffffff" stroke="#2e3436" stroke-width="1.5" d="M568.429,-91.5C568.429,-91.5 654.429,-91.5 654.429,-91.5 660.429,-91.5 666.429,-97.5 666.429,-103.5 666.429,-103.5 666.429,-115.5 666.429,-115.5 666.429,-121.5 660.429,-127.5 654.429,-127.5 654.429,-127.5 568.429,-127.5 568.429,-127.5 562.429,-127.5 556.429,-121.5 556.429,-115.5 556.429,-115.5 556.429,-103.5 556.429,-103.5 556.429,-97.5 562.429,-91.5 568.429,-91.5"/>
<text text-anchor="middle" x="611.429" y="-116.6" font-family="sans-serif" font-size="8.00" fill="#1c2021">Person</text>
<polyline fill="none" stroke="#2e3436" stroke-width="1.5" points="556.429,-109.5 666.429,-109.5 "/>
<text text-anchor="start" x="564.429" y="-98.6" font-family="sans-serif" font-size="8.00" fill="#1c2021">name = &#39;Oliver Stone&#39;</text>
</g>
<!-- N3&#45;&gt;N5 -->
<g id="edge10" class="edge"><title>N3&#45;&gt;N5</title>
<path fill="none" stroke="#a40000" stroke-width="2" d="M601.403,-91.3399C593.417,-77.6731 582.15,-58.3892 573.3,-43.2412"/>
<polygon fill="#a40000" stroke="#a40000" stroke-width="2" points="569.424,-36.6074 576.122,-41.3805 571.748,-39.593 573.639,-42.8309 573.208,-43.0831 572.776,-43.3354 570.884,-40.0975 570.294,-44.7858 569.424,-36.6074 569.424,-36.6074"/>
<text text-anchor="middle" x="611.429" y="-62.1" font-family="sans-serif" font-size="8.00" fill="#a40000">DIRECTED</text>
</g>
<!-- N4 -->
<g id="node9" class="node"><title>N4</title>
<path fill="#ffffff" stroke="#2e3436" stroke-width="1.5" d="M1097.43,-91.5C1097.43,-91.5 1177.43,-91.5 1177.43,-91.5 1183.43,-91.5 1189.43,-97.5 1189.43,-103.5 1189.43,-103.5 1189.43,-115.5 1189.43,-115.5 1189.43,-121.5 1183.43,-127.5 1177.43,-127.5 1177.43,-127.5 1097.43,-127.5 1097.43,-127.5 1091.43,-127.5 1085.43,-121.5 1085.43,-115.5 1085.43,-115.5 1085.43,-103.5 1085.43,-103.5 1085.43,-97.5 1091.43,-91.5 1097.43,-91.5"/>
<text text-anchor="middle" x="1137.43" y="-116.6" font-family="sans-serif" font-size="8.00" fill="#1c2021">Person</text>
<polyline fill="none" stroke="#2e3436" stroke-width="1.5" points="1085.43,-109.5 1189.43,-109.5 "/>
<text text-anchor="start" x="1093.43" y="-98.6" font-family="sans-serif" font-size="8.00" fill="#1c2021">name = &#39;Rob Reiner&#39;</text>
</g>
<!-- N4&#45;&gt;N6 -->
<g id="edge11" class="edge"><title>N4&#45;&gt;N6</title>
<path fill="none" stroke="#a40000" stroke-width="2" d="M1125.87,-91.3357C1116.98,-79.4284 1103.66,-64.1255 1088.43,-55 1071.57,-44.9 1051.89,-37.6535 1032.74,-32.4609"/>
<polygon fill="#a40000" stroke="#a40000" stroke-width="2" points="1025.43,-30.5697 1033.54,-29.1816 1029.19,-31.0253 1032.82,-31.9649 1032.69,-32.4489 1032.57,-32.933 1028.94,-31.9934 1031.85,-35.7163 1025.43,-30.5697 1025.43,-30.5697"/>
<text text-anchor="middle" x="1130.43" y="-62.1" font-family="sans-serif" font-size="8.00" fill="#a40000">DIRECTED</text>
</g>
</g>
</svg>
