<?xml version="1.0" encoding="UTF-8" standalone="no"?>
<!DOCTYPE svg PUBLIC "-//W3C//DTD SVG 1.1//EN"
 "http://www.w3.org/Graphics/SVG/1.1/DTD/svg11.dtd">
<!-- Generated by graphviz version 2.38.0 (20140413.2041)
 -->
<!-- Title: g Pages: 1 -->
<svg width="504pt" height="139pt"
 viewBox="0.00 0.00 504.00 139.18" xmlns="http://www.w3.org/2000/svg" xmlns:xlink="http://www.w3.org/1999/xlink">
<g id="graph0" class="graph" transform="scale(0.613139 0.613139) rotate(0) translate(4 223)">
<title>g</title>
<polygon fill="white" stroke="none" points="-4,4 -4,-223 818,-223 818,4 -4,4"/>
<!-- N0 -->
<g id="node1" class="node"><title>N0</title>
<path fill="#ffffff" stroke="#2e3436" stroke-width="1.5" d="M708,-91.5C708,-91.5 802,-91.5 802,-91.5 808,-91.5 814,-97.5 814,-103.5 814,-103.5 814,-115.5 814,-115.5 814,-121.5 808,-127.5 802,-127.5 802,-127.5 708,-127.5 708,-127.5 702,-127.5 696,-121.5 696,-115.5 696,-115.5 696,-103.5 696,-103.5 696,-97.5 702,-91.5 708,-91.5"/>
<text text-anchor="middle" x="755" y="-116.6" font-family="sans-serif" font-size="8.00" fill="#1c2021">Person</text>
<polyline fill="none" stroke="#2e3436" stroke-width="1.5" points="696,-109.5 814,-109.5 "/>
<text text-anchor="start" x="704" y="-98.6" font-family="sans-serif" font-size="8.00" fill="#1c2021">name = &#39;Charlie Sheen&#39;</text>
</g>
<!-- N5 -->
<g id="node2" class="node"><title>N5</title>
<path fill="#ffffff" stroke="#2e3436" stroke-width="1.5" d="M541.5,-0.5C541.5,-0.5 612.5,-0.5 612.5,-0.5 618.5,-0.5 624.5,-6.5 624.5,-12.5 624.5,-12.5 624.5,-24.5 624.5,-24.5 624.5,-30.5 618.5,-36.5 612.5,-36.5 612.5,-36.5 541.5,-36.5 541.5,-36.5 535.5,-36.5 529.5,-30.5 529.5,-24.5 529.5,-24.5 529.5,-12.5 529.5,-12.5 529.5,-6.5 535.5,-0.5 541.5,-0.5"/>
<text text-anchor="middle" x="577" y="-25.6" font-family="sans-serif" font-size="8.00" fill="#1c2021">Movie</text>
<polyline fill="none" stroke="#2e3436" stroke-width="1.5" points="529.5,-18.5 624.5,-18.5 "/>
<text text-anchor="start" x="537.5" y="-7.6" font-family="sans-serif" font-size="8.00" fill="#1c2021">title = &#39;Wall Street&#39;</text>
</g>
<!-- N0&#45;&gt;N5 -->
<g id="edge1" class="edge"><title>N0&#45;&gt;N5</title>
<path fill="none" stroke="#2e3436" stroke-width="2" d="M722.684,-91.3245C702.467,-80.6765 675.827,-66.822 652,-55 641.934,-50.0058 631.04,-44.7593 620.756,-39.8779"/>
<polygon fill="#2e3436" stroke="#2e3436" stroke-width="2" points="613.752,-36.5644 621.975,-36.7208 617.355,-37.7161 620.745,-39.3197 620.531,-39.7717 620.318,-40.2237 616.928,-38.62 619.088,-42.8225 613.752,-36.5644 613.752,-36.5644"/>
<text text-anchor="middle" x="721" y="-66.6" font-family="sans-serif" font-size="8.00" fill="#2e3436">ACTED_IN</text>
<text text-anchor="start" x="687" y="-57.6" font-family="sans-serif" font-size="8.00" fill="#2e3436">role = &#39;Bud Fox&#39;</text>
</g>
<!-- N1 -->
<g id="node3" class="node"><title>N1</title>
<path fill="#ffffff" stroke="#2e3436" stroke-width="1.5" d="M387,-91.5C387,-91.5 477,-91.5 477,-91.5 483,-91.5 489,-97.5 489,-103.5 489,-103.5 489,-115.5 489,-115.5 489,-121.5 483,-127.5 477,-127.5 477,-127.5 387,-127.5 387,-127.5 381,-127.5 375,-121.5 375,-115.5 375,-115.5 375,-103.5 375,-103.5 375,-97.5 381,-91.5 387,-91.5"/>
<text text-anchor="middle" x="432" y="-116.6" font-family="sans-serif" font-size="8.00" fill="#1c2021">Person</text>
<polyline fill="none" stroke="#2e3436" stroke-width="1.5" points="375,-109.5 489,-109.5 "/>
<text text-anchor="start" x="383" y="-98.6" font-family="sans-serif" font-size="8.00" fill="#1c2021">name = &#39;Martin Sheen&#39;</text>
</g>
<!-- N1&#45;&gt;N5 -->
<g id="edge3" class="edge"><title>N1&#45;&gt;N5</title>
<path fill="none" stroke="#2e3436" stroke-width="2" d="M462.313,-91.3457C472.175,-85.6354 483.122,-79.1589 493,-73 505.238,-65.3693 507.878,-62.8132 520,-55 527.202,-50.3579 534.968,-45.4551 542.379,-40.8239"/>
<polygon fill="#2e3436" stroke="#2e3436" stroke-width="2" points="549.059,-36.6624 544.478,-43.4926 546.141,-39.0696 542.958,-41.0524 542.693,-40.628 542.429,-40.2036 545.612,-38.2208 540.909,-37.7634 549.059,-36.6624 549.059,-36.6624"/>
<text text-anchor="middle" x="554.5" y="-66.6" font-family="sans-serif" font-size="8.00" fill="#2e3436">ACTED_IN</text>
<text text-anchor="start" x="520" y="-57.6" font-family="sans-serif" font-size="8.00" fill="#2e3436">role = &#39;Carl Fox&#39;</text>
</g>
<!-- N6 -->
<g id="node4" class="node"><title>N6</title>
<path fill="#ffffff" stroke="#2e3436" stroke-width="1.5" d="M12,-0.5C12,-0.5 140,-0.5 140,-0.5 146,-0.5 152,-6.5 152,-12.5 152,-12.5 152,-24.5 152,-24.5 152,-30.5 146,-36.5 140,-36.5 140,-36.5 12,-36.5 12,-36.5 6,-36.5 0,-30.5 0,-24.5 0,-24.5 0,-12.5 0,-12.5 0,-6.5 6,-0.5 12,-0.5"/>
<text text-anchor="middle" x="76" y="-25.6" font-family="sans-serif" font-size="8.00" fill="#1c2021">Movie</text>
<polyline fill="none" stroke="#2e3436" stroke-width="1.5" points="0,-18.5 152,-18.5 "/>
<text text-anchor="start" x="8" y="-7.6" font-family="sans-serif" font-size="8.00" fill="#1c2021">title = &#39;The American President&#39;</text>
</g>
<!-- N1&#45;&gt;N6 -->
<g id="edge2" class="edge"><title>N1&#45;&gt;N6</title>
<path fill="none" stroke="#2e3436" stroke-width="2" d="M410.204,-91.423C391.14,-76.634 365.636,-57.2624 360,-55 324.74,-40.8472 230.26,-30.9351 159.895,-25.2476"/>
<polygon fill="#2e3436" stroke="#2e3436" stroke-width="2" points="152.304,-24.6427 160.048,-21.8741 156.082,-24.4422 159.82,-24.74 159.78,-25.2385 159.74,-25.7369 156.002,-25.439 159.512,-28.6028 152.304,-24.6427 152.304,-24.6427"/>
<text text-anchor="middle" x="435.5" y="-66.6" font-family="sans-serif" font-size="8.00" fill="#2e3436">ACTED_IN</text>
<text text-anchor="start" x="386" y="-57.6" font-family="sans-serif" font-size="8.00" fill="#2e3436">role = &#39;A.J. MacInerney&#39;</text>
</g>
<!-- N2 -->
<g id="node5" class="node"><title>N2</title>
<path fill="#ffffff" stroke="#2e3436" stroke-width="1.5" d="M150.5,-91.5C150.5,-91.5 253.5,-91.5 253.5,-91.5 259.5,-91.5 265.5,-97.5 265.5,-103.5 265.5,-103.5 265.5,-115.5 265.5,-115.5 265.5,-121.5 259.5,-127.5 253.5,-127.5 253.5,-127.5 150.5,-127.5 150.5,-127.5 144.5,-127.5 138.5,-121.5 138.5,-115.5 138.5,-115.5 138.5,-103.5 138.5,-103.5 138.5,-97.5 144.5,-91.5 150.5,-91.5"/>
<text text-anchor="middle" x="202" y="-116.6" font-family="sans-serif" font-size="8.00" fill="#1c2021">Person</text>
<polyline fill="none" stroke="#2e3436" stroke-width="1.5" points="138.5,-109.5 265.5,-109.5 "/>
<text text-anchor="start" x="146.5" y="-98.6" font-family="sans-serif" font-size="8.00" fill="#1c2021">name = &#39;Michael Douglas&#39;</text>
</g>
<!-- N2&#45;&gt;N5 -->
<g id="edge5" class="edge"><title>N2&#45;&gt;N5</title>
<path fill="none" stroke="#2e3436" stroke-width="2" d="M214.703,-91.4419C224.929,-79.0933 240.455,-63.1892 258,-55 303.461,-33.7806 442.794,-24.8484 521.451,-21.4164"/>
<polygon fill="#2e3436" stroke="#2e3436" stroke-width="2" points="529.334,-21.082 521.983,-24.7719 525.608,-21.7405 521.862,-21.8995 521.84,-21.4 521.819,-20.9004 525.566,-20.7414 521.697,-18.028 529.334,-21.082 529.334,-21.082"/>
<text text-anchor="middle" x="305.5" y="-66.6" font-family="sans-serif" font-size="8.00" fill="#2e3436">ACTED_IN</text>
<text text-anchor="start" x="258" y="-57.6" font-family="sans-serif" font-size="8.00" fill="#2e3436">role = &#39;Gordon Gekko&#39;</text>
</g>
<!-- N2&#45;&gt;N6 -->
<g id="edge4" class="edge"><title>N2&#45;&gt;N6</title>
<path fill="none" stroke="#2e3436" stroke-width="2" d="M138.397,-98.2652C110.548,-92.3611 82.3053,-83.9223 74,-73 67.8739,-64.9436 67.3211,-54.0613 68.7088,-44.2147"/>
<polygon fill="#2e3436" stroke="#2e3436" stroke-width="2" points="70.1684,-36.6138 72.0684,-44.6157 69.9522,-40.3908 69.245,-44.0735 68.754,-43.9792 68.263,-43.8849 68.9702,-40.2022 65.4395,-43.3428 70.1684,-36.6138 70.1684,-36.6138"/>
<text text-anchor="middle" x="151" y="-66.6" font-family="sans-serif" font-size="8.00" fill="#2e3436">ACTED_IN</text>
<text text-anchor="start" x="74" y="-57.6" font-family="sans-serif" font-size="8.00" fill="#2e3436">role = &#39;President Andrew Shepherd&#39;</text>
</g>
<!-- N3 -->
<g id="node6" class="node"><title>N3</title>
<path fill="#ffffff" stroke="#2e3436" stroke-width="1.5" d="M569,-91.5C569,-91.5 655,-91.5 655,-91.5 661,-91.5 667,-97.5 667,-103.5 667,-103.5 667,-115.5 667,-115.5 667,-121.5 661,-127.5 655,-127.5 655,-127.5 569,-127.5 569,-127.5 563,-127.5 557,-121.5 557,-115.5 557,-115.5 557,-103.5 557,-103.5 557,-97.5 563,-91.5 569,-91.5"/>
<text text-anchor="middle" x="612" y="-116.6" font-family="sans-serif" font-size="8.00" fill="#1c2021">Person</text>
<polyline fill="none" stroke="#2e3436" stroke-width="1.5" points="557,-109.5 667,-109.5 "/>
<text text-anchor="start" x="565" y="-98.6" font-family="sans-serif" font-size="8.00" fill="#1c2021">name = &#39;Oliver Stone&#39;</text>
</g>
<!-- N3&#45;&gt;N5 -->
<g id="edge6" class="edge"><title>N3&#45;&gt;N5</title>
<path fill="none" stroke="#4e9a06" stroke-width="2" d="M607.808,-91.3309C604.979,-80.6854 600.877,-66.8311 596,-55 594.474,-51.298 592.68,-47.4754 590.813,-43.7714"/>
<polygon fill="#4e9a06" stroke="#4e9a06" stroke-width="2" points="587.188,-36.8577 593.66,-41.9322 589.372,-39.9465 591.114,-43.2675 590.671,-43.4997 590.228,-43.7319 588.486,-40.4109 587.682,-45.0672 587.188,-36.8577 587.188,-36.8577"/>
<text text-anchor="middle" x="624" y="-62.1" font-family="sans-serif" font-size="8.00" fill="#4e9a06">DIRECTED</text>
</g>
<!-- N4 -->
<g id="node7" class="node"><title>N4</title>
<path fill="#ffffff" stroke="#2e3436" stroke-width="1.5" d="M181,-182.5C181,-182.5 261,-182.5 261,-182.5 267,-182.5 273,-188.5 273,-194.5 273,-194.5 273,-206.5 273,-206.5 273,-212.5 267,-218.5 261,-218.5 261,-218.5 181,-218.5 181,-218.5 175,-218.5 169,-212.5 169,-206.5 169,-206.5 169,-194.5 169,-194.5 169,-188.5 175,-182.5 181,-182.5"/>
<text text-anchor="middle" x="221" y="-207.6" font-family="sans-serif" font-size="8.00" fill="#1c2021">Person</text>
<polyline fill="none" stroke="#2e3436" stroke-width="1.5" points="169,-200.5 273,-200.5 "/>
<text text-anchor="start" x="177" y="-189.6" font-family="sans-serif" font-size="8.00" fill="#1c2021">name = &#39;Rob Reiner&#39;</text>
</g>
<!-- N4&#45;&gt;N0 -->
<g id="edge7" class="edge"><title>N4&#45;&gt;N0</title>
<path fill="none" stroke="#a40000" stroke-width="2" d="M273.315,-192.722C358.908,-181.33 534.067,-156.748 681,-128 683.397,-127.531 685.834,-127.038 688.292,-126.528"/>
<polygon fill="#a40000" stroke="#a40000" stroke-width="2" points="695.715,-124.95 689.081,-129.811 692.151,-126.219 688.483,-126.999 688.379,-126.51 688.275,-126.021 691.943,-125.241 687.677,-123.209 695.715,-124.95 695.715,-124.95"/>
<text text-anchor="middle" x="606.5" y="-157.6" font-family="sans-serif" font-size="8.00" fill="#a40000">TYPE</text>
<text text-anchor="middle" x="606.5" y="-148.6" font-family="sans-serif" font-size="8.00" fill="#a40000">WITH SPACE</text>
</g>
<!-- N4&#45;&gt;N6 -->
<g id="edge8" class="edge"><title>N4&#45;&gt;N6</title>
<path fill="none" stroke="#4e9a06" stroke-width="2" d="M168.722,-183.297C139.713,-171.938 104.963,-154.063 82,-128 59.7617,-102.759 55.7188,-88.0485 62,-55 62.6904,-51.3674 63.7452,-47.6313 64.9727,-44.0096"/>
<polygon fill="#4e9a06" stroke="#4e9a06" stroke-width="2" points="67.6735,-36.8059 68.2008,-45.0134 66.8252,-40.4928 65.5087,-44.0041 65.0405,-43.8286 64.5724,-43.6531 65.8888,-40.1417 61.8803,-42.6438 67.6735,-36.8059 67.6735,-36.8059"/>
<text text-anchor="middle" x="103" y="-107.6" font-family="sans-serif" font-size="8.00" fill="#4e9a06">DIRECTED</text>
</g>
</g>
</svg>
