<?xml version="1.0" encoding="UTF-8" standalone="no"?>
<!DOCTYPE svg PUBLIC "-//W3C//DTD SVG 1.1//EN"
 "http://www.w3.org/Graphics/SVG/1.1/DTD/svg11.dtd">
<!-- Generated by graphviz version 2.38.0 (20140413.2041)
 -->
<!-- Title: g Pages: 1 -->
<svg width="504pt" height="75pt"
 viewBox="0.00 0.00 504.00 74.67" xmlns="http://www.w3.org/2000/svg" xmlns:xlink="http://www.w3.org/1999/xlink">
<g id="graph0" class="graph" transform="scale(0.54902 0.54902) rotate(0) translate(4 132)">
<title>g</title>
<polygon fill="white" stroke="none" points="-4,4 -4,-132 914,-132 914,4 -4,4"/>
<!-- N0 -->
<g id="node1" class="node"><title>N0</title>
<path fill="#ffffff" stroke="#2e3436" stroke-width="1.5" d="M308,-91.5C308,-91.5 402,-91.5 402,-91.5 408,-91.5 414,-97.5 414,-103.5 414,-103.5 414,-115.5 414,-115.5 414,-121.5 408,-127.5 402,-127.5 402,-127.5 308,-127.5 308,-127.5 302,-127.5 296,-121.5 296,-115.5 296,-115.5 296,-103.5 296,-103.5 296,-97.5 302,-91.5 308,-91.5"/>
<text text-anchor="middle" x="355" y="-116.6" font-family="sans-serif" font-size="8.00" fill="#1c2021">Person</text>
<polyline fill="none" stroke="#2e3436" stroke-width="1.5" points="296,-109.5 414,-109.5 "/>
<text text-anchor="start" x="304" y="-98.6" font-family="sans-serif" font-size="8.00" fill="#1c2021">name = &#39;Charlie Sheen&#39;</text>
</g>
<!-- N5 -->
<g id="node2" class="node"><title>N5</title>
<path fill="#ffffff" stroke="#2e3436" stroke-width="1.5" d="M231.5,-0.5C231.5,-0.5 302.5,-0.5 302.5,-0.5 308.5,-0.5 314.5,-6.5 314.5,-12.5 314.5,-12.5 314.5,-24.5 314.5,-24.5 314.5,-30.5 308.5,-36.5 302.5,-36.5 302.5,-36.5 231.5,-36.5 231.5,-36.5 225.5,-36.5 219.5,-30.5 219.5,-24.5 219.5,-24.5 219.5,-12.5 219.5,-12.5 219.5,-6.5 225.5,-0.5 231.5,-0.5"/>
<text text-anchor="middle" x="267" y="-25.6" font-family="sans-serif" font-size="8.00" fill="#1c2021">Movie</text>
<polyline fill="none" stroke="#2e3436" stroke-width="1.5" points="219.5,-18.5 314.5,-18.5 "/>
<text text-anchor="start" x="227.5" y="-7.6" font-family="sans-serif" font-size="8.00" fill="#1c2021">title = &#39;Wall Street&#39;</text>
</g>
<!-- N0&#45;&gt;N5 -->
<g id="edge1" class="edge"><title>N0&#45;&gt;N5</title>
<path fill="none" stroke="#2e3436" stroke-width="2" d="M338.033,-91.3399C324.154,-77.3038 304.417,-57.3427 289.269,-42.0223"/>
<polygon fill="#2e3436" stroke="#2e3436" stroke-width="2" points="283.915,-36.6074 291.588,-39.5676 286.907,-38.9225 289.544,-41.5891 289.188,-41.9406 288.833,-42.2922 286.196,-39.6256 286.789,-44.3136 283.915,-36.6074 283.915,-36.6074"/>
<text text-anchor="middle" x="353" y="-66.6" font-family="sans-serif" font-size="8.00" fill="#2e3436">ACTED_IN</text>
<text text-anchor="start" x="319" y="-57.6" font-family="sans-serif" font-size="8.00" fill="#2e3436">role = &#39;Bud Fox&#39;</text>
</g>
<!-- N1 -->
<g id="node3" class="node"><title>N1</title>
<path fill="#ffffff" stroke="#2e3436" stroke-width="1.5" d="M626,-91.5C626,-91.5 716,-91.5 716,-91.5 722,-91.5 728,-97.5 728,-103.5 728,-103.5 728,-115.5 728,-115.5 728,-121.5 722,-127.5 716,-127.5 716,-127.5 626,-127.5 626,-127.5 620,-127.5 614,-121.5 614,-115.5 614,-115.5 614,-103.5 614,-103.5 614,-97.5 620,-91.5 626,-91.5"/>
<text text-anchor="middle" x="671" y="-116.6" font-family="sans-serif" font-size="8.00" fill="#1c2021">Person</text>
<polyline fill="none" stroke="#2e3436" stroke-width="1.5" points="614,-109.5 728,-109.5 "/>
<text text-anchor="start" x="622" y="-98.6" font-family="sans-serif" font-size="8.00" fill="#1c2021">name = &#39;Martin Sheen&#39;</text>
</g>
<!-- N1&#45;&gt;N5 -->
<g id="edge3" class="edge"><title>N1&#45;&gt;N5</title>
<path fill="none" stroke="#2e3436" stroke-width="2" d="M644.946,-91.4004C621.235,-75.8538 589.795,-55.2848 589,-55 541.33,-37.9253 401.412,-27.3072 322.602,-22.5104"/>
<polygon fill="#2e3436" stroke="#2e3436" stroke-width="2" points="314.704,-22.0368 322.393,-19.1169 318.478,-21.7622 322.221,-21.9867 322.191,-22.4859 322.161,-22.985 318.418,-22.7604 321.989,-25.8548 314.704,-22.0368 314.704,-22.0368"/>
<text text-anchor="middle" x="651.5" y="-66.6" font-family="sans-serif" font-size="8.00" fill="#2e3436">ACTED_IN</text>
<text text-anchor="start" x="617" y="-57.6" font-family="sans-serif" font-size="8.00" fill="#2e3436">role = &#39;Carl Fox&#39;</text>
</g>
<!-- N6 -->
<g id="node4" class="node"><title>N6</title>
<path fill="#ffffff" stroke="#2e3436" stroke-width="1.5" d="M661,-0.5C661,-0.5 789,-0.5 789,-0.5 795,-0.5 801,-6.5 801,-12.5 801,-12.5 801,-24.5 801,-24.5 801,-30.5 795,-36.5 789,-36.5 789,-36.5 661,-36.5 661,-36.5 655,-36.5 649,-30.5 649,-24.5 649,-24.5 649,-12.5 649,-12.5 649,-6.5 655,-0.5 661,-0.5"/>
<text text-anchor="middle" x="725" y="-25.6" font-family="sans-serif" font-size="8.00" fill="#1c2021">Movie</text>
<polyline fill="none" stroke="#2e3436" stroke-width="1.5" points="649,-18.5 801,-18.5 "/>
<text text-anchor="start" x="657" y="-7.6" font-family="sans-serif" font-size="8.00" fill="#1c2021">title = &#39;The American President&#39;</text>
</g>
<!-- N1&#45;&gt;N6 -->
<g id="edge2" class="edge"><title>N1&#45;&gt;N6</title>
<path fill="none" stroke="#2e3436" stroke-width="2" d="M681.412,-91.3399C689.704,-77.6731 701.404,-58.3892 710.595,-43.2412"/>
<polygon fill="#2e3436" stroke="#2e3436" stroke-width="2" points="714.62,-36.6074 713.615,-44.7702 713.102,-40.0728 711.157,-43.2788 710.73,-43.0195 710.302,-42.7601 712.247,-39.5541 707.844,-41.2687 714.62,-36.6074 714.62,-36.6074"/>
<text text-anchor="middle" x="751.5" y="-66.6" font-family="sans-serif" font-size="8.00" fill="#2e3436">ACTED_IN</text>
<text text-anchor="start" x="702" y="-57.6" font-family="sans-serif" font-size="8.00" fill="#2e3436">role = &#39;A.J. MacInerney&#39;</text>
</g>
<!-- N2 -->
<g id="node5" class="node"><title>N2</title>
<path fill="#ffffff" stroke="#2e3436" stroke-width="1.5" d="M151.5,-91.5C151.5,-91.5 254.5,-91.5 254.5,-91.5 260.5,-91.5 266.5,-97.5 266.5,-103.5 266.5,-103.5 266.5,-115.5 266.5,-115.5 266.5,-121.5 260.5,-127.5 254.5,-127.5 254.5,-127.5 151.5,-127.5 151.5,-127.5 145.5,-127.5 139.5,-121.5 139.5,-115.5 139.5,-115.5 139.5,-103.5 139.5,-103.5 139.5,-97.5 145.5,-91.5 151.5,-91.5"/>
<text text-anchor="middle" x="203" y="-116.6" font-family="sans-serif" font-size="8.00" fill="#1c2021">Person</text>
<polyline fill="none" stroke="#2e3436" stroke-width="1.5" points="139.5,-109.5 266.5,-109.5 "/>
<text text-anchor="start" x="147.5" y="-98.6" font-family="sans-serif" font-size="8.00" fill="#1c2021">name = &#39;Michael Douglas&#39;</text>
</g>
<!-- N2&#45;&gt;N5 -->
<g id="edge5" class="edge"><title>N2&#45;&gt;N5</title>
<path fill="none" stroke="#2e3436" stroke-width="2" d="M197.819,-91.4072C195.485,-80.2718 194.516,-65.8508 201,-55 204.262,-49.5414 208.684,-44.8732 213.705,-40.8925"/>
<polygon fill="#2e3436" stroke="#2e3436" stroke-width="2" points="219.839,-36.5291 215.684,-43.6265 217.073,-39.1101 214.017,-41.2836 213.727,-40.8762 213.438,-40.4687 216.494,-38.2952 211.771,-38.1259 219.839,-36.5291 219.839,-36.5291"/>
<text text-anchor="middle" x="248.5" y="-66.6" font-family="sans-serif" font-size="8.00" fill="#2e3436">ACTED_IN</text>
<text text-anchor="start" x="201" y="-57.6" font-family="sans-serif" font-size="8.00" fill="#2e3436">role = &#39;Gordon Gekko&#39;</text>
</g>
<!-- N2&#45;&gt;N6 -->
<g id="edge4" class="edge"><title>N2&#45;&gt;N6</title>
<path fill="none" stroke="#2e3436" stroke-width="2" d="M266.783,-93.8476C271.587,-92.8489 276.366,-91.8881 281,-91 330.947,-81.4287 345.765,-89.1148 394,-73 410.217,-67.582 411.68,-60.1007 428,-55 497.872,-33.1614 580.852,-24.6096 641.316,-21.3336"/>
<polygon fill="#2e3436" stroke="#2e3436" stroke-width="2" points="648.948,-20.9415 641.631,-24.6969 645.229,-21.6333 641.484,-21.8257 641.458,-21.3264 641.432,-20.827 645.177,-20.6346 641.285,-17.9558 648.948,-20.9415 648.948,-20.9415"/>
<text text-anchor="middle" x="505" y="-66.6" font-family="sans-serif" font-size="8.00" fill="#2e3436">ACTED_IN</text>
<text text-anchor="start" x="428" y="-57.6" font-family="sans-serif" font-size="8.00" fill="#2e3436">role = &#39;President Andrew Shepherd&#39;</text>
</g>
<!-- N3 -->
<g id="node6" class="node"><title>N3</title>
<path fill="#ffffff" stroke="#2e3436" stroke-width="1.5" d="M12,-91.5C12,-91.5 98,-91.5 98,-91.5 104,-91.5 110,-97.5 110,-103.5 110,-103.5 110,-115.5 110,-115.5 110,-121.5 104,-127.5 98,-127.5 98,-127.5 12,-127.5 12,-127.5 6,-127.5 0,-121.5 0,-115.5 0,-115.5 0,-103.5 0,-103.5 0,-97.5 6,-91.5 12,-91.5"/>
<text text-anchor="middle" x="55" y="-116.6" font-family="sans-serif" font-size="8.00" fill="#1c2021">Person</text>
<polyline fill="none" stroke="#2e3436" stroke-width="1.5" points="0,-109.5 110,-109.5 "/>
<text text-anchor="start" x="8" y="-98.6" font-family="sans-serif" font-size="8.00" fill="#1c2021">name = &#39;Oliver Stone&#39;</text>
</g>
<!-- N3&#45;&gt;N5 -->
<g id="edge6" class="edge"><title>N3&#45;&gt;N5</title>
<path fill="none" stroke="#4e9a06" stroke-width="2" d="M81.0095,-91.3487C99.2046,-79.9047 124.384,-65.1513 148,-55 168.375,-46.2417 191.59,-38.7901 212.072,-33.0092"/>
<polygon fill="#4e9a06" stroke="#4e9a06" stroke-width="2" points="219.484,-30.9556 213.158,-36.2106 216.004,-32.4387 212.39,-33.44 212.257,-32.9581 212.123,-32.4763 215.737,-31.475 211.356,-29.7056 219.484,-30.9556 219.484,-30.9556"/>
<text text-anchor="middle" x="169" y="-62.1" font-family="sans-serif" font-size="8.00" fill="#4e9a06">DIRECTED</text>
</g>
<!-- N4 -->
<g id="node7" class="node"><title>N4</title>
<path fill="#ffffff" stroke="#2e3436" stroke-width="1.5" d="M818,-91.5C818,-91.5 898,-91.5 898,-91.5 904,-91.5 910,-97.5 910,-103.5 910,-103.5 910,-115.5 910,-115.5 910,-121.5 904,-127.5 898,-127.5 898,-127.5 818,-127.5 818,-127.5 812,-127.5 806,-121.5 806,-115.5 806,-115.5 806,-103.5 806,-103.5 806,-97.5 812,-91.5 818,-91.5"/>
<text text-anchor="middle" x="858" y="-116.6" font-family="sans-serif" font-size="8.00" fill="#1c2021">Person</text>
<polyline fill="none" stroke="#2e3436" stroke-width="1.5" points="806,-109.5 910,-109.5 "/>
<text text-anchor="start" x="814" y="-98.6" font-family="sans-serif" font-size="8.00" fill="#1c2021">name = &#39;Rob Reiner&#39;</text>
</g>
<!-- N4&#45;&gt;N6 -->
<g id="edge7" class="edge"><title>N4&#45;&gt;N6</title>
<path fill="none" stroke="#4e9a06" stroke-width="2" d="M845.079,-91.2998C835.77,-79.834 822.363,-65.0746 808,-55 799.82,-49.2626 790.568,-44.1813 781.283,-39.785"/>
<polygon fill="#4e9a06" stroke="#4e9a06" stroke-width="2" points="774.195,-36.5572 782.419,-36.5938 777.815,-37.6562 781.228,-39.2103 781.02,-39.6653 780.813,-40.1204 777.4,-38.5663 779.622,-42.7369 774.195,-36.5572 774.195,-36.5572"/>
<text text-anchor="middle" x="848" y="-62.1" font-family="sans-serif" font-size="8.00" fill="#4e9a06">DIRECTED</text>
</g>
</g>
</svg>
