<?xml version="1.0" encoding="UTF-8" standalone="no"?>
<!DOCTYPE svg PUBLIC "-//W3C//DTD SVG 1.1//EN"
 "http://www.w3.org/Graphics/SVG/1.1/DTD/svg11.dtd">
<!-- Generated by graphviz version 2.38.0 (20140413.2041)
 -->
<!-- Title: g Pages: 1 -->
<svg width="261pt" height="266pt"
 viewBox="0.00 0.00 260.50 266.00" xmlns="http://www.w3.org/2000/svg" xmlns:xlink="http://www.w3.org/1999/xlink">
<g id="graph0" class="graph" transform="scale(1 1) rotate(0) translate(4 262)">
<title>g</title>
<polygon fill="white" stroke="none" points="-4,4 -4,-262 256.5,-262 256.5,4 -4,4"/>
<!-- N0 -->
<g id="node1" class="node"><title>N0</title>
<path fill="#ffffff" stroke="#2e3436" stroke-width="1.5" d="M70,-205.5C70,-205.5 126,-205.5 126,-205.5 132,-205.5 138,-211.5 138,-217.5 138,-217.5 138,-245.5 138,-245.5 138,-251.5 132,-257.5 126,-257.5 126,-257.5 70,-257.5 70,-257.5 64,-257.5 58,-251.5 58,-245.5 58,-245.5 58,-217.5 58,-217.5 58,-211.5 64,-205.5 70,-205.5"/>
<text text-anchor="middle" x="98" y="-247.1" font-family="sans-serif" font-size="8.00" fill="#1c2021">A</text>
<polyline fill="none" stroke="#2e3436" stroke-width="1.5" points="58,-240.5 138,-240.5 "/>
<text text-anchor="start" x="66" y="-230.1" font-family="sans-serif" font-size="8.00" fill="#1c2021">name = &#39;Alice&#39;</text>
<text text-anchor="start" x="66" y="-221.1" font-family="sans-serif" font-size="8.00" fill="#1c2021">age = 38</text>
<text text-anchor="start" x="66" y="-212.1" font-family="sans-serif" font-size="8.00" fill="#1c2021">eyes = &#39;brown&#39;</text>
</g>
<!-- N2 -->
<g id="node2" class="node"><title>N2</title>
<path fill="#ffffff" stroke="#2e3436" stroke-width="1.5" d="M12,-107.5C12,-107.5 76,-107.5 76,-107.5 82,-107.5 88,-113.5 88,-119.5 88,-119.5 88,-147.5 88,-147.5 88,-153.5 82,-159.5 76,-159.5 76,-159.5 12,-159.5 12,-159.5 6,-159.5 0,-153.5 0,-147.5 0,-147.5 0,-119.5 0,-119.5 0,-113.5 6,-107.5 12,-107.5"/>
<text text-anchor="middle" x="44" y="-149.1" font-family="sans-serif" font-size="8.00" fill="#1c2021">C</text>
<polyline fill="none" stroke="#2e3436" stroke-width="1.5" points="0,-142.5 88,-142.5 "/>
<text text-anchor="start" x="8" y="-132.1" font-family="sans-serif" font-size="8.00" fill="#1c2021">name = &#39;Charlie&#39;</text>
<text text-anchor="start" x="8" y="-123.1" font-family="sans-serif" font-size="8.00" fill="#1c2021">age = 53</text>
<text text-anchor="start" x="8" y="-114.1" font-family="sans-serif" font-size="8.00" fill="#1c2021">eyes = &#39;green&#39;</text>
</g>
<!-- N0&#45;&gt;N2 -->
<g id="edge1" class="edge"><title>N0&#45;&gt;N2</title>
<path fill="none" stroke="#2e3436" stroke-width="2" d="M83.8121,-205.277C77.1152,-193.371 69.0492,-179.032 61.9337,-166.382"/>
<polygon fill="#2e3436" stroke="#2e3436" stroke-width="2" points="58.0931,-159.554 64.7117,-164.437 60.3674,-162.578 62.2059,-165.846 61.7701,-166.091 61.3343,-166.336 59.4958,-163.068 58.8285,-167.746 58.0931,-159.554 58.0931,-159.554"/>
<text text-anchor="middle" x="88.5" y="-180.6" font-family="sans-serif" font-size="8.00" fill="#2e3436">KNOWS</text>
</g>
<!-- N1 -->
<g id="node3" class="node"><title>N1</title>
<path fill="#ffffff" stroke="#2e3436" stroke-width="1.5" d="M129,-107.5C129,-107.5 179,-107.5 179,-107.5 185,-107.5 191,-113.5 191,-119.5 191,-119.5 191,-147.5 191,-147.5 191,-153.5 185,-159.5 179,-159.5 179,-159.5 129,-159.5 129,-159.5 123,-159.5 117,-153.5 117,-147.5 117,-147.5 117,-119.5 117,-119.5 117,-113.5 123,-107.5 129,-107.5"/>
<text text-anchor="middle" x="154" y="-149.1" font-family="sans-serif" font-size="8.00" fill="#1c2021">B</text>
<polyline fill="none" stroke="#2e3436" stroke-width="1.5" points="117,-142.5 191,-142.5 "/>
<text text-anchor="start" x="125" y="-132.1" font-family="sans-serif" font-size="8.00" fill="#1c2021">name = &#39;Bob&#39;</text>
<text text-anchor="start" x="125" y="-123.1" font-family="sans-serif" font-size="8.00" fill="#1c2021">age = 25</text>
<text text-anchor="start" x="125" y="-114.1" font-family="sans-serif" font-size="8.00" fill="#1c2021">eyes = &#39;blue&#39;</text>
</g>
<!-- N0&#45;&gt;N1 -->
<g id="edge2" class="edge"><title>N0&#45;&gt;N1</title>
<path fill="none" stroke="#2e3436" stroke-width="2" d="M112.713,-205.277C119.658,-193.371 128.023,-179.032 135.402,-166.382"/>
<polygon fill="#2e3436" stroke="#2e3436" stroke-width="2" points="139.385,-159.554 138.521,-167.733 137.927,-163.046 136.038,-166.285 135.606,-166.033 135.174,-165.781 137.063,-162.542 132.691,-164.332 139.385,-159.554 139.385,-159.554"/>
<text text-anchor="middle" x="143.5" y="-180.6" font-family="sans-serif" font-size="8.00" fill="#2e3436">KNOWS</text>
</g>
<!-- N3 -->
<g id="node5" class="node"><title>N3</title>
<path fill="#ffffff" stroke="#2e3436" stroke-width="1.5" d="M14,-5C14,-5 74,-5 74,-5 80,-5 86,-11 86,-17 86,-17 86,-45 86,-45 86,-51 80,-57 74,-57 74,-57 14,-57 14,-57 8,-57 2,-51 2,-45 2,-45 2,-17 2,-17 2,-11 8,-5 14,-5"/>
<text text-anchor="middle" x="44" y="-46.6" font-family="sans-serif" font-size="8.00" fill="#1c2021">D</text>
<polyline fill="none" stroke="#2e3436" stroke-width="1.5" points="2,-40 86,-40 "/>
<text text-anchor="start" x="10" y="-29.6" font-family="sans-serif" font-size="8.00" fill="#1c2021">name = &#39;Daniel&#39;</text>
<text text-anchor="start" x="10" y="-20.6" font-family="sans-serif" font-size="8.00" fill="#1c2021">age = 54</text>
<text text-anchor="start" x="10" y="-11.6" font-family="sans-serif" font-size="8.00" fill="#1c2021">eyes = &#39;brown&#39;</text>
</g>
<!-- N2&#45;&gt;N3 -->
<g id="edge5" class="edge"><title>N2&#45;&gt;N3</title>
<path fill="none" stroke="#2e3436" stroke-width="2" d="M44,-107.399C44,-94.5682 44,-78.7902 44,-64.9894"/>
<polygon fill="#2e3436" stroke="#2e3436" stroke-width="2" points="44,-57.1295 47.3751,-64.6294 44.5,-60.8795 44.5001,-64.6295 44.0001,-64.6295 43.5001,-64.6295 43.5,-60.8795 40.6251,-64.6295 44,-57.1295 44,-57.1295"/>
<text text-anchor="middle" x="59.5" y="-82.6" font-family="sans-serif" font-size="8.00" fill="#2e3436">KNOWS</text>
</g>
<!-- N4 -->
<g id="node4" class="node"><title>N4</title>
<path fill="#ffffff" stroke="#2e3436" stroke-width="1.5" d="M127.5,-0.5C127.5,-0.5 240.5,-0.5 240.5,-0.5 246.5,-0.5 252.5,-6.5 252.5,-12.5 252.5,-12.5 252.5,-49.5 252.5,-49.5 252.5,-55.5 246.5,-61.5 240.5,-61.5 240.5,-61.5 127.5,-61.5 127.5,-61.5 121.5,-61.5 115.5,-55.5 115.5,-49.5 115.5,-49.5 115.5,-12.5 115.5,-12.5 115.5,-6.5 121.5,-0.5 127.5,-0.5"/>
<text text-anchor="middle" x="184" y="-51.1" font-family="sans-serif" font-size="8.00" fill="#1c2021">E</text>
<polyline fill="none" stroke="#2e3436" stroke-width="1.5" points="115.5,-44.5 252.5,-44.5 "/>
<text text-anchor="start" x="123.5" y="-34.1" font-family="sans-serif" font-size="8.00" fill="#1c2021">array = [&#39;one&#39;, &#39;two&#39;, &#39;three&#39;]</text>
<text text-anchor="start" x="123.5" y="-25.1" font-family="sans-serif" font-size="8.00" fill="#1c2021">name = &#39;Eskil&#39;</text>
<text text-anchor="start" x="123.5" y="-16.1" font-family="sans-serif" font-size="8.00" fill="#1c2021">age = 41</text>
<text text-anchor="start" x="123.5" y="-7.1" font-family="sans-serif" font-size="8.00" fill="#1c2021">eyes = &#39;blue&#39;</text>
</g>
<!-- N1&#45;&gt;N4 -->
<g id="edge3" class="edge"><title>N1&#45;&gt;N4</title>
<path fill="none" stroke="#4e9a06" stroke-width="2" d="M161.493,-107.399C164.946,-95.8318 169.114,-81.8694 172.919,-69.1198"/>
<polygon fill="#4e9a06" stroke="#4e9a06" stroke-width="2" points="175.11,-61.7804 176.199,-69.9324 174.517,-65.5167 173.444,-69.1101 172.965,-68.967 172.486,-68.824 173.559,-65.2307 169.731,-68.0016 175.11,-61.7804 175.11,-61.7804"/>
<text text-anchor="middle" x="187.5" y="-82.6" font-family="sans-serif" font-size="8.00" fill="#4e9a06">MARRIED</text>
</g>
<!-- N1&#45;&gt;N3 -->
<g id="edge4" class="edge"><title>N1&#45;&gt;N3</title>
<path fill="none" stroke="#2e3436" stroke-width="2" d="M126.526,-107.399C111.564,-93.7288 92.9398,-76.7132 77.1725,-62.3076"/>
<polygon fill="#2e3436" stroke="#2e3436" stroke-width="2" points="71.5049,-57.1295 79.3184,-59.6966 74.6107,-59.2898 77.3792,-61.8192 77.0419,-62.1883 76.7047,-62.5574 73.9361,-60.028 74.7654,-64.68 71.5049,-57.1295 71.5049,-57.1295"/>
<text text-anchor="middle" x="121.5" y="-82.6" font-family="sans-serif" font-size="8.00" fill="#2e3436">KNOWS</text>
</g>
</g>
</svg>
