<?xml version="1.0" encoding="UTF-8" standalone="no"?>
<!DOCTYPE svg PUBLIC "-//W3C//DTD SVG 1.1//EN"
 "http://www.w3.org/Graphics/SVG/1.1/DTD/svg11.dtd">
<!-- Generated by graphviz version 2.38.0 (20140413.2041)
 -->
<!-- Title: g Pages: 1 -->
<svg width="504pt" height="158pt"
 viewBox="0.00 0.00 504.00 158.16" xmlns="http://www.w3.org/2000/svg" xmlns:xlink="http://www.w3.org/1999/xlink">
<g id="graph0" class="graph" transform="scale(0.65625 0.65625) rotate(0) translate(4 237)">
<title>g</title>
<polygon fill="white" stroke="none" points="-4,4 -4,-237 764,-237 764,4 -4,4"/>
<!-- N0 -->
<g id="node1" class="node"><title>N0</title>
<path fill="#ffffff" stroke="#2e3436" stroke-width="1.5" d="M358,-180.5C358,-180.5 481,-180.5 481,-180.5 487,-180.5 493,-186.5 493,-192.5 493,-192.5 493,-220.5 493,-220.5 493,-226.5 487,-232.5 481,-232.5 481,-232.5 358,-232.5 358,-232.5 352,-232.5 346,-226.5 346,-220.5 346,-220.5 346,-192.5 346,-192.5 346,-186.5 352,-180.5 358,-180.5"/>
<text text-anchor="middle" x="419.5" y="-222.1" font-family="sans-serif" font-size="8.00" fill="#1c2021">Person</text>
<polyline fill="none" stroke="#2e3436" stroke-width="1.5" points="346,-215.5 493,-215.5 "/>
<text text-anchor="start" x="354" y="-205.1" font-family="sans-serif" font-size="8.00" fill="#1c2021">chauffeurName = &#39;John Brown&#39;</text>
<text text-anchor="start" x="354" y="-196.1" font-family="sans-serif" font-size="8.00" fill="#1c2021">name = &#39;Charlie Sheen&#39;</text>
<text text-anchor="start" x="354" y="-187.1" font-family="sans-serif" font-size="8.00" fill="#1c2021">bornIn = &#39;New York&#39;</text>
</g>
<!-- N1 -->
<g id="node2" class="node"><title>N1</title>
<path fill="#ffffff" stroke="#2e3436" stroke-width="1.5" d="M453.5,-82.5C453.5,-82.5 575.5,-82.5 575.5,-82.5 581.5,-82.5 587.5,-88.5 587.5,-94.5 587.5,-94.5 587.5,-122.5 587.5,-122.5 587.5,-128.5 581.5,-134.5 575.5,-134.5 575.5,-134.5 453.5,-134.5 453.5,-134.5 447.5,-134.5 441.5,-128.5 441.5,-122.5 441.5,-122.5 441.5,-94.5 441.5,-94.5 441.5,-88.5 447.5,-82.5 453.5,-82.5"/>
<text text-anchor="middle" x="514.5" y="-124.1" font-family="sans-serif" font-size="8.00" fill="#1c2021">Person</text>
<polyline fill="none" stroke="#2e3436" stroke-width="1.5" points="441.5,-117.5 587.5,-117.5 "/>
<text text-anchor="start" x="449.5" y="-107.1" font-family="sans-serif" font-size="8.00" fill="#1c2021">chauffeurName = &#39;Bob Brown&#39;</text>
<text text-anchor="start" x="449.5" y="-98.1" font-family="sans-serif" font-size="8.00" fill="#1c2021">name = &#39;Martin Sheen&#39;</text>
<text text-anchor="start" x="449.5" y="-89.1" font-family="sans-serif" font-size="8.00" fill="#1c2021">bornIn = &#39;Ohio&#39;</text>
</g>
<!-- N0&#45;&gt;N1 -->
<g id="edge1" class="edge"><title>N0&#45;&gt;N1</title>
<path fill="none" stroke="#2e3436" stroke-width="2" d="M444.46,-180.277C456.678,-167.93 471.486,-152.966 484.334,-139.984"/>
<polygon fill="#2e3436" stroke="#2e3436" stroke-width="2" points="489.707,-134.554 486.83,-142.259 487.424,-137.572 484.786,-140.237 484.431,-139.885 484.076,-139.534 486.713,-136.868 482.032,-137.511 489.707,-134.554 489.707,-134.554"/>
<text text-anchor="middle" x="486" y="-155.6" font-family="sans-serif" font-size="8.00" fill="#2e3436">FATHER</text>
</g>
<!-- N5 -->
<g id="node3" class="node"><title>N5</title>
<path fill="#ffffff" stroke="#2e3436" stroke-width="1.5" d="M287,-0.5C287,-0.5 358,-0.5 358,-0.5 364,-0.5 370,-6.5 370,-12.5 370,-12.5 370,-24.5 370,-24.5 370,-30.5 364,-36.5 358,-36.5 358,-36.5 287,-36.5 287,-36.5 281,-36.5 275,-30.5 275,-24.5 275,-24.5 275,-12.5 275,-12.5 275,-6.5 281,-0.5 287,-0.5"/>
<text text-anchor="middle" x="322.5" y="-25.6" font-family="sans-serif" font-size="8.00" fill="#1c2021">Movie</text>
<polyline fill="none" stroke="#2e3436" stroke-width="1.5" points="275,-18.5 370,-18.5 "/>
<text text-anchor="start" x="283" y="-7.6" font-family="sans-serif" font-size="8.00" fill="#1c2021">title = &#39;Wall Street&#39;</text>
</g>
<!-- N0&#45;&gt;N5 -->
<g id="edge2" class="edge"><title>N0&#45;&gt;N5</title>
<path fill="none" stroke="#4e9a06" stroke-width="2" d="M406.418,-180.415C387.734,-144.589 353.631,-79.1952 335.175,-43.8039"/>
<polygon fill="#4e9a06" stroke="#4e9a06" stroke-width="2" points="331.485,-36.7286 337.945,-41.818 333.662,-39.8225 335.396,-43.1475 334.953,-43.3787 334.51,-43.6099 332.776,-40.2849 331.96,-44.9393 331.485,-36.7286 331.485,-36.7286"/>
<text text-anchor="middle" x="403" y="-106.6" font-family="sans-serif" font-size="8.00" fill="#4e9a06">ACTED_IN</text>
</g>
<!-- N1&#45;&gt;N5 -->
<g id="edge4" class="edge"><title>N1&#45;&gt;N5</title>
<path fill="none" stroke="#4e9a06" stroke-width="2" d="M494.762,-82.3122C485.869,-72.4868 474.64,-61.9391 462.5,-55 436.632,-40.2141 404.614,-31.506 377.73,-26.419"/>
<polygon fill="#4e9a06" stroke="#4e9a06" stroke-width="2" points="370.292,-25.0782 378.272,-23.0875 374.071,-25.2515 377.762,-25.9169 377.673,-26.4089 377.585,-26.901 373.894,-26.2356 377.074,-29.7304 370.292,-25.0782 370.292,-25.0782"/>
<text text-anchor="middle" x="495" y="-57.6" font-family="sans-serif" font-size="8.00" fill="#4e9a06">ACTED_IN</text>
</g>
<!-- N6 -->
<g id="node4" class="node"><title>N6</title>
<path fill="#ffffff" stroke="#2e3436" stroke-width="1.5" d="M506.5,-0.5C506.5,-0.5 634.5,-0.5 634.5,-0.5 640.5,-0.5 646.5,-6.5 646.5,-12.5 646.5,-12.5 646.5,-24.5 646.5,-24.5 646.5,-30.5 640.5,-36.5 634.5,-36.5 634.5,-36.5 506.5,-36.5 506.5,-36.5 500.5,-36.5 494.5,-30.5 494.5,-24.5 494.5,-24.5 494.5,-12.5 494.5,-12.5 494.5,-6.5 500.5,-0.5 506.5,-0.5"/>
<text text-anchor="middle" x="570.5" y="-25.6" font-family="sans-serif" font-size="8.00" fill="#1c2021">Movie</text>
<polyline fill="none" stroke="#2e3436" stroke-width="1.5" points="494.5,-18.5 646.5,-18.5 "/>
<text text-anchor="start" x="502.5" y="-7.6" font-family="sans-serif" font-size="8.00" fill="#1c2021">title = &#39;The American President&#39;</text>
</g>
<!-- N1&#45;&gt;N6 -->
<g id="edge3" class="edge"><title>N1&#45;&gt;N6</title>
<path fill="none" stroke="#4e9a06" stroke-width="2" d="M530.698,-82.0468C538.547,-69.7118 547.911,-54.9965 555.584,-42.9388"/>
<polygon fill="#4e9a06" stroke="#4e9a06" stroke-width="2" points="559.653,-36.5455 558.474,-44.685 558.061,-39.9777 556.048,-43.1414 555.626,-42.873 555.204,-42.6046 557.218,-39.4408 552.779,-41.061 559.653,-36.5455 559.653,-36.5455"/>
<text text-anchor="middle" x="568" y="-57.6" font-family="sans-serif" font-size="8.00" fill="#4e9a06">ACTED_IN</text>
</g>
<!-- N2 -->
<g id="node5" class="node"><title>N2</title>
<path fill="#ffffff" stroke="#2e3436" stroke-width="1.5" d="M178,-82.5C178,-82.5 301,-82.5 301,-82.5 307,-82.5 313,-88.5 313,-94.5 313,-94.5 313,-122.5 313,-122.5 313,-128.5 307,-134.5 301,-134.5 301,-134.5 178,-134.5 178,-134.5 172,-134.5 166,-128.5 166,-122.5 166,-122.5 166,-94.5 166,-94.5 166,-88.5 172,-82.5 178,-82.5"/>
<text text-anchor="middle" x="239.5" y="-124.1" font-family="sans-serif" font-size="8.00" fill="#1c2021">Person</text>
<polyline fill="none" stroke="#2e3436" stroke-width="1.5" points="166,-117.5 313,-117.5 "/>
<text text-anchor="start" x="174" y="-107.1" font-family="sans-serif" font-size="8.00" fill="#1c2021">bornIn = &#39;New Jersey&#39;</text>
<text text-anchor="start" x="174" y="-98.1" font-family="sans-serif" font-size="8.00" fill="#1c2021">chauffeurName = &#39;John Brown&#39;</text>
<text text-anchor="start" x="174" y="-89.1" font-family="sans-serif" font-size="8.00" fill="#1c2021">name = &#39;Michael Douglas&#39;</text>
</g>
<!-- N2&#45;&gt;N5 -->
<g id="edge6" class="edge"><title>N2&#45;&gt;N5</title>
<path fill="none" stroke="#4e9a06" stroke-width="2" d="M263.507,-82.0468C275.357,-69.4834 289.535,-54.4507 301.022,-42.2717"/>
<polygon fill="#4e9a06" stroke="#4e9a06" stroke-width="2" points="306.423,-36.5455 303.732,-44.3173 304.214,-39.6166 301.641,-42.3447 301.277,-42.0016 300.913,-41.6585 303.486,-38.9305 298.822,-39.6859 306.423,-36.5455 306.423,-36.5455"/>
<text text-anchor="middle" x="309" y="-57.6" font-family="sans-serif" font-size="8.00" fill="#4e9a06">ACTED_IN</text>
</g>
<!-- N2&#45;&gt;N6 -->
<g id="edge5" class="edge"><title>N2&#45;&gt;N6</title>
<path fill="none" stroke="#4e9a06" stroke-width="2" d="M313.267,-84.1613C344.378,-74.6336 381.066,-63.8084 414.5,-55 437.888,-48.8382 463.414,-42.761 486.918,-37.4237"/>
<polygon fill="#4e9a06" stroke="#4e9a06" stroke-width="2" points="494.473,-35.7176 487.9,-40.6619 490.925,-37.0314 487.267,-37.8575 487.157,-37.3698 487.047,-36.8821 490.705,-36.056 486.413,-34.0777 494.473,-35.7176 494.473,-35.7176"/>
<text text-anchor="middle" x="435" y="-57.6" font-family="sans-serif" font-size="8.00" fill="#4e9a06">ACTED_IN</text>
</g>
<!-- N3 -->
<g id="node6" class="node"><title>N3</title>
<path fill="#ffffff" stroke="#2e3436" stroke-width="1.5" d="M12,-82.5C12,-82.5 125,-82.5 125,-82.5 131,-82.5 137,-88.5 137,-94.5 137,-94.5 137,-122.5 137,-122.5 137,-128.5 131,-134.5 125,-134.5 125,-134.5 12,-134.5 12,-134.5 6,-134.5 0,-128.5 0,-122.5 0,-122.5 0,-94.5 0,-94.5 0,-88.5 6,-82.5 12,-82.5"/>
<text text-anchor="middle" x="68.5" y="-124.1" font-family="sans-serif" font-size="8.00" fill="#1c2021">Person</text>
<polyline fill="none" stroke="#2e3436" stroke-width="1.5" points="0,-117.5 137,-117.5 "/>
<text text-anchor="start" x="8" y="-107.1" font-family="sans-serif" font-size="8.00" fill="#1c2021">chauffeurName = &#39;Bill White&#39;</text>
<text text-anchor="start" x="8" y="-98.1" font-family="sans-serif" font-size="8.00" fill="#1c2021">name = &#39;Oliver Stone&#39;</text>
<text text-anchor="start" x="8" y="-89.1" font-family="sans-serif" font-size="8.00" fill="#1c2021">bornIn = &#39;New York&#39;</text>
</g>
<!-- N3&#45;&gt;N5 -->
<g id="edge7" class="edge"><title>N3&#45;&gt;N5</title>
<path fill="none" stroke="#4e9a06" stroke-width="2" d="M137.236,-83.6859C178.006,-69.5608 229.005,-51.8921 267.167,-38.6704"/>
<polygon fill="#4e9a06" stroke="#4e9a06" stroke-width="2" points="274.622,-36.0877 268.64,-41.732 271.242,-37.7878 267.699,-39.0154 267.535,-38.543 267.372,-38.0705 270.915,-36.8429 266.43,-35.3539 274.622,-36.0877 274.622,-36.0877"/>
<text text-anchor="middle" x="239" y="-57.6" font-family="sans-serif" font-size="8.00" fill="#4e9a06">ACTED_IN</text>
</g>
<!-- N4 -->
<g id="node7" class="node"><title>N4</title>
<path fill="#ffffff" stroke="#2e3436" stroke-width="1.5" d="M629,-82.5C629,-82.5 748,-82.5 748,-82.5 754,-82.5 760,-88.5 760,-94.5 760,-94.5 760,-122.5 760,-122.5 760,-128.5 754,-134.5 748,-134.5 748,-134.5 629,-134.5 629,-134.5 623,-134.5 617,-128.5 617,-122.5 617,-122.5 617,-94.5 617,-94.5 617,-88.5 623,-82.5 629,-82.5"/>
<text text-anchor="middle" x="688.5" y="-124.1" font-family="sans-serif" font-size="8.00" fill="#1c2021">Person</text>
<polyline fill="none" stroke="#2e3436" stroke-width="1.5" points="617,-117.5 760,-117.5 "/>
<text text-anchor="start" x="625" y="-107.1" font-family="sans-serif" font-size="8.00" fill="#1c2021">chauffeurName = &#39;Ted Green&#39;</text>
<text text-anchor="start" x="625" y="-98.1" font-family="sans-serif" font-size="8.00" fill="#1c2021">name = &#39;Rob Reiner&#39;</text>
<text text-anchor="start" x="625" y="-89.1" font-family="sans-serif" font-size="8.00" fill="#1c2021">bornIn = &#39;New York&#39;</text>
</g>
<!-- N4&#45;&gt;N6 -->
<g id="edge8" class="edge"><title>N4&#45;&gt;N6</title>
<path fill="none" stroke="#4e9a06" stroke-width="2" d="M654.686,-82.2827C637.371,-69.3697 616.493,-53.7996 599.86,-41.3956"/>
<polygon fill="#4e9a06" stroke="#4e9a06" stroke-width="2" points="593.479,-36.637 601.509,-38.4152 596.784,-38.478 599.79,-40.7199 599.491,-41.1207 599.192,-41.5215 596.186,-39.2796 597.474,-43.8262 593.479,-36.637 593.479,-36.637"/>
<text text-anchor="middle" x="650" y="-57.6" font-family="sans-serif" font-size="8.00" fill="#4e9a06">ACTED_IN</text>
</g>
</g>
</svg>
