<?xml version="1.0" encoding="UTF-8" standalone="no"?>
<!DOCTYPE svg PUBLIC "-//W3C//DTD SVG 1.1//EN"
 "http://www.w3.org/Graphics/SVG/1.1/DTD/svg11.dtd">
<!-- Generated by graphviz version 2.38.0 (20140413.2041)
 -->
<!-- Title: g Pages: 1 -->
<svg width="504pt" height="160pt"
 viewBox="0.00 0.00 504.00 159.84" xmlns="http://www.w3.org/2000/svg" xmlns:xlink="http://www.w3.org/1999/xlink">
<g id="graph0" class="graph" transform="scale(0.764795 0.764795) rotate(0) translate(4 205)">
<title>g</title>
<polygon fill="white" stroke="none" points="-4,4 -4,-205 655,-205 655,4 -4,4"/>
<!-- N0 -->
<g id="node1" class="node"><title>N0</title>
<path fill="#ffffff" stroke="#2e3436" stroke-width="1.5" d="M322,-164.5C322,-164.5 416,-164.5 416,-164.5 422,-164.5 428,-170.5 428,-176.5 428,-176.5 428,-188.5 428,-188.5 428,-194.5 422,-200.5 416,-200.5 416,-200.5 322,-200.5 322,-200.5 316,-200.5 310,-194.5 310,-188.5 310,-188.5 310,-176.5 310,-176.5 310,-170.5 316,-164.5 322,-164.5"/>
<text text-anchor="middle" x="369" y="-189.6" font-family="sans-serif" font-size="8.00" fill="#1c2021">Person</text>
<polyline fill="none" stroke="#2e3436" stroke-width="1.5" points="310,-182.5 428,-182.5 "/>
<text text-anchor="start" x="318" y="-171.6" font-family="sans-serif" font-size="8.00" fill="#1c2021">name = &#39;Charlie Sheen&#39;</text>
</g>
<!-- N1 -->
<g id="node2" class="node"><title>N1</title>
<path fill="#ffffff" stroke="#2e3436" stroke-width="1.5" d="M407,-82.5C407,-82.5 497,-82.5 497,-82.5 503,-82.5 509,-88.5 509,-94.5 509,-94.5 509,-106.5 509,-106.5 509,-112.5 503,-118.5 497,-118.5 497,-118.5 407,-118.5 407,-118.5 401,-118.5 395,-112.5 395,-106.5 395,-106.5 395,-94.5 395,-94.5 395,-88.5 401,-82.5 407,-82.5"/>
<text text-anchor="middle" x="452" y="-107.6" font-family="sans-serif" font-size="8.00" fill="#1c2021">Person</text>
<polyline fill="none" stroke="#2e3436" stroke-width="1.5" points="395,-100.5 509,-100.5 "/>
<text text-anchor="start" x="403" y="-89.6" font-family="sans-serif" font-size="8.00" fill="#1c2021">name = &#39;Martin Sheen&#39;</text>
</g>
<!-- N0&#45;&gt;N1 -->
<g id="edge1" class="edge"><title>N0&#45;&gt;N1</title>
<path fill="none" stroke="#2e3436" stroke-width="2" d="M387.01,-164.141C399.275,-152.319 415.622,-136.564 428.852,-123.811"/>
<polygon fill="#2e3436" stroke="#2e3436" stroke-width="2" points="434.311,-118.55 431.253,-126.185 431.958,-121.513 429.257,-124.115 428.911,-123.755 428.564,-123.395 431.264,-120.793 426.568,-121.325 434.311,-118.55 434.311,-118.55"/>
<text text-anchor="middle" x="428.5" y="-139.6" font-family="sans-serif" font-size="8.00" fill="#2e3436">FATHER</text>
</g>
<!-- N5 -->
<g id="node3" class="node"><title>N5</title>
<path fill="#ffffff" stroke="#2e3436" stroke-width="1.5" d="M243.5,-0.5C243.5,-0.5 314.5,-0.5 314.5,-0.5 320.5,-0.5 326.5,-6.5 326.5,-12.5 326.5,-12.5 326.5,-24.5 326.5,-24.5 326.5,-30.5 320.5,-36.5 314.5,-36.5 314.5,-36.5 243.5,-36.5 243.5,-36.5 237.5,-36.5 231.5,-30.5 231.5,-24.5 231.5,-24.5 231.5,-12.5 231.5,-12.5 231.5,-6.5 237.5,-0.5 243.5,-0.5"/>
<text text-anchor="middle" x="279" y="-25.6" font-family="sans-serif" font-size="8.00" fill="#1c2021">Movie</text>
<polyline fill="none" stroke="#2e3436" stroke-width="1.5" points="231.5,-18.5 326.5,-18.5 "/>
<text text-anchor="start" x="239.5" y="-7.6" font-family="sans-serif" font-size="8.00" fill="#1c2021">title = &#39;Wall Street&#39;</text>
</g>
<!-- N0&#45;&gt;N5 -->
<g id="edge2" class="edge"><title>N0&#45;&gt;N5</title>
<path fill="none" stroke="#4e9a06" stroke-width="2" d="M359.539,-164.469C343.443,-135.498 310.695,-76.5503 292.301,-43.4426"/>
<polygon fill="#4e9a06" stroke="#4e9a06" stroke-width="2" points="288.606,-36.79 295.198,-41.7072 290.864,-39.8253 292.685,-43.1034 292.248,-43.3462 291.811,-43.5891 289.99,-40.311 289.298,-44.9853 288.606,-36.79 288.606,-36.79"/>
<text text-anchor="middle" x="353.5" y="-98.6" font-family="sans-serif" font-size="8.00" fill="#4e9a06">ACTED_IN</text>
</g>
<!-- N1&#45;&gt;N5 -->
<g id="edge4" class="edge"><title>N1&#45;&gt;N5</title>
<path fill="none" stroke="#4e9a06" stroke-width="2" d="M442.021,-82.4146C435.694,-73.0111 426.694,-61.8861 416,-55 391.651,-39.3219 360.682,-30.5553 334.351,-25.6593"/>
<polygon fill="#4e9a06" stroke="#4e9a06" stroke-width="2" points="326.699,-24.3197 334.669,-22.2888 330.479,-24.474 334.173,-25.1207 334.087,-25.6132 334.001,-26.1057 330.307,-25.459 333.505,-28.9377 326.699,-24.3197 326.699,-24.3197"/>
<text text-anchor="middle" x="447.5" y="-57.6" font-family="sans-serif" font-size="8.00" fill="#4e9a06">ACTED_IN</text>
</g>
<!-- N6 -->
<g id="node4" class="node"><title>N6</title>
<path fill="#ffffff" stroke="#2e3436" stroke-width="1.5" d="M460,-0.5C460,-0.5 588,-0.5 588,-0.5 594,-0.5 600,-6.5 600,-12.5 600,-12.5 600,-24.5 600,-24.5 600,-30.5 594,-36.5 588,-36.5 588,-36.5 460,-36.5 460,-36.5 454,-36.5 448,-30.5 448,-24.5 448,-24.5 448,-12.5 448,-12.5 448,-6.5 454,-0.5 460,-0.5"/>
<text text-anchor="middle" x="524" y="-25.6" font-family="sans-serif" font-size="8.00" fill="#1c2021">Movie</text>
<polyline fill="none" stroke="#2e3436" stroke-width="1.5" points="448,-18.5 600,-18.5 "/>
<text text-anchor="start" x="456" y="-7.6" font-family="sans-serif" font-size="8.00" fill="#1c2021">title = &#39;The American President&#39;</text>
</g>
<!-- N1&#45;&gt;N6 -->
<g id="edge3" class="edge"><title>N1&#45;&gt;N6</title>
<path fill="none" stroke="#4e9a06" stroke-width="2" d="M472.553,-82.1511C478.724,-76.5894 485.35,-70.2475 491,-64 496.927,-57.4459 502.85,-49.8646 508.009,-42.8375"/>
<polygon fill="#4e9a06" stroke="#4e9a06" stroke-width="2" points="512.51,-36.5853 510.867,-44.644 510.725,-39.9209 508.534,-42.9643 508.128,-42.6722 507.722,-42.3801 509.913,-39.3366 505.389,-40.7004 512.51,-36.5853 512.51,-36.5853"/>
<text text-anchor="middle" x="517.5" y="-57.6" font-family="sans-serif" font-size="8.00" fill="#4e9a06">ACTED_IN</text>
</g>
<!-- N2 -->
<g id="node5" class="node"><title>N2</title>
<path fill="#ffffff" stroke="#2e3436" stroke-width="1.5" d="M151.5,-82.5C151.5,-82.5 254.5,-82.5 254.5,-82.5 260.5,-82.5 266.5,-88.5 266.5,-94.5 266.5,-94.5 266.5,-106.5 266.5,-106.5 266.5,-112.5 260.5,-118.5 254.5,-118.5 254.5,-118.5 151.5,-118.5 151.5,-118.5 145.5,-118.5 139.5,-112.5 139.5,-106.5 139.5,-106.5 139.5,-94.5 139.5,-94.5 139.5,-88.5 145.5,-82.5 151.5,-82.5"/>
<text text-anchor="middle" x="203" y="-107.6" font-family="sans-serif" font-size="8.00" fill="#1c2021">Person</text>
<polyline fill="none" stroke="#2e3436" stroke-width="1.5" points="139.5,-100.5 266.5,-100.5 "/>
<text text-anchor="start" x="147.5" y="-89.6" font-family="sans-serif" font-size="8.00" fill="#1c2021">name = &#39;Michael Douglas&#39;</text>
</g>
<!-- N2&#45;&gt;N5 -->
<g id="edge6" class="edge"><title>N2&#45;&gt;N5</title>
<path fill="none" stroke="#4e9a06" stroke-width="2" d="M219.491,-82.1412C230.621,-70.425 245.423,-54.8446 257.479,-42.1535"/>
<polygon fill="#4e9a06" stroke="#4e9a06" stroke-width="2" points="262.802,-36.5501 260.084,-44.3122 260.582,-39.6132 257.999,-42.332 257.637,-41.9876 257.274,-41.6432 259.857,-38.9245 255.19,-39.6631 262.802,-36.5501 262.802,-36.5501"/>
<text text-anchor="middle" x="264.5" y="-57.6" font-family="sans-serif" font-size="8.00" fill="#4e9a06">ACTED_IN</text>
</g>
<!-- N2&#45;&gt;N6 -->
<g id="edge5" class="edge"><title>N2&#45;&gt;N6</title>
<path fill="none" stroke="#4e9a06" stroke-width="2" d="M263.97,-82.4373C295.033,-73.9017 333.448,-63.5871 368,-55 391.35,-49.1968 416.76,-43.2562 440.162,-37.9357"/>
<polygon fill="#4e9a06" stroke="#4e9a06" stroke-width="2" points="447.685,-36.231 441.116,-41.1802 444.138,-37.5474 440.481,-38.3763 440.37,-37.8886 440.26,-37.401 443.917,-36.5722 439.624,-34.5971 447.685,-36.231 447.685,-36.231"/>
<text text-anchor="middle" x="388.5" y="-57.6" font-family="sans-serif" font-size="8.00" fill="#4e9a06">ACTED_IN</text>
</g>
<!-- N3 -->
<g id="node6" class="node"><title>N3</title>
<path fill="#ffffff" stroke="#2e3436" stroke-width="1.5" d="M12,-82.5C12,-82.5 98,-82.5 98,-82.5 104,-82.5 110,-88.5 110,-94.5 110,-94.5 110,-106.5 110,-106.5 110,-112.5 104,-118.5 98,-118.5 98,-118.5 12,-118.5 12,-118.5 6,-118.5 0,-112.5 0,-106.5 0,-106.5 0,-94.5 0,-94.5 0,-88.5 6,-82.5 12,-82.5"/>
<text text-anchor="middle" x="55" y="-107.6" font-family="sans-serif" font-size="8.00" fill="#1c2021">Person</text>
<polyline fill="none" stroke="#2e3436" stroke-width="1.5" points="0,-100.5 110,-100.5 "/>
<text text-anchor="start" x="8" y="-89.6" font-family="sans-serif" font-size="8.00" fill="#1c2021">name = &#39;Oliver Stone&#39;</text>
</g>
<!-- N3&#45;&gt;N5 -->
<g id="edge7" class="edge"><title>N3&#45;&gt;N5</title>
<path fill="none" stroke="#a40000" stroke-width="2" d="M102.779,-82.4361C138.314,-69.745 186.877,-52.4012 224.024,-39.1341"/>
<polygon fill="#a40000" stroke="#a40000" stroke-width="2" points="231.295,-36.5377 225.367,-42.2386 227.931,-38.2698 224.4,-39.5311 224.231,-39.0602 224.063,-38.5894 227.595,-37.3281 223.096,-35.8819 231.295,-36.5377 231.295,-36.5377"/>
<text text-anchor="middle" x="195" y="-57.6" font-family="sans-serif" font-size="8.00" fill="#a40000">DIRECTED</text>
</g>
<!-- N4 -->
<g id="node7" class="node"><title>N4</title>
<path fill="#ffffff" stroke="#2e3436" stroke-width="1.5" d="M559,-82.5C559,-82.5 639,-82.5 639,-82.5 645,-82.5 651,-88.5 651,-94.5 651,-94.5 651,-106.5 651,-106.5 651,-112.5 645,-118.5 639,-118.5 639,-118.5 559,-118.5 559,-118.5 553,-118.5 547,-112.5 547,-106.5 547,-106.5 547,-94.5 547,-94.5 547,-88.5 553,-82.5 559,-82.5"/>
<text text-anchor="middle" x="599" y="-107.6" font-family="sans-serif" font-size="8.00" fill="#1c2021">Person</text>
<polyline fill="none" stroke="#2e3436" stroke-width="1.5" points="547,-100.5 651,-100.5 "/>
<text text-anchor="start" x="555" y="-89.6" font-family="sans-serif" font-size="8.00" fill="#1c2021">name = &#39;Rob Reiner&#39;</text>
</g>
<!-- N4&#45;&gt;N6 -->
<g id="edge8" class="edge"><title>N4&#45;&gt;N6</title>
<path fill="none" stroke="#a40000" stroke-width="2" d="M582.726,-82.1412C571.742,-70.425 557.136,-54.8446 545.238,-42.1535"/>
<polygon fill="#a40000" stroke="#a40000" stroke-width="2" points="539.984,-36.5501 547.576,-39.7133 542.914,-38.9439 545.479,-41.6797 545.114,-42.0217 544.749,-42.3636 542.184,-39.6278 542.652,-44.33 539.984,-36.5501 539.984,-36.5501"/>
<text text-anchor="middle" x="584" y="-57.6" font-family="sans-serif" font-size="8.00" fill="#a40000">DIRECTED</text>
</g>
</g>
</svg>
