<?xml version="1.0" encoding="UTF-8" standalone="no"?>
<!DOCTYPE svg PUBLIC "-//W3C//DTD SVG 1.1//EN"
 "http://www.w3.org/Graphics/SVG/1.1/DTD/svg11.dtd">
<!-- Generated by graphviz version 2.38.0 (20140413.2041)
 -->
<!-- Title: g Pages: 1 -->
<svg width="79pt" height="209pt"
 viewBox="0.00 0.00 79.00 209.00" xmlns="http://www.w3.org/2000/svg" xmlns:xlink="http://www.w3.org/1999/xlink">
<g id="graph0" class="graph" transform="scale(1 1) rotate(0) translate(4 205)">
<title>g</title>
<polygon fill="white" stroke="none" points="-4,4 -4,-205 75,-205 75,4 -4,4"/>
<!-- N0 -->
<g id="node1" class="node"><title>N0</title>
<path fill="#ffffff" stroke="#2e3436" stroke-width="1.5" d="M12,-164.5C12,-164.5 59,-164.5 59,-164.5 65,-164.5 71,-170.5 71,-176.5 71,-176.5 71,-188.5 71,-188.5 71,-194.5 65,-200.5 59,-200.5 59,-200.5 12,-200.5 12,-200.5 6,-200.5 0,-194.5 0,-188.5 0,-188.5 0,-176.5 0,-176.5 0,-170.5 6,-164.5 12,-164.5"/>
<text text-anchor="start" x="8" y="-189.6" font-family="sans-serif" font-size="8.00" fill="#1c2021">name = &#39;A&#39;</text>
<text text-anchor="start" x="8" y="-180.6" font-family="sans-serif" font-size="8.00" fill="#1c2021">age = 34</text>
<text text-anchor="start" x="8" y="-171.6" font-family="sans-serif" font-size="8.00" fill="#1c2021">length = 170</text>
</g>
<!-- N1 -->
<g id="node2" class="node"><title>N1</title>
<path fill="#ffffff" stroke="#2e3436" stroke-width="1.5" d="M15.5,-82.5C15.5,-82.5 55.5,-82.5 55.5,-82.5 61.5,-82.5 67.5,-88.5 67.5,-94.5 67.5,-94.5 67.5,-106.5 67.5,-106.5 67.5,-112.5 61.5,-118.5 55.5,-118.5 55.5,-118.5 15.5,-118.5 15.5,-118.5 9.5,-118.5 3.5,-112.5 3.5,-106.5 3.5,-106.5 3.5,-94.5 3.5,-94.5 3.5,-88.5 9.5,-82.5 15.5,-82.5"/>
<text text-anchor="start" x="11.5" y="-103.1" font-family="sans-serif" font-size="8.00" fill="#1c2021">name = &#39;B&#39;</text>
<text text-anchor="start" x="11.5" y="-94.1" font-family="sans-serif" font-size="8.00" fill="#1c2021">age = 34</text>
</g>
<!-- N0&#45;&gt;N1 -->
<g id="edge1" class="edge"><title>N0&#45;&gt;N1</title>
<path fill="none" stroke="#2e3436" stroke-width="2" d="M35.5,-164.141C35.5,-153.058 35.5,-138.518 35.5,-126.236"/>
<polygon fill="#2e3436" stroke="#2e3436" stroke-width="2" points="35.5,-118.55 38.8751,-126.05 36,-122.3 36.0001,-126.05 35.5001,-126.05 35.0001,-126.05 35,-122.3 32.1251,-126.05 35.5,-118.55 35.5,-118.55"/>
<text text-anchor="middle" x="51" y="-139.6" font-family="sans-serif" font-size="8.00" fill="#2e3436">KNOWS</text>
</g>
<!-- N2 -->
<g id="node3" class="node"><title>N2</title>
<path fill="#ffffff" stroke="#2e3436" stroke-width="1.5" d="M12,-0.5C12,-0.5 59,-0.5 59,-0.5 65,-0.5 71,-6.5 71,-12.5 71,-12.5 71,-24.5 71,-24.5 71,-30.5 65,-36.5 59,-36.5 59,-36.5 12,-36.5 12,-36.5 6,-36.5 0,-30.5 0,-24.5 0,-24.5 0,-12.5 0,-12.5 0,-6.5 6,-0.5 12,-0.5"/>
<text text-anchor="start" x="8" y="-25.6" font-family="sans-serif" font-size="8.00" fill="#1c2021">name = &#39;C&#39;</text>
<text text-anchor="start" x="8" y="-16.6" font-family="sans-serif" font-size="8.00" fill="#1c2021">age = 32</text>
<text text-anchor="start" x="8" y="-7.6" font-family="sans-serif" font-size="8.00" fill="#1c2021">length = 185</text>
</g>
<!-- N1&#45;&gt;N2 -->
<g id="edge2" class="edge"><title>N1&#45;&gt;N2</title>
<path fill="none" stroke="#2e3436" stroke-width="2" d="M35.5,-82.1412C35.5,-71.0583 35.5,-56.5177 35.5,-44.2358"/>
<polygon fill="#2e3436" stroke="#2e3436" stroke-width="2" points="35.5,-36.5501 38.8751,-44.0501 36,-40.3001 36.0001,-44.0501 35.5001,-44.0501 35.0001,-44.0501 35,-40.3001 32.1251,-44.0501 35.5,-36.5501 35.5,-36.5501"/>
<text text-anchor="middle" x="51" y="-57.6" font-family="sans-serif" font-size="8.00" fill="#2e3436">KNOWS</text>
</g>
</g>
</svg>
