<?xml version="1.0" encoding="UTF-8" standalone="no"?>
<!DOCTYPE svg PUBLIC "-//W3C//DTD SVG 1.1//EN"
 "http://www.w3.org/Graphics/SVG/1.1/DTD/svg11.dtd">
<!-- Generated by graphviz version 2.38.0 (20140413.2041)
 -->
<!-- Title: g Pages: 1 -->
<svg width="321pt" height="209pt"
 viewBox="0.00 0.00 321.00 209.00" xmlns="http://www.w3.org/2000/svg" xmlns:xlink="http://www.w3.org/1999/xlink">
<g id="graph0" class="graph" transform="scale(1 1) rotate(0) translate(4 205)">
<title>g</title>
<polygon fill="white" stroke="none" points="-4,4 -4,-205 317,-205 317,4 -4,4"/>
<!-- N0 -->
<g id="node1" class="node"><title>N0</title>
<path fill="#ffffff" stroke="#2e3436" stroke-width="1.5" d="M127.5,-164.5C127.5,-164.5 191.5,-164.5 191.5,-164.5 197.5,-164.5 203.5,-170.5 203.5,-176.5 203.5,-176.5 203.5,-188.5 203.5,-188.5 203.5,-194.5 197.5,-200.5 191.5,-200.5 191.5,-200.5 127.5,-200.5 127.5,-200.5 121.5,-200.5 115.5,-194.5 115.5,-188.5 115.5,-188.5 115.5,-176.5 115.5,-176.5 115.5,-170.5 121.5,-164.5 127.5,-164.5"/>
<text text-anchor="start" x="123.5" y="-180.6" font-family="sans-serif" font-size="8.00" fill="#1c2021">name = &#39;Anders&#39;</text>
</g>
<!-- N3 -->
<g id="node2" class="node"><title>N3</title>
<path fill="#ffffff" stroke="#2e3436" stroke-width="1.5" d="M12,-82.5C12,-82.5 77,-82.5 77,-82.5 83,-82.5 89,-88.5 89,-94.5 89,-94.5 89,-106.5 89,-106.5 89,-112.5 83,-118.5 77,-118.5 77,-118.5 12,-118.5 12,-118.5 6,-118.5 0,-112.5 0,-106.5 0,-106.5 0,-94.5 0,-94.5 0,-88.5 6,-82.5 12,-82.5"/>
<text text-anchor="start" x="8" y="-98.6" font-family="sans-serif" font-size="8.00" fill="#1c2021">name = &#39;Dilshad&#39;</text>
</g>
<!-- N0&#45;&gt;N3 -->
<g id="edge1" class="edge"><title>N0&#45;&gt;N3</title>
<path fill="none" stroke="#2e3436" stroke-width="2" d="M134.83,-164.338C117.549,-152.316 94.3179,-136.156 75.7428,-123.234"/>
<polygon fill="#2e3436" stroke="#2e3436" stroke-width="2" points="69.1296,-118.634 77.2138,-120.146 72.4935,-120.365 75.5719,-122.506 75.2864,-122.917 75.0009,-123.327 71.9225,-121.186 73.359,-125.687 69.1296,-118.634 69.1296,-118.634"/>
<text text-anchor="middle" x="121" y="-139.6" font-family="sans-serif" font-size="8.00" fill="#2e3436">KNOWS</text>
</g>
<!-- N2 -->
<g id="node3" class="node"><title>N2</title>
<path fill="#ffffff" stroke="#2e3436" stroke-width="1.5" d="M130,-82.5C130,-82.5 189,-82.5 189,-82.5 195,-82.5 201,-88.5 201,-94.5 201,-94.5 201,-106.5 201,-106.5 201,-112.5 195,-118.5 189,-118.5 189,-118.5 130,-118.5 130,-118.5 124,-118.5 118,-112.5 118,-106.5 118,-106.5 118,-94.5 118,-94.5 118,-88.5 124,-82.5 130,-82.5"/>
<text text-anchor="start" x="126" y="-98.6" font-family="sans-serif" font-size="8.00" fill="#1c2021">name = &#39;Cesar&#39;</text>
</g>
<!-- N0&#45;&gt;N2 -->
<g id="edge2" class="edge"><title>N0&#45;&gt;N2</title>
<path fill="none" stroke="#2e3436" stroke-width="2" d="M159.5,-164.141C159.5,-153.058 159.5,-138.518 159.5,-126.236"/>
<polygon fill="#2e3436" stroke="#2e3436" stroke-width="2" points="159.5,-118.55 162.875,-126.05 160,-122.3 160,-126.05 159.5,-126.05 159,-126.05 159,-122.3 156.125,-126.05 159.5,-118.55 159.5,-118.55"/>
<text text-anchor="middle" x="175" y="-139.6" font-family="sans-serif" font-size="8.00" fill="#2e3436">KNOWS</text>
</g>
<!-- N1 -->
<g id="node4" class="node"><title>N1</title>
<path fill="#ffffff" stroke="#2e3436" stroke-width="1.5" d="M242,-82.5C242,-82.5 301,-82.5 301,-82.5 307,-82.5 313,-88.5 313,-94.5 313,-94.5 313,-106.5 313,-106.5 313,-112.5 307,-118.5 301,-118.5 301,-118.5 242,-118.5 242,-118.5 236,-118.5 230,-112.5 230,-106.5 230,-106.5 230,-94.5 230,-94.5 230,-88.5 236,-82.5 242,-82.5"/>
<text text-anchor="start" x="238" y="-98.6" font-family="sans-serif" font-size="8.00" fill="#1c2021">name = &#39;Becky&#39;</text>
</g>
<!-- N0&#45;&gt;N1 -->
<g id="edge3" class="edge"><title>N0&#45;&gt;N1</title>
<path fill="none" stroke="#2e3436" stroke-width="2" d="M183.527,-164.338C200.357,-152.316 222.982,-136.156 241.072,-123.234"/>
<polygon fill="#2e3436" stroke="#2e3436" stroke-width="2" points="247.513,-118.634 243.372,-125.739 244.752,-121.22 241.701,-123.4 241.41,-122.993 241.119,-122.586 244.171,-120.406 239.448,-120.247 247.513,-118.634 247.513,-118.634"/>
<text text-anchor="middle" x="235" y="-139.6" font-family="sans-serif" font-size="8.00" fill="#2e3436">KNOWS</text>
</g>
<!-- N5 -->
<g id="node6" class="node"><title>N5</title>
<path fill="#ffffff" stroke="#2e3436" stroke-width="1.5" d="M17,-0.5C17,-0.5 72,-0.5 72,-0.5 78,-0.5 84,-6.5 84,-12.5 84,-12.5 84,-24.5 84,-24.5 84,-30.5 78,-36.5 72,-36.5 72,-36.5 17,-36.5 17,-36.5 11,-36.5 5,-30.5 5,-24.5 5,-24.5 5,-12.5 5,-12.5 5,-6.5 11,-0.5 17,-0.5"/>
<text text-anchor="start" x="13" y="-16.6" font-family="sans-serif" font-size="8.00" fill="#1c2021">name = &#39;Filipa&#39;</text>
</g>
<!-- N3&#45;&gt;N5 -->
<g id="edge6" class="edge"><title>N3&#45;&gt;N5</title>
<path fill="none" stroke="#2e3436" stroke-width="2" d="M44.5,-82.1412C44.5,-71.0583 44.5,-56.5177 44.5,-44.2358"/>
<polygon fill="#2e3436" stroke="#2e3436" stroke-width="2" points="44.5,-36.5501 47.8751,-44.0501 45,-40.3001 45.0001,-44.0501 44.5001,-44.0501 44.0001,-44.0501 44,-40.3001 41.1251,-44.0501 44.5,-36.5501 44.5,-36.5501"/>
<text text-anchor="middle" x="60" y="-57.6" font-family="sans-serif" font-size="8.00" fill="#2e3436">KNOWS</text>
</g>
<!-- N4 -->
<g id="node5" class="node"><title>N4</title>
<path fill="#ffffff" stroke="#2e3436" stroke-width="1.5" d="M171,-0.5C171,-0.5 236,-0.5 236,-0.5 242,-0.5 248,-6.5 248,-12.5 248,-12.5 248,-24.5 248,-24.5 248,-30.5 242,-36.5 236,-36.5 236,-36.5 171,-36.5 171,-36.5 165,-36.5 159,-30.5 159,-24.5 159,-24.5 159,-12.5 159,-12.5 159,-6.5 165,-0.5 171,-0.5"/>
<text text-anchor="start" x="167" y="-16.6" font-family="sans-serif" font-size="8.00" fill="#1c2021">name = &#39;George&#39;</text>
</g>
<!-- N2&#45;&gt;N4 -->
<g id="edge5" class="edge"><title>N2&#45;&gt;N4</title>
<path fill="none" stroke="#2e3436" stroke-width="2" d="M169.047,-82.1412C175.317,-70.7416 183.599,-55.6839 190.471,-43.1887"/>
<polygon fill="#2e3436" stroke="#2e3436" stroke-width="2" points="194.122,-36.5501 193.465,-44.7482 192.753,-40.0769 190.946,-43.3627 190.508,-43.1217 190.07,-42.8808 191.877,-39.595 187.551,-41.4952 194.122,-36.5501 194.122,-36.5501"/>
<text text-anchor="middle" x="199" y="-57.6" font-family="sans-serif" font-size="8.00" fill="#2e3436">KNOWS</text>
</g>
<!-- N1&#45;&gt;N4 -->
<g id="edge4" class="edge"><title>N1&#45;&gt;N4</title>
<path fill="none" stroke="#2e3436" stroke-width="2" d="M256.745,-82.1412C246.876,-70.5305 233.781,-55.125 223.048,-42.4972"/>
<polygon fill="#2e3436" stroke="#2e3436" stroke-width="2" points="217.993,-36.5501 225.422,-40.0788 220.802,-39.0836 223.231,-41.9408 222.85,-42.2647 222.469,-42.5885 220.04,-39.7312 220.278,-44.4505 217.993,-36.5501 217.993,-36.5501"/>
<text text-anchor="middle" x="256" y="-57.6" font-family="sans-serif" font-size="8.00" fill="#2e3436">KNOWS</text>
</g>
</g>
</svg>
