<?xml version="1.0" encoding="UTF-8" standalone="no"?>
<!DOCTYPE svg PUBLIC "-//W3C//DTD SVG 1.1//EN"
 "http://www.w3.org/Graphics/SVG/1.1/DTD/svg11.dtd">
<!-- Generated by graphviz version 2.38.0 (20140413.2041)
 -->
<!-- Title: g Pages: 1 -->
<svg width="504pt" height="198pt"
 viewBox="0.00 0.00 504.00 197.70" xmlns="http://www.w3.org/2000/svg" xmlns:xlink="http://www.w3.org/1999/xlink">
<g id="graph0" class="graph" transform="scale(0.886544 0.886544) rotate(0) translate(4 219)">
<title>g</title>
<polygon fill="white" stroke="none" points="-4,4 -4,-219 564.5,-219 564.5,4 -4,4"/>
<!-- N0 -->
<g id="node1" class="node"><title>N0</title>
<path fill="#ffffff" stroke="#2e3436" stroke-width="1.5" d="M12,-171.5C12,-171.5 72,-171.5 72,-171.5 78,-171.5 84,-177.5 84,-183.5 84,-183.5 84,-202.5 84,-202.5 84,-208.5 78,-214.5 72,-214.5 72,-214.5 12,-214.5 12,-214.5 6,-214.5 0,-208.5 0,-202.5 0,-202.5 0,-183.5 0,-183.5 0,-177.5 6,-171.5 12,-171.5"/>
<text text-anchor="middle" x="42" y="-204.1" font-family="sans-serif" font-size="8.00" fill="#1c2021">Scientist</text>
<polyline fill="none" stroke="#2e3436" stroke-width="1.5" points="0,-197.5 84,-197.5 "/>
<text text-anchor="start" x="8" y="-187.1" font-family="sans-serif" font-size="8.00" fill="#1c2021">name = &#39;Liskov&#39;</text>
<text text-anchor="start" x="8" y="-178.1" font-family="sans-serif" font-size="8.00" fill="#1c2021">born = 1939</text>
</g>
<!-- N2 -->
<g id="node2" class="node"><title>N2</title>
<path fill="#ffffff" stroke="#2e3436" stroke-width="1.5" d="M69,-0.5C69,-0.5 181,-0.5 181,-0.5 187,-0.5 193,-6.5 193,-12.5 193,-12.5 193,-24.5 193,-24.5 193,-30.5 187,-36.5 181,-36.5 181,-36.5 69,-36.5 69,-36.5 63,-36.5 57,-30.5 57,-24.5 57,-24.5 57,-12.5 57,-12.5 57,-6.5 63,-0.5 69,-0.5"/>
<text text-anchor="middle" x="125" y="-25.6" font-family="sans-serif" font-size="8.00" fill="#1c2021">Science</text>
<polyline fill="none" stroke="#2e3436" stroke-width="1.5" points="57,-18.5 193,-18.5 "/>
<text text-anchor="start" x="65" y="-7.6" font-family="sans-serif" font-size="8.00" fill="#1c2021">name = &#39;Computer Science&#39;</text>
</g>
<!-- N0&#45;&gt;N2 -->
<g id="edge1" class="edge"><title>N0&#45;&gt;N2</title>
<path fill="none" stroke="#2e3436" stroke-width="2" d="M26.6587,-171.295C11.5899,-148.205 -6.8749,-110.377 10,-82 21.3244,-62.9566 40.705,-49.3529 60.3622,-39.8077"/>
<polygon fill="#2e3436" stroke="#2e3436" stroke-width="2" points="67.314,-36.5985 61.9192,-42.8063 64.1188,-38.6243 60.7141,-40.1961 60.5045,-39.7421 60.295,-39.2881 63.6997,-37.7163 59.0899,-36.6778 67.314,-36.5985 67.314,-36.5985"/>
<text text-anchor="middle" x="37.5" y="-102.1" font-family="sans-serif" font-size="8.00" fill="#2e3436">RESEARCHED</text>
</g>
<!-- N1 -->
<g id="node3" class="node"><title>N1</title>
<path fill="#ffffff" stroke="#2e3436" stroke-width="1.5" d="M211.5,-82.5C211.5,-82.5 264.5,-82.5 264.5,-82.5 270.5,-82.5 276.5,-88.5 276.5,-94.5 276.5,-94.5 276.5,-113.5 276.5,-113.5 276.5,-119.5 270.5,-125.5 264.5,-125.5 264.5,-125.5 211.5,-125.5 211.5,-125.5 205.5,-125.5 199.5,-119.5 199.5,-113.5 199.5,-113.5 199.5,-94.5 199.5,-94.5 199.5,-88.5 205.5,-82.5 211.5,-82.5"/>
<text text-anchor="middle" x="238" y="-115.1" font-family="sans-serif" font-size="8.00" fill="#1c2021">Scientist</text>
<polyline fill="none" stroke="#2e3436" stroke-width="1.5" points="199.5,-108.5 276.5,-108.5 "/>
<text text-anchor="start" x="207.5" y="-98.1" font-family="sans-serif" font-size="8.00" fill="#1c2021">name = &#39;Wing&#39;</text>
<text text-anchor="start" x="207.5" y="-89.1" font-family="sans-serif" font-size="8.00" fill="#1c2021">born = 1956</text>
</g>
<!-- N0&#45;&gt;N1 -->
<g id="edge2" class="edge"><title>N0&#45;&gt;N1</title>
<path fill="none" stroke="#4e9a06" stroke-width="2" d="M60.5347,-171.465C70.4334,-161.716 83.3702,-150.747 97,-144 132.777,-126.29 146.74,-137.397 185,-126 187.371,-125.294 189.785,-124.525 192.21,-123.713"/>
<polygon fill="#4e9a06" stroke="#4e9a06" stroke-width="2" points="199.489,-121.165 193.525,-126.829 196.114,-122.876 192.575,-124.115 192.41,-123.643 192.245,-123.171 195.784,-121.932 191.295,-120.458 199.489,-121.165 199.489,-121.165"/>
<text text-anchor="middle" x="112.5" y="-146.6" font-family="sans-serif" font-size="8.00" fill="#4e9a06">KNOWS</text>
</g>
<!-- N1&#45;&gt;N2 -->
<g id="edge4" class="edge"><title>N1&#45;&gt;N2</title>
<path fill="none" stroke="#2e3436" stroke-width="2" d="M215.004,-82.4167C204.837,-73.6402 192.583,-63.4886 181,-55 174.389,-50.155 167.123,-45.2589 160.079,-40.7149"/>
<polygon fill="#2e3436" stroke="#2e3436" stroke-width="2" points="153.696,-36.6524 161.836,-37.8325 157.128,-38.2442 160.292,-40.2579 160.023,-40.6797 159.755,-41.1015 156.591,-39.0878 158.211,-43.5268 153.696,-36.6524 153.696,-36.6524"/>
<text text-anchor="middle" x="220.5" y="-57.6" font-family="sans-serif" font-size="8.00" fill="#2e3436">RESEARCHED</text>
</g>
<!-- N4 -->
<g id="node4" class="node"><title>N4</title>
<path fill="#ffffff" stroke="#2e3436" stroke-width="1.5" d="M261,-0.5C261,-0.5 345,-0.5 345,-0.5 351,-0.5 357,-6.5 357,-12.5 357,-12.5 357,-24.5 357,-24.5 357,-30.5 351,-36.5 345,-36.5 345,-36.5 261,-36.5 261,-36.5 255,-36.5 249,-30.5 249,-24.5 249,-24.5 249,-12.5 249,-12.5 249,-6.5 255,-0.5 261,-0.5"/>
<text text-anchor="middle" x="303" y="-25.6" font-family="sans-serif" font-size="8.00" fill="#1c2021">Science</text>
<polyline fill="none" stroke="#2e3436" stroke-width="1.5" points="249,-18.5 357,-18.5 "/>
<text text-anchor="start" x="257" y="-7.6" font-family="sans-serif" font-size="8.00" fill="#1c2021">name = &#39;Engineering&#39;</text>
</g>
<!-- N1&#45;&gt;N4 -->
<g id="edge3" class="edge"><title>N1&#45;&gt;N4</title>
<path fill="none" stroke="#2e3436" stroke-width="2" d="M255.462,-82.1028C260.235,-76.2881 265.366,-69.9383 270,-64 275.346,-57.1493 281.028,-49.5918 286.144,-42.6795"/>
<polygon fill="#2e3436" stroke="#2e3436" stroke-width="2" points="290.657,-36.5517 288.927,-44.5921 288.836,-39.8677 286.612,-42.8872 286.209,-42.5907 285.807,-42.2942 288.03,-39.2747 283.492,-40.5892 290.657,-36.5517 290.657,-36.5517"/>
<text text-anchor="middle" x="304.5" y="-57.6" font-family="sans-serif" font-size="8.00" fill="#2e3436">RESEARCHED</text>
</g>
<!-- N3 -->
<g id="node5" class="node"><title>N3</title>
<path fill="#ffffff" stroke="#2e3436" stroke-width="1.5" d="M91.5,-82.5C91.5,-82.5 158.5,-82.5 158.5,-82.5 164.5,-82.5 170.5,-88.5 170.5,-94.5 170.5,-94.5 170.5,-113.5 170.5,-113.5 170.5,-119.5 164.5,-125.5 158.5,-125.5 158.5,-125.5 91.5,-125.5 91.5,-125.5 85.5,-125.5 79.5,-119.5 79.5,-113.5 79.5,-113.5 79.5,-94.5 79.5,-94.5 79.5,-88.5 85.5,-82.5 91.5,-82.5"/>
<text text-anchor="middle" x="125" y="-115.1" font-family="sans-serif" font-size="8.00" fill="#1c2021">Scientist</text>
<polyline fill="none" stroke="#2e3436" stroke-width="1.5" points="79.5,-108.5 170.5,-108.5 "/>
<text text-anchor="start" x="87.5" y="-98.1" font-family="sans-serif" font-size="8.00" fill="#1c2021">name = &#39;Conway&#39;</text>
<text text-anchor="start" x="87.5" y="-89.1" font-family="sans-serif" font-size="8.00" fill="#1c2021">born = 1938</text>
</g>
<!-- N3&#45;&gt;N2 -->
<g id="edge5" class="edge"><title>N3&#45;&gt;N2</title>
<path fill="none" stroke="#2e3436" stroke-width="2" d="M123.513,-82.4492C123.063,-73.9541 122.747,-64.0042 123,-55 123.096,-51.5754 123.245,-47.9671 123.419,-44.4158"/>
<polygon fill="#2e3436" stroke="#2e3436" stroke-width="2" points="123.828,-36.8257 126.794,-44.4967 124.125,-40.5972 123.923,-44.3418 123.424,-44.3148 122.925,-44.2879 123.127,-40.5433 120.054,-44.1329 123.828,-36.8257 123.828,-36.8257"/>
<text text-anchor="middle" x="150.5" y="-57.6" font-family="sans-serif" font-size="8.00" fill="#2e3436">RESEARCHED</text>
</g>
<!-- N5 -->
<g id="node6" class="node"><title>N5</title>
<path fill="#ffffff" stroke="#2e3436" stroke-width="1.5" d="M340.5,-86C340.5,-86 417.5,-86 417.5,-86 423.5,-86 429.5,-92 429.5,-98 429.5,-98 429.5,-110 429.5,-110 429.5,-116 423.5,-122 417.5,-122 417.5,-122 340.5,-122 340.5,-122 334.5,-122 328.5,-116 328.5,-110 328.5,-110 328.5,-98 328.5,-98 328.5,-92 334.5,-86 340.5,-86"/>
<text text-anchor="middle" x="379" y="-111.1" font-family="sans-serif" font-size="8.00" fill="#1c2021">Science</text>
<polyline fill="none" stroke="#2e3436" stroke-width="1.5" points="328.5,-104 429.5,-104 "/>
<text text-anchor="start" x="336.5" y="-93.1" font-family="sans-serif" font-size="8.00" fill="#1c2021">name = &#39;Chemistry&#39;</text>
</g>
<!-- N6 -->
<g id="node7" class="node"><title>N6</title>
<path fill="#ffffff" stroke="#2e3436" stroke-width="1.5" d="M136,-171.5C136,-171.5 192,-171.5 192,-171.5 198,-171.5 204,-177.5 204,-183.5 204,-183.5 204,-202.5 204,-202.5 204,-208.5 198,-214.5 192,-214.5 192,-214.5 136,-214.5 136,-214.5 130,-214.5 124,-208.5 124,-202.5 124,-202.5 124,-183.5 124,-183.5 124,-177.5 130,-171.5 136,-171.5"/>
<text text-anchor="middle" x="164" y="-204.1" font-family="sans-serif" font-size="8.00" fill="#1c2021">Scientist</text>
<polyline fill="none" stroke="#2e3436" stroke-width="1.5" points="124,-197.5 204,-197.5 "/>
<text text-anchor="start" x="132" y="-187.1" font-family="sans-serif" font-size="8.00" fill="#1c2021">name = &#39;Curie&#39;</text>
<text text-anchor="start" x="132" y="-178.1" font-family="sans-serif" font-size="8.00" fill="#1c2021">born = 1867</text>
</g>
<!-- N6&#45;&gt;N5 -->
<g id="edge6" class="edge"><title>N6&#45;&gt;N5</title>
<path fill="none" stroke="#2e3436" stroke-width="2" d="M197.895,-171.426C213.925,-162.244 233.556,-151.769 252,-144 274.057,-134.709 299.1,-126.543 321.084,-120.115"/>
<polygon fill="#2e3436" stroke="#2e3436" stroke-width="2" points="328.413,-118.003 322.141,-123.323 324.948,-119.522 321.345,-120.56 321.206,-120.08 321.068,-119.6 324.671,-118.561 320.272,-116.837 328.413,-118.003 328.413,-118.003"/>
<text text-anchor="middle" x="279.5" y="-146.6" font-family="sans-serif" font-size="8.00" fill="#2e3436">RESEARCHED</text>
</g>
<!-- N7 -->
<g id="node8" class="node"><title>N7</title>
<path fill="#ffffff" stroke="#2e3436" stroke-width="1.5" d="M245.5,-175C245.5,-175 304.5,-175 304.5,-175 310.5,-175 316.5,-181 316.5,-187 316.5,-187 316.5,-199 316.5,-199 316.5,-205 310.5,-211 304.5,-211 304.5,-211 245.5,-211 245.5,-211 239.5,-211 233.5,-205 233.5,-199 233.5,-199 233.5,-187 233.5,-187 233.5,-181 239.5,-175 245.5,-175"/>
<text text-anchor="middle" x="275" y="-200.1" font-family="sans-serif" font-size="8.00" fill="#1c2021">Scientist</text>
<polyline fill="none" stroke="#2e3436" stroke-width="1.5" points="233.5,-193 316.5,-193 "/>
<text text-anchor="start" x="241.5" y="-182.1" font-family="sans-serif" font-size="8.00" fill="#1c2021">name = &#39;Arden&#39;</text>
</g>
<!-- N7&#45;&gt;N5 -->
<g id="edge7" class="edge"><title>N7&#45;&gt;N5</title>
<path fill="none" stroke="#2e3436" stroke-width="2" d="M290.753,-174.811C299.807,-165.307 311.613,-153.53 323,-144 330.169,-138 338.239,-131.994 345.973,-126.555"/>
<polygon fill="#2e3436" stroke="#2e3436" stroke-width="2" points="352.364,-122.132 348.117,-129.175 349.565,-124.677 346.481,-126.811 346.197,-126.4 345.912,-125.989 348.996,-123.855 344.276,-123.625 352.364,-122.132 352.364,-122.132"/>
<text text-anchor="middle" x="350.5" y="-146.6" font-family="sans-serif" font-size="8.00" fill="#2e3436">RESEARCHED</text>
</g>
<!-- N8 -->
<g id="node9" class="node"><title>N8</title>
<path fill="#ffffff" stroke="#2e3436" stroke-width="1.5" d="M358,-175C358,-175 424,-175 424,-175 430,-175 436,-181 436,-187 436,-187 436,-199 436,-199 436,-205 430,-211 424,-211 424,-211 358,-211 358,-211 352,-211 346,-205 346,-199 346,-199 346,-187 346,-187 346,-181 352,-175 358,-175"/>
<text text-anchor="middle" x="391" y="-200.1" font-family="sans-serif" font-size="8.00" fill="#1c2021">Scientist</text>
<polyline fill="none" stroke="#2e3436" stroke-width="1.5" points="346,-193 436,-193 "/>
<text text-anchor="start" x="354" y="-182.1" font-family="sans-serif" font-size="8.00" fill="#1c2021">name = &#39;Franklin&#39;</text>
</g>
<!-- N8&#45;&gt;N5 -->
<g id="edge8" class="edge"><title>N8&#45;&gt;N5</title>
<path fill="none" stroke="#2e3436" stroke-width="2" d="M388.629,-174.812C386.854,-161.942 384.4,-144.152 382.414,-129.751"/>
<polygon fill="#2e3436" stroke="#2e3436" stroke-width="2" points="381.366,-122.153 385.734,-129.121 382.374,-125.799 382.886,-129.514 382.391,-129.582 381.895,-129.651 381.383,-125.936 379.047,-130.044 381.366,-122.153 381.366,-122.153"/>
<text text-anchor="middle" x="413.5" y="-146.6" font-family="sans-serif" font-size="8.00" fill="#2e3436">RESEARCHED</text>
</g>
<!-- N9 -->
<g id="node10" class="node"><title>N9</title>
<path fill="#ffffff" stroke="#2e3436" stroke-width="1.5" d="M477.5,-175C477.5,-175 548.5,-175 548.5,-175 554.5,-175 560.5,-181 560.5,-187 560.5,-187 560.5,-199 560.5,-199 560.5,-205 554.5,-211 548.5,-211 548.5,-211 477.5,-211 477.5,-211 471.5,-211 465.5,-205 465.5,-199 465.5,-199 465.5,-187 465.5,-187 465.5,-181 471.5,-175 477.5,-175"/>
<text text-anchor="middle" x="513" y="-200.1" font-family="sans-serif" font-size="8.00" fill="#1c2021">Scientist</text>
<polyline fill="none" stroke="#2e3436" stroke-width="1.5" points="465.5,-193 560.5,-193 "/>
<text text-anchor="start" x="473.5" y="-182.1" font-family="sans-serif" font-size="8.00" fill="#1c2021">name = &#39;Harrison&#39;</text>
</g>
<!-- N9&#45;&gt;N5 -->
<g id="edge9" class="edge"><title>N9&#45;&gt;N5</title>
<path fill="none" stroke="#2e3436" stroke-width="2" d="M491.212,-174.877C478.808,-165.395 462.831,-153.616 448,-144 438.432,-137.796 427.827,-131.521 417.86,-125.872"/>
<polygon fill="#2e3436" stroke="#2e3436" stroke-width="2" points="411.082,-122.07 419.275,-122.796 414.597,-123.468 417.868,-125.303 417.623,-125.739 417.379,-126.175 414.108,-124.341 415.972,-128.683 411.082,-122.07 411.082,-122.07"/>
<text text-anchor="middle" x="488.5" y="-146.6" font-family="sans-serif" font-size="8.00" fill="#2e3436">RESEARCHED</text>
</g>
</g>
</svg>
