<?xml version="1.0" encoding="UTF-8" standalone="no"?>
<!DOCTYPE svg PUBLIC "-//W3C//DTD SVG 1.1//EN"
 "http://www.w3.org/Graphics/SVG/1.1/DTD/svg11.dtd">
<!-- Generated by graphviz version 2.38.0 (20140413.2041)
 -->
<!-- Title: g Pages: 1 -->
<svg width="261pt" height="217pt"
 viewBox="0.00 0.00 260.50 217.00" xmlns="http://www.w3.org/2000/svg" xmlns:xlink="http://www.w3.org/1999/xlink">
<g id="graph0" class="graph" transform="scale(1 1) rotate(0) translate(4 213)">
<title>g</title>
<polygon fill="white" stroke="none" points="-4,4 -4,-213 256.5,-213 256.5,4 -4,4"/>
<!-- N0 -->
<g id="node1" class="node"><title>N0</title>
<path fill="#ffffff" stroke="#2e3436" stroke-width="1.5" d="M70,-172.5C70,-172.5 126,-172.5 126,-172.5 132,-172.5 138,-178.5 138,-184.5 138,-184.5 138,-196.5 138,-196.5 138,-202.5 132,-208.5 126,-208.5 126,-208.5 70,-208.5 70,-208.5 64,-208.5 58,-202.5 58,-196.5 58,-196.5 58,-184.5 58,-184.5 58,-178.5 64,-172.5 70,-172.5"/>
<text text-anchor="start" x="66" y="-197.6" font-family="sans-serif" font-size="8.00" fill="#1c2021">name = &#39;Alice&#39;</text>
<text text-anchor="start" x="66" y="-188.6" font-family="sans-serif" font-size="8.00" fill="#1c2021">age = 38</text>
<text text-anchor="start" x="66" y="-179.6" font-family="sans-serif" font-size="8.00" fill="#1c2021">eyes = &#39;brown&#39;</text>
</g>
<!-- N2 -->
<g id="node2" class="node"><title>N2</title>
<path fill="#ffffff" stroke="#2e3436" stroke-width="1.5" d="M12,-90.5C12,-90.5 76,-90.5 76,-90.5 82,-90.5 88,-96.5 88,-102.5 88,-102.5 88,-114.5 88,-114.5 88,-120.5 82,-126.5 76,-126.5 76,-126.5 12,-126.5 12,-126.5 6,-126.5 0,-120.5 0,-114.5 0,-114.5 0,-102.5 0,-102.5 0,-96.5 6,-90.5 12,-90.5"/>
<text text-anchor="start" x="8" y="-115.6" font-family="sans-serif" font-size="8.00" fill="#1c2021">name = &#39;Charlie&#39;</text>
<text text-anchor="start" x="8" y="-106.6" font-family="sans-serif" font-size="8.00" fill="#1c2021">age = 53</text>
<text text-anchor="start" x="8" y="-97.6" font-family="sans-serif" font-size="8.00" fill="#1c2021">eyes = &#39;green&#39;</text>
</g>
<!-- N0&#45;&gt;N2 -->
<g id="edge1" class="edge"><title>N0&#45;&gt;N2</title>
<path fill="none" stroke="#2e3436" stroke-width="2" d="M86.2828,-172.141C78.5169,-160.636 68.2357,-145.405 59.7561,-132.842"/>
<polygon fill="#2e3436" stroke="#2e3436" stroke-width="2" points="55.5088,-126.55 62.5023,-130.878 58.0213,-129.379 60.1193,-132.487 59.7049,-132.766 59.2905,-133.046 57.1924,-129.938 56.9075,-134.655 55.5088,-126.55 55.5088,-126.55"/>
<text text-anchor="middle" x="88.5" y="-147.6" font-family="sans-serif" font-size="8.00" fill="#2e3436">KNOWS</text>
</g>
<!-- N1 -->
<g id="node3" class="node"><title>N1</title>
<path fill="#ffffff" stroke="#2e3436" stroke-width="1.5" d="M129,-90.5C129,-90.5 179,-90.5 179,-90.5 185,-90.5 191,-96.5 191,-102.5 191,-102.5 191,-114.5 191,-114.5 191,-120.5 185,-126.5 179,-126.5 179,-126.5 129,-126.5 129,-126.5 123,-126.5 117,-120.5 117,-114.5 117,-114.5 117,-102.5 117,-102.5 117,-96.5 123,-90.5 129,-90.5"/>
<text text-anchor="start" x="125" y="-115.6" font-family="sans-serif" font-size="8.00" fill="#1c2021">name = &#39;Bob&#39;</text>
<text text-anchor="start" x="125" y="-106.6" font-family="sans-serif" font-size="8.00" fill="#1c2021">age = 25</text>
<text text-anchor="start" x="125" y="-97.6" font-family="sans-serif" font-size="8.00" fill="#1c2021">eyes = &#39;blue&#39;</text>
</g>
<!-- N0&#45;&gt;N1 -->
<g id="edge2" class="edge"><title>N0&#45;&gt;N1</title>
<path fill="none" stroke="#2e3436" stroke-width="2" d="M110.151,-172.141C118.205,-160.636 128.867,-145.405 137.66,-132.842"/>
<polygon fill="#2e3436" stroke="#2e3436" stroke-width="2" points="142.065,-126.55 140.529,-134.63 140.324,-129.909 138.174,-132.981 137.764,-132.694 137.354,-132.408 139.505,-129.335 134.999,-130.759 142.065,-126.55 142.065,-126.55"/>
<text text-anchor="middle" x="143.5" y="-147.6" font-family="sans-serif" font-size="8.00" fill="#2e3436">KNOWS</text>
</g>
<!-- N3 -->
<g id="node5" class="node"><title>N3</title>
<path fill="#ffffff" stroke="#2e3436" stroke-width="1.5" d="M14,-4.5C14,-4.5 74,-4.5 74,-4.5 80,-4.5 86,-10.5 86,-16.5 86,-16.5 86,-28.5 86,-28.5 86,-34.5 80,-40.5 74,-40.5 74,-40.5 14,-40.5 14,-40.5 8,-40.5 2,-34.5 2,-28.5 2,-28.5 2,-16.5 2,-16.5 2,-10.5 8,-4.5 14,-4.5"/>
<text text-anchor="start" x="10" y="-29.6" font-family="sans-serif" font-size="8.00" fill="#1c2021">name = &#39;Daniel&#39;</text>
<text text-anchor="start" x="10" y="-20.6" font-family="sans-serif" font-size="8.00" fill="#1c2021">age = 54</text>
<text text-anchor="start" x="10" y="-11.6" font-family="sans-serif" font-size="8.00" fill="#1c2021">eyes = &#39;brown&#39;</text>
</g>
<!-- N2&#45;&gt;N3 -->
<g id="edge5" class="edge"><title>N2&#45;&gt;N3</title>
<path fill="none" stroke="#2e3436" stroke-width="2" d="M44,-90.0951C44,-77.9635 44,-61.6048 44,-48.137"/>
<polygon fill="#2e3436" stroke="#2e3436" stroke-width="2" points="44,-40.5952 47.3751,-48.0951 44.5,-44.3451 44.5001,-48.0951 44.0001,-48.0952 43.5001,-48.0952 43.5,-44.3452 40.6251,-48.0952 44,-40.5952 44,-40.5952"/>
<text text-anchor="middle" x="59.5" y="-65.6" font-family="sans-serif" font-size="8.00" fill="#2e3436">KNOWS</text>
</g>
<!-- N4 -->
<g id="node4" class="node"><title>N4</title>
<path fill="#ffffff" stroke="#2e3436" stroke-width="1.5" d="M127.5,-0.5C127.5,-0.5 240.5,-0.5 240.5,-0.5 246.5,-0.5 252.5,-6.5 252.5,-12.5 252.5,-12.5 252.5,-32.5 252.5,-32.5 252.5,-38.5 246.5,-44.5 240.5,-44.5 240.5,-44.5 127.5,-44.5 127.5,-44.5 121.5,-44.5 115.5,-38.5 115.5,-32.5 115.5,-32.5 115.5,-12.5 115.5,-12.5 115.5,-6.5 121.5,-0.5 127.5,-0.5"/>
<text text-anchor="start" x="123.5" y="-34.1" font-family="sans-serif" font-size="8.00" fill="#1c2021">array = [&#39;one&#39;, &#39;two&#39;, &#39;three&#39;]</text>
<text text-anchor="start" x="123.5" y="-25.1" font-family="sans-serif" font-size="8.00" fill="#1c2021">name = &#39;Eskil&#39;</text>
<text text-anchor="start" x="123.5" y="-16.1" font-family="sans-serif" font-size="8.00" fill="#1c2021">age = 41</text>
<text text-anchor="start" x="123.5" y="-7.1" font-family="sans-serif" font-size="8.00" fill="#1c2021">eyes = &#39;blue&#39;</text>
</g>
<!-- N1&#45;&gt;N4 -->
<g id="edge3" class="edge"><title>N1&#45;&gt;N4</title>
<path fill="none" stroke="#4e9a06" stroke-width="2" d="M160.216,-90.0951C164.147,-79.0883 169.321,-64.6019 173.839,-51.9519"/>
<polygon fill="#4e9a06" stroke="#4e9a06" stroke-width="2" points="176.409,-44.7561 177.064,-52.9543 175.618,-48.4558 174.357,-51.9874 173.886,-51.8192 173.415,-51.651 174.676,-48.1195 170.708,-50.684 176.409,-44.7561 176.409,-44.7561"/>
<text text-anchor="middle" x="187.5" y="-65.6" font-family="sans-serif" font-size="8.00" fill="#4e9a06">MARRIED</text>
</g>
<!-- N1&#45;&gt;N3 -->
<g id="edge4" class="edge"><title>N1&#45;&gt;N3</title>
<path fill="none" stroke="#2e3436" stroke-width="2" d="M131.474,-90.2986C114.42,-77.2753 90.8753,-59.2957 72.5088,-45.2703"/>
<polygon fill="#2e3436" stroke="#2e3436" stroke-width="2" points="66.4955,-40.6783 74.5046,-42.5479 69.7793,-42.5569 72.7597,-44.8329 72.4562,-45.2302 72.1528,-45.6276 69.1724,-43.3517 70.4079,-47.9126 66.4955,-40.6783 66.4955,-40.6783"/>
<text text-anchor="middle" x="121.5" y="-65.6" font-family="sans-serif" font-size="8.00" fill="#2e3436">KNOWS</text>
</g>
</g>
</svg>
