<?xml version="1.0" encoding="UTF-8" standalone="no"?>
<!DOCTYPE svg PUBLIC "-//W3C//DTD SVG 1.1//EN"
 "http://www.w3.org/Graphics/SVG/1.1/DTD/svg11.dtd">
<!-- Generated by graphviz version 2.38.0 (20140413.2041)
 -->
<!-- Title: g Pages: 1 -->
<svg width="223pt" height="141pt"
 viewBox="0.00 0.00 222.50 141.00" xmlns="http://www.w3.org/2000/svg" xmlns:xlink="http://www.w3.org/1999/xlink">
<g id="graph0" class="graph" transform="scale(1 1) rotate(0) translate(4 137)">
<title>g</title>
<polygon fill="white" stroke="none" points="-4,4 -4,-137 218.5,-137 218.5,4 -4,4"/>
<!-- N0 -->
<g id="node1" class="node"><title>N0</title>
<path fill="#ffffff" stroke="#2e3436" stroke-width="1.5" d="M80.5,-89.5C80.5,-89.5 134.5,-89.5 134.5,-89.5 140.5,-89.5 146.5,-95.5 146.5,-101.5 146.5,-101.5 146.5,-120.5 146.5,-120.5 146.5,-126.5 140.5,-132.5 134.5,-132.5 134.5,-132.5 80.5,-132.5 80.5,-132.5 74.5,-132.5 68.5,-126.5 68.5,-120.5 68.5,-120.5 68.5,-101.5 68.5,-101.5 68.5,-95.5 74.5,-89.5 80.5,-89.5"/>
<text text-anchor="middle" x="107.5" y="-122.1" font-family="sans-serif" font-size="8.00" fill="#1c2021">Swedish</text>
<polyline fill="none" stroke="#2e3436" stroke-width="1.5" points="68.5,-115.5 146.5,-115.5 "/>
<text text-anchor="start" x="76.5" y="-105.1" font-family="sans-serif" font-size="8.00" fill="#1c2021">name = &#39;Andy&#39;</text>
<text text-anchor="start" x="76.5" y="-96.1" font-family="sans-serif" font-size="8.00" fill="#1c2021">age = 36</text>
</g>
<!-- N2 -->
<g id="node2" class="node"><title>N2</title>
<path fill="#ffffff" stroke="#2e3436" stroke-width="1.5" d="M12,-0.5C12,-0.5 81,-0.5 81,-0.5 87,-0.5 93,-6.5 93,-12.5 93,-12.5 93,-31.5 93,-31.5 93,-37.5 87,-43.5 81,-43.5 81,-43.5 12,-43.5 12,-43.5 6,-43.5 0,-37.5 0,-31.5 0,-31.5 0,-12.5 0,-12.5 0,-6.5 6,-0.5 12,-0.5"/>
<text text-anchor="middle" x="46.5" y="-33.1" font-family="sans-serif" font-size="8.00" fill="#1c2021">Swedish, German</text>
<polyline fill="none" stroke="#2e3436" stroke-width="1.5" points="0,-26.5 93,-26.5 "/>
<text text-anchor="start" x="8" y="-16.1" font-family="sans-serif" font-size="8.00" fill="#1c2021">name = &#39;Peter&#39;</text>
<text text-anchor="start" x="8" y="-7.1" font-family="sans-serif" font-size="8.00" fill="#1c2021">age = 34</text>
</g>
<!-- N0&#45;&gt;N2 -->
<g id="edge1" class="edge"><title>N0&#45;&gt;N2</title>
<path fill="none" stroke="#2e3436" stroke-width="2" d="M93.0439,-89.3822C84.8234,-77.6579 74.4291,-62.8333 65.5496,-50.1691"/>
<polygon fill="#2e3436" stroke="#2e3436" stroke-width="2" points="61.0638,-43.7713 68.1329,-47.9746 63.626,-46.5547 65.7789,-49.6252 65.3695,-49.9122 64.9601,-50.1993 62.8073,-47.1288 62.6061,-51.8498 61.0638,-43.7713 61.0638,-43.7713"/>
<text text-anchor="middle" x="95" y="-64.6" font-family="sans-serif" font-size="8.00" fill="#2e3436">KNOWS</text>
</g>
<!-- N1 -->
<g id="node3" class="node"><title>N1</title>
<path fill="#ffffff" stroke="#2e3436" stroke-width="1.5" d="M134.5,-0.5C134.5,-0.5 202.5,-0.5 202.5,-0.5 208.5,-0.5 214.5,-6.5 214.5,-12.5 214.5,-12.5 214.5,-31.5 214.5,-31.5 214.5,-37.5 208.5,-43.5 202.5,-43.5 202.5,-43.5 134.5,-43.5 134.5,-43.5 128.5,-43.5 122.5,-37.5 122.5,-31.5 122.5,-31.5 122.5,-12.5 122.5,-12.5 122.5,-6.5 128.5,-0.5 134.5,-0.5"/>
<text text-anchor="middle" x="168.5" y="-33.1" font-family="sans-serif" font-size="8.00" fill="#1c2021">Swedish</text>
<polyline fill="none" stroke="#2e3436" stroke-width="1.5" points="122.5,-26.5 214.5,-26.5 "/>
<text text-anchor="start" x="130.5" y="-16.1" font-family="sans-serif" font-size="8.00" fill="#1c2021">name = &#39;Timothy&#39;</text>
<text text-anchor="start" x="130.5" y="-7.1" font-family="sans-serif" font-size="8.00" fill="#1c2021">age = 25</text>
</g>
<!-- N0&#45;&gt;N1 -->
<g id="edge2" class="edge"><title>N0&#45;&gt;N1</title>
<path fill="none" stroke="#2e3436" stroke-width="2" d="M121.956,-89.3822C130.177,-77.6579 140.571,-62.8333 149.45,-50.1691"/>
<polygon fill="#2e3436" stroke="#2e3436" stroke-width="2" points="153.936,-43.7713 152.394,-51.8498 152.193,-47.1288 150.04,-50.1993 149.63,-49.9122 149.221,-49.6252 151.374,-46.5547 146.867,-47.9746 153.936,-43.7713 153.936,-43.7713"/>
<text text-anchor="middle" x="156" y="-64.6" font-family="sans-serif" font-size="8.00" fill="#2e3436">KNOWS</text>
</g>
</g>
</svg>
