<?xml version="1.0" encoding="UTF-8" standalone="no"?>
<!DOCTYPE svg PUBLIC "-//W3C//DTD SVG 1.1//EN"
 "http://www.w3.org/Graphics/SVG/1.1/DTD/svg11.dtd">
<!-- Generated by graphviz version 2.38.0 (20140413.2041)
 -->
<!-- Title: g Pages: 1 -->
<svg width="85pt" height="127pt"
 viewBox="0.00 0.00 85.00 127.00" xmlns="http://www.w3.org/2000/svg" xmlns:xlink="http://www.w3.org/1999/xlink">
<g id="graph0" class="graph" transform="scale(1 1) rotate(0) translate(4 123)">
<title>g</title>
<polygon fill="white" stroke="none" points="-4,4 -4,-123 81,-123 81,4 -4,4"/>
<!-- N0 -->
<g id="node1" class="node"><title>N0</title>
<path fill="#ffffff" stroke="#2e3436" stroke-width="1.5" d="M12,-82.5C12,-82.5 65,-82.5 65,-82.5 71,-82.5 77,-88.5 77,-94.5 77,-94.5 77,-106.5 77,-106.5 77,-112.5 71,-118.5 65,-118.5 65,-118.5 12,-118.5 12,-118.5 6,-118.5 0,-112.5 0,-106.5 0,-106.5 0,-94.5 0,-94.5 0,-88.5 6,-82.5 12,-82.5"/>
<text text-anchor="start" x="8" y="-107.6" font-family="sans-serif" font-size="8.00" fill="#1c2021">name = &#39;A&#39;</text>
<text text-anchor="start" x="8" y="-98.6" font-family="sans-serif" font-size="8.00" fill="#1c2021">happy = &#39;Yes!&#39;</text>
<text text-anchor="start" x="8" y="-89.6" font-family="sans-serif" font-size="8.00" fill="#1c2021">age = 55</text>
</g>
<!-- N1 -->
<g id="node2" class="node"><title>N1</title>
<path fill="#ffffff" stroke="#2e3436" stroke-width="1.5" d="M18.5,-0.5C18.5,-0.5 58.5,-0.5 58.5,-0.5 64.5,-0.5 70.5,-6.5 70.5,-12.5 70.5,-12.5 70.5,-24.5 70.5,-24.5 70.5,-30.5 64.5,-36.5 58.5,-36.5 58.5,-36.5 18.5,-36.5 18.5,-36.5 12.5,-36.5 6.5,-30.5 6.5,-24.5 6.5,-24.5 6.5,-12.5 6.5,-12.5 6.5,-6.5 12.5,-0.5 18.5,-0.5"/>
<text text-anchor="start" x="14.5" y="-16.6" font-family="sans-serif" font-size="8.00" fill="#1c2021">name = &#39;B&#39;</text>
</g>
<!-- N0&#45;&gt;N1 -->
<g id="edge1" class="edge"><title>N0&#45;&gt;N1</title>
<path fill="none" stroke="#2e3436" stroke-width="2" d="M15.4377,-82.1699C10.1995,-76.9624 5.34542,-70.8021 2.5,-64 -0.729702,-56.2793 2.0618,-48.8223 7.26234,-42.2912"/>
<polygon fill="#2e3436" stroke="#2e3436" stroke-width="2" points="12.612,-36.5726 9.95302,-44.3553 10.4153,-39.6527 7.85346,-42.3912 7.48832,-42.0497 7.12318,-41.7081 9.68501,-38.9695 5.02362,-39.744 12.612,-36.5726 12.612,-36.5726"/>
<text text-anchor="middle" x="20" y="-57.6" font-family="sans-serif" font-size="8.00" fill="#2e3436">BLOCKS</text>
</g>
<!-- N0&#45;&gt;N1 -->
<g id="edge2" class="edge"><title>N0&#45;&gt;N1</title>
<path fill="none" stroke="#4e9a06" stroke-width="2" d="M39.6718,-82.1743C40.0103,-76.3968 40.3333,-69.9237 40.5,-64 40.6775,-57.6949 40.5388,-50.8903 40.2675,-44.5446"/>
<polygon fill="#4e9a06" stroke="#4e9a06" stroke-width="2" points="39.8667,-36.8241 43.6261,-44.139 40.5605,-40.5432 40.755,-44.2881 40.2556,-44.314 39.7563,-44.34 39.5618,-40.595 36.8852,-44.4891 39.8667,-36.8241 39.8667,-36.8241"/>
<text text-anchor="middle" x="56" y="-57.6" font-family="sans-serif" font-size="8.00" fill="#4e9a06">KNOWS</text>
</g>
</g>
</svg>
