<?xml version="1.0" encoding="UTF-8" standalone="no"?>
<!DOCTYPE svg PUBLIC "-//W3C//DTD SVG 1.1//EN"
 "http://www.w3.org/Graphics/SVG/1.1/DTD/svg11.dtd">
<!-- Generated by graphviz version 2.38.0 (20140413.2041)
 -->
<!-- Title: g Pages: 1 -->
<svg width="209pt" height="225pt"
 viewBox="0.00 0.00 208.50 225.00" xmlns="http://www.w3.org/2000/svg" xmlns:xlink="http://www.w3.org/1999/xlink">
<g id="graph0" class="graph" transform="scale(1 1) rotate(0) translate(4 221)">
<title>g</title>
<polygon fill="white" stroke="none" points="-4,4 -4,-221 204.5,-221 204.5,4 -4,4"/>
<!-- N0 -->
<g id="node1" class="node"><title>N0</title>
<path fill="#ffffff" stroke="#2e3436" stroke-width="1.5" d="M130.5,-82.5C130.5,-82.5 184.5,-82.5 184.5,-82.5 190.5,-82.5 196.5,-88.5 196.5,-94.5 196.5,-94.5 196.5,-122.5 196.5,-122.5 196.5,-128.5 190.5,-134.5 184.5,-134.5 184.5,-134.5 130.5,-134.5 130.5,-134.5 124.5,-134.5 118.5,-128.5 118.5,-122.5 118.5,-122.5 118.5,-94.5 118.5,-94.5 118.5,-88.5 124.5,-82.5 130.5,-82.5"/>
<text text-anchor="middle" x="157.5" y="-124.1" font-family="sans-serif" font-size="8.00" fill="#1c2021">Swedish</text>
<polyline fill="none" stroke="#2e3436" stroke-width="1.5" points="118.5,-117.5 196.5,-117.5 "/>
<text text-anchor="start" x="126.5" y="-107.1" font-family="sans-serif" font-size="8.00" fill="#1c2021">name = &#39;Andy&#39;</text>
<text text-anchor="start" x="126.5" y="-98.1" font-family="sans-serif" font-size="8.00" fill="#1c2021">age = 36</text>
<text text-anchor="start" x="126.5" y="-89.1" font-family="sans-serif" font-size="8.00" fill="#1c2021">hungry = true</text>
</g>
<!-- N2 -->
<g id="node2" class="node"><title>N2</title>
<path fill="#ffffff" stroke="#2e3436" stroke-width="1.5" d="M60.5,-0.5C60.5,-0.5 116.5,-0.5 116.5,-0.5 122.5,-0.5 128.5,-6.5 128.5,-12.5 128.5,-12.5 128.5,-24.5 128.5,-24.5 128.5,-30.5 122.5,-36.5 116.5,-36.5 116.5,-36.5 60.5,-36.5 60.5,-36.5 54.5,-36.5 48.5,-30.5 48.5,-24.5 48.5,-24.5 48.5,-12.5 48.5,-12.5 48.5,-6.5 54.5,-0.5 60.5,-0.5"/>
<text text-anchor="start" x="56.5" y="-21.1" font-family="sans-serif" font-size="8.00" fill="#1c2021">name = &#39;Peter&#39;</text>
<text text-anchor="start" x="56.5" y="-12.1" font-family="sans-serif" font-size="8.00" fill="#1c2021">age = 34</text>
</g>
<!-- N0&#45;&gt;N2 -->
<g id="edge1" class="edge"><title>N0&#45;&gt;N2</title>
<path fill="none" stroke="#2e3436" stroke-width="2" d="M137.542,-82.0468C127.781,-69.5976 116.119,-54.7238 106.616,-42.6046"/>
<polygon fill="#2e3436" stroke="#2e3436" stroke-width="2" points="101.865,-36.5455 109.149,-40.3651 104.573,-39.188 106.886,-42.1391 106.493,-42.4476 106.1,-42.7561 103.786,-39.8051 103.837,-44.5301 101.865,-36.5455 101.865,-36.5455"/>
<text text-anchor="middle" x="138" y="-57.6" font-family="sans-serif" font-size="8.00" fill="#2e3436">KNOWS</text>
</g>
<!-- N1 -->
<g id="node3" class="node"><title>N1</title>
<path fill="#ffffff" stroke="#2e3436" stroke-width="1.5" d="M126.5,-180.5C126.5,-180.5 188.5,-180.5 188.5,-180.5 194.5,-180.5 200.5,-186.5 200.5,-192.5 200.5,-192.5 200.5,-204.5 200.5,-204.5 200.5,-210.5 194.5,-216.5 188.5,-216.5 188.5,-216.5 126.5,-216.5 126.5,-216.5 120.5,-216.5 114.5,-210.5 114.5,-204.5 114.5,-204.5 114.5,-192.5 114.5,-192.5 114.5,-186.5 120.5,-180.5 126.5,-180.5"/>
<text text-anchor="start" x="122.5" y="-196.6" font-family="sans-serif" font-size="8.00" fill="#1c2021">name = &#39;Stefan&#39;</text>
</g>
<!-- N1&#45;&gt;N0 -->
<g id="edge2" class="edge"><title>N1&#45;&gt;N0</title>
<path fill="none" stroke="#2e3436" stroke-width="2" d="M157.5,-180.114C157.5,-169.329 157.5,-155.127 157.5,-142.289"/>
<polygon fill="#2e3436" stroke="#2e3436" stroke-width="2" points="157.5,-134.515 160.875,-142.015 158,-138.265 158,-142.015 157.5,-142.015 157,-142.015 157,-138.265 154.125,-142.015 157.5,-134.515 157.5,-134.515"/>
<text text-anchor="middle" x="173" y="-155.6" font-family="sans-serif" font-size="8.00" fill="#2e3436">KNOWS</text>
</g>
<!-- N3 -->
<g id="node4" class="node"><title>N3</title>
<path fill="#ffffff" stroke="#2e3436" stroke-width="1.5" d="M12,-90.5C12,-90.5 77,-90.5 77,-90.5 83,-90.5 89,-96.5 89,-102.5 89,-102.5 89,-114.5 89,-114.5 89,-120.5 83,-126.5 77,-126.5 77,-126.5 12,-126.5 12,-126.5 6,-126.5 0,-120.5 0,-114.5 0,-114.5 0,-102.5 0,-102.5 0,-96.5 6,-90.5 12,-90.5"/>
<text text-anchor="start" x="8" y="-106.6" font-family="sans-serif" font-size="8.00" fill="#1c2021">name = &#39;George&#39;</text>
</g>
<!-- N3&#45;&gt;N2 -->
<g id="edge3" class="edge"><title>N3&#45;&gt;N2</title>
<path fill="none" stroke="#2e3436" stroke-width="2" d="M50.9655,-90.1648C55.034,-79.7801 60.6153,-66.4202 66.5,-55 68.5426,-51.0361 70.8734,-46.9279 73.2361,-42.9736"/>
<polygon fill="#2e3436" stroke="#2e3436" stroke-width="2" points="77.1973,-36.5166 76.1523,-44.6743 75.6626,-39.9745 73.7016,-43.1709 73.2754,-42.9095 72.8493,-42.648 74.8102,-39.4516 70.3986,-41.1446 77.1973,-36.5166 77.1973,-36.5166"/>
<text text-anchor="middle" x="82" y="-57.6" font-family="sans-serif" font-size="8.00" fill="#2e3436">KNOWS</text>
</g>
</g>
</svg>
