<?xml version="1.0" encoding="UTF-8" standalone="no"?>
<!DOCTYPE svg PUBLIC "-//W3C//DTD SVG 1.1//EN"
 "http://www.w3.org/Graphics/SVG/1.1/DTD/svg11.dtd">
<!-- Generated by graphviz version 2.38.0 (20140413.2041)
 -->
<!-- Title: g Pages: 1 -->
<svg width="351pt" height="127pt"
 viewBox="0.00 0.00 350.50 127.00" xmlns="http://www.w3.org/2000/svg" xmlns:xlink="http://www.w3.org/1999/xlink">
<g id="graph0" class="graph" transform="scale(1 1) rotate(0) translate(4 123)">
<title>g</title>
<polygon fill="white" stroke="none" points="-4,4 -4,-123 346.5,-123 346.5,4 -4,4"/>
<!-- N0 -->
<g id="node1" class="node"><title>N0</title>
<path fill="#ffffff" stroke="#2e3436" stroke-width="1.5" d="M151,-82.5C151,-82.5 190,-82.5 190,-82.5 196,-82.5 202,-88.5 202,-94.5 202,-94.5 202,-106.5 202,-106.5 202,-112.5 196,-118.5 190,-118.5 190,-118.5 151,-118.5 151,-118.5 145,-118.5 139,-112.5 139,-106.5 139,-106.5 139,-94.5 139,-94.5 139,-88.5 145,-82.5 151,-82.5"/>
<text text-anchor="start" x="147" y="-98.6" font-family="sans-serif" font-size="8.00" fill="#1c2021">name = &#39;A&#39;</text>
</g>
<!-- N4 -->
<g id="node2" class="node"><title>N4</title>
<path fill="#ffffff" stroke="#2e3436" stroke-width="1.5" d="M12,-0.5C12,-0.5 51,-0.5 51,-0.5 57,-0.5 63,-6.5 63,-12.5 63,-12.5 63,-24.5 63,-24.5 63,-30.5 57,-36.5 51,-36.5 51,-36.5 12,-36.5 12,-36.5 6,-36.5 0,-30.5 0,-24.5 0,-24.5 0,-12.5 0,-12.5 0,-6.5 6,-0.5 12,-0.5"/>
<text text-anchor="start" x="8" y="-16.6" font-family="sans-serif" font-size="8.00" fill="#1c2021">name = &#39;E&#39;</text>
</g>
<!-- N0&#45;&gt;N4 -->
<g id="edge1" class="edge"><title>N0&#45;&gt;N4</title>
<path fill="none" stroke="#2e3436" stroke-width="2" d="M140.528,-82.3706C130.356,-76.5489 118.929,-69.9992 108.5,-64 95.1656,-56.3294 80.5473,-47.8891 67.6642,-40.44"/>
<polygon fill="#2e3436" stroke="#2e3436" stroke-width="2" points="61.1014,-36.6443 69.2835,-37.4777 64.5979,-38.089 67.8441,-39.9665 67.5937,-40.3993 67.3434,-40.8321 64.0972,-38.9546 65.904,-43.3209 61.1014,-36.6443 61.1014,-36.6443"/>
<text text-anchor="middle" x="124" y="-57.6" font-family="sans-serif" font-size="8.00" fill="#2e3436">KNOWS</text>
</g>
<!-- N3 -->
<g id="node3" class="node"><title>N3</title>
<path fill="#ffffff" stroke="#2e3436" stroke-width="1.5" d="M104.5,-0.5C104.5,-0.5 144.5,-0.5 144.5,-0.5 150.5,-0.5 156.5,-6.5 156.5,-12.5 156.5,-12.5 156.5,-24.5 156.5,-24.5 156.5,-30.5 150.5,-36.5 144.5,-36.5 144.5,-36.5 104.5,-36.5 104.5,-36.5 98.5,-36.5 92.5,-30.5 92.5,-24.5 92.5,-24.5 92.5,-12.5 92.5,-12.5 92.5,-6.5 98.5,-0.5 104.5,-0.5"/>
<text text-anchor="start" x="100.5" y="-16.6" font-family="sans-serif" font-size="8.00" fill="#1c2021">name = &#39;D&#39;</text>
</g>
<!-- N0&#45;&gt;N3 -->
<g id="edge2" class="edge"><title>N0&#45;&gt;N3</title>
<path fill="none" stroke="#2e3436" stroke-width="2" d="M160.519,-82.1412C153.964,-70.7416 145.306,-55.6839 138.121,-43.1887"/>
<polygon fill="#2e3436" stroke="#2e3436" stroke-width="2" points="134.304,-36.5501 140.968,-41.3695 136.607,-39.5518 138.476,-42.8027 138.042,-43.0519 137.609,-43.3011 135.74,-40.0502 135.117,-44.7343 134.304,-36.5501 134.304,-36.5501"/>
<text text-anchor="middle" x="165" y="-57.6" font-family="sans-serif" font-size="8.00" fill="#2e3436">KNOWS</text>
</g>
<!-- N2 -->
<g id="node4" class="node"><title>N2</title>
<path fill="#ffffff" stroke="#2e3436" stroke-width="1.5" d="M197.5,-0.5C197.5,-0.5 237.5,-0.5 237.5,-0.5 243.5,-0.5 249.5,-6.5 249.5,-12.5 249.5,-12.5 249.5,-24.5 249.5,-24.5 249.5,-30.5 243.5,-36.5 237.5,-36.5 237.5,-36.5 197.5,-36.5 197.5,-36.5 191.5,-36.5 185.5,-30.5 185.5,-24.5 185.5,-24.5 185.5,-12.5 185.5,-12.5 185.5,-6.5 191.5,-0.5 197.5,-0.5"/>
<text text-anchor="start" x="193.5" y="-16.6" font-family="sans-serif" font-size="8.00" fill="#1c2021">name = &#39;C&#39;</text>
</g>
<!-- N0&#45;&gt;N2 -->
<g id="edge3" class="edge"><title>N0&#45;&gt;N2</title>
<path fill="none" stroke="#2e3436" stroke-width="2" d="M180.698,-82.1412C187.396,-70.7416 196.242,-55.6839 203.583,-43.1887"/>
<polygon fill="#2e3436" stroke="#2e3436" stroke-width="2" points="207.483,-36.5501 206.594,-44.7263 206.015,-40.0367 204.115,-43.27 203.684,-43.0167 203.253,-42.7634 205.152,-39.5301 200.774,-41.3071 207.483,-36.5501 207.483,-36.5501"/>
<text text-anchor="middle" x="211" y="-57.6" font-family="sans-serif" font-size="8.00" fill="#2e3436">KNOWS</text>
</g>
<!-- N1 -->
<g id="node5" class="node"><title>N1</title>
<path fill="#ffffff" stroke="#2e3436" stroke-width="1.5" d="M290.5,-0.5C290.5,-0.5 330.5,-0.5 330.5,-0.5 336.5,-0.5 342.5,-6.5 342.5,-12.5 342.5,-12.5 342.5,-24.5 342.5,-24.5 342.5,-30.5 336.5,-36.5 330.5,-36.5 330.5,-36.5 290.5,-36.5 290.5,-36.5 284.5,-36.5 278.5,-30.5 278.5,-24.5 278.5,-24.5 278.5,-12.5 278.5,-12.5 278.5,-6.5 284.5,-0.5 290.5,-0.5"/>
<text text-anchor="start" x="286.5" y="-16.6" font-family="sans-serif" font-size="8.00" fill="#1c2021">name = &#39;B&#39;</text>
</g>
<!-- N0&#45;&gt;N1 -->
<g id="edge4" class="edge"><title>N0&#45;&gt;N1</title>
<path fill="none" stroke="#2e3436" stroke-width="2" d="M200.98,-82.4131C211.317,-76.5945 222.923,-70.036 233.5,-64 246.861,-56.3753 261.485,-47.9451 274.365,-40.4913"/>
<polygon fill="#2e3436" stroke="#2e3436" stroke-width="2" points="280.926,-36.692 276.127,-43.3712 277.931,-39.0039 274.686,-40.8833 274.436,-40.4506 274.185,-40.0179 277.43,-38.1386 272.744,-37.53 280.926,-36.692 280.926,-36.692"/>
<text text-anchor="middle" x="264" y="-57.6" font-family="sans-serif" font-size="8.00" fill="#2e3436">KNOWS</text>
</g>
</g>
</svg>
