<?xml version="1.0" encoding="UTF-8" standalone="no"?>
<!DOCTYPE svg PUBLIC "-//W3C//DTD SVG 1.1//EN"
 "http://www.w3.org/Graphics/SVG/1.1/DTD/svg11.dtd">
<!-- Generated by graphviz version 2.38.0 (20140413.2041)
 -->
<!-- Title: g Pages: 1 -->
<svg width="129pt" height="159pt"
 viewBox="0.00 0.00 128.50 159.00" xmlns="http://www.w3.org/2000/svg" xmlns:xlink="http://www.w3.org/1999/xlink">
<g id="graph0" class="graph" transform="scale(1 1) rotate(0) translate(4 155)">
<title>g</title>
<polygon fill="white" stroke="none" points="-4,4 -4,-155 124.5,-155 124.5,4 -4,4"/>
<!-- N0 -->
<g id="node1" class="node"><title>N0</title>
<path fill="#ffffff" stroke="#2e3436" stroke-width="1.5" d="M14.5,-98.5C14.5,-98.5 98.5,-98.5 98.5,-98.5 104.5,-98.5 110.5,-104.5 110.5,-110.5 110.5,-110.5 110.5,-138.5 110.5,-138.5 110.5,-144.5 104.5,-150.5 98.5,-150.5 98.5,-150.5 14.5,-150.5 14.5,-150.5 8.5,-150.5 2.5,-144.5 2.5,-138.5 2.5,-138.5 2.5,-110.5 2.5,-110.5 2.5,-104.5 8.5,-98.5 14.5,-98.5"/>
<text text-anchor="middle" x="56.5" y="-140.1" font-family="sans-serif" font-size="8.00" fill="#1c2021">TrainStation</text>
<polyline fill="none" stroke="#2e3436" stroke-width="1.5" points="2.5,-133.5 110.5,-133.5 "/>
<text text-anchor="start" x="10.5" y="-123.1" font-family="sans-serif" font-size="8.00" fill="#1c2021">city = &#39;Copenhagen&#39;</text>
<text text-anchor="start" x="10.5" y="-114.1" font-family="sans-serif" font-size="8.00" fill="#1c2021">longitude = 12.56459</text>
<text text-anchor="start" x="10.5" y="-105.1" font-family="sans-serif" font-size="8.00" fill="#1c2021">latitude = 55.672874</text>
</g>
<!-- N1 -->
<g id="node2" class="node"><title>N1</title>
<path fill="#ffffff" stroke="#2e3436" stroke-width="1.5" d="M12,-0.5C12,-0.5 101,-0.5 101,-0.5 107,-0.5 113,-6.5 113,-12.5 113,-12.5 113,-40.5 113,-40.5 113,-46.5 107,-52.5 101,-52.5 101,-52.5 12,-52.5 12,-52.5 6,-52.5 0,-46.5 0,-40.5 0,-40.5 0,-12.5 0,-12.5 0,-6.5 6,-0.5 12,-0.5"/>
<text text-anchor="middle" x="56.5" y="-42.1" font-family="sans-serif" font-size="8.00" fill="#1c2021">Office</text>
<polyline fill="none" stroke="#2e3436" stroke-width="1.5" points="0,-35.5 113,-35.5 "/>
<text text-anchor="start" x="8" y="-25.1" font-family="sans-serif" font-size="8.00" fill="#1c2021">city = &#39;Malmo&#39;</text>
<text text-anchor="start" x="8" y="-16.1" font-family="sans-serif" font-size="8.00" fill="#1c2021">longitude = 12.994341</text>
<text text-anchor="start" x="8" y="-7.1" font-family="sans-serif" font-size="8.00" fill="#1c2021">latitude = 55.611784</text>
</g>
<!-- N0&#45;&gt;N1 -->
<g id="edge1" class="edge"><title>N0&#45;&gt;N1</title>
<path fill="none" stroke="#2e3436" stroke-width="2" d="M56.5,-98.2771C56.5,-86.5919 56.5,-72.5622 56.5,-60.0866"/>
<polygon fill="#2e3436" stroke="#2e3436" stroke-width="2" points="56.5,-52.5544 59.8751,-60.0544 57,-56.3044 57.0001,-60.0544 56.5001,-60.0544 56.0001,-60.0544 56,-56.3044 53.1251,-60.0545 56.5,-52.5544 56.5,-52.5544"/>
<text text-anchor="middle" x="88.5" y="-73.6" font-family="sans-serif" font-size="8.00" fill="#2e3436">TRAVEL_ROUTE</text>
</g>
</g>
</svg>
