<?xml version="1.0" encoding="UTF-8" standalone="no"?>
<!DOCTYPE svg PUBLIC "-//W3C//DTD SVG 1.1//EN"
 "http://www.w3.org/Graphics/SVG/1.1/DTD/svg11.dtd">
<!-- Generated by graphviz version 2.38.0 (20140413.2041)
 -->
<!-- Title: g Pages: 1 -->
<svg width="263pt" height="209pt"
 viewBox="0.00 0.00 263.00 209.00" xmlns="http://www.w3.org/2000/svg" xmlns:xlink="http://www.w3.org/1999/xlink">
<g id="graph0" class="graph" transform="scale(1 1) rotate(0) translate(4 205)">
<title>g</title>
<polygon fill="white" stroke="none" points="-4,4 -4,-205 259,-205 259,4 -4,4"/>
<!-- N0 -->
<g id="node1" class="node"><title>N0</title>
<path fill="#ffffff" stroke="#2e3436" stroke-width="1.5" d="M12,-164.5C12,-164.5 116,-164.5 116,-164.5 122,-164.5 128,-170.5 128,-176.5 128,-176.5 128,-188.5 128,-188.5 128,-194.5 122,-200.5 116,-200.5 116,-200.5 12,-200.5 12,-200.5 6,-200.5 0,-194.5 0,-188.5 0,-188.5 0,-176.5 0,-176.5 0,-170.5 6,-164.5 12,-164.5"/>
<text text-anchor="middle" x="64" y="-189.6" font-family="sans-serif" font-size="8.00" fill="#1c2021">Actor</text>
<polyline fill="none" stroke="#2e3436" stroke-width="1.5" points="0,-182.5 128,-182.5 "/>
<text text-anchor="start" x="8" y="-171.6" font-family="sans-serif" font-size="8.00" fill="#1c2021">name = &#39;Anthony Hopkins&#39;</text>
</g>
<!-- N3 -->
<g id="node2" class="node"><title>N3</title>
<path fill="#ffffff" stroke="#2e3436" stroke-width="1.5" d="M31.5,-0.5C31.5,-0.5 96.5,-0.5 96.5,-0.5 102.5,-0.5 108.5,-6.5 108.5,-12.5 108.5,-12.5 108.5,-24.5 108.5,-24.5 108.5,-30.5 102.5,-36.5 96.5,-36.5 96.5,-36.5 31.5,-36.5 31.5,-36.5 25.5,-36.5 19.5,-30.5 19.5,-24.5 19.5,-24.5 19.5,-12.5 19.5,-12.5 19.5,-6.5 25.5,-0.5 31.5,-0.5"/>
<text text-anchor="middle" x="64" y="-25.6" font-family="sans-serif" font-size="8.00" fill="#1c2021">Movie</text>
<polyline fill="none" stroke="#2e3436" stroke-width="1.5" points="19.5,-18.5 108.5,-18.5 "/>
<text text-anchor="start" x="27.5" y="-7.6" font-family="sans-serif" font-size="8.00" fill="#1c2021">title = &#39;Hitchcock&#39;</text>
</g>
<!-- N0&#45;&gt;N3 -->
<g id="edge1" class="edge"><title>N0&#45;&gt;N3</title>
<path fill="none" stroke="#2e3436" stroke-width="2" d="M54.3206,-164.351C48.0008,-152.133 40.3267,-135.089 37,-119 33.6703,-102.896 33.6703,-98.1038 37,-82 39.729,-68.8017 45.3833,-54.9615 50.8157,-43.6696"/>
<polygon fill="#2e3436" stroke="#2e3436" stroke-width="2" points="54.3206,-36.6495 53.99,-44.8673 53.0928,-40.2279 51.4177,-43.583 50.9704,-43.3597 50.5231,-43.1363 52.1981,-39.7812 47.9508,-41.8521 54.3206,-36.6495 54.3206,-36.6495"/>
<text text-anchor="middle" x="55" y="-98.6" font-family="sans-serif" font-size="8.00" fill="#2e3436">ACTS_IN</text>
</g>
<!-- N1 -->
<g id="node3" class="node"><title>N1</title>
<path fill="#ffffff" stroke="#2e3436" stroke-width="1.5" d="M99,-82.5C99,-82.5 187,-82.5 187,-82.5 193,-82.5 199,-88.5 199,-94.5 199,-94.5 199,-106.5 199,-106.5 199,-112.5 193,-118.5 187,-118.5 187,-118.5 99,-118.5 99,-118.5 93,-118.5 87,-112.5 87,-106.5 87,-106.5 87,-94.5 87,-94.5 87,-88.5 93,-82.5 99,-82.5"/>
<text text-anchor="middle" x="143" y="-107.6" font-family="sans-serif" font-size="8.00" fill="#1c2021">Actor</text>
<polyline fill="none" stroke="#2e3436" stroke-width="1.5" points="87,-100.5 199,-100.5 "/>
<text text-anchor="start" x="95" y="-89.6" font-family="sans-serif" font-size="8.00" fill="#1c2021">name = &#39;Helen Mirren&#39;</text>
</g>
<!-- N0&#45;&gt;N1 -->
<g id="edge2" class="edge"><title>N0&#45;&gt;N1</title>
<path fill="none" stroke="#4e9a06" stroke-width="2" d="M81.1418,-164.141C92.7116,-152.425 108.097,-136.845 120.63,-124.154"/>
<polygon fill="#4e9a06" stroke="#4e9a06" stroke-width="2" points="126.163,-118.55 123.295,-126.258 123.884,-121.57 121.249,-124.238 120.893,-123.887 120.537,-123.535 123.172,-120.867 118.492,-121.515 126.163,-118.55 126.163,-118.55"/>
<text text-anchor="middle" x="120.5" y="-139.6" font-family="sans-serif" font-size="8.00" fill="#4e9a06">KNOWS</text>
</g>
<!-- N1&#45;&gt;N3 -->
<g id="edge3" class="edge"><title>N1&#45;&gt;N3</title>
<path fill="none" stroke="#2e3436" stroke-width="2" d="M125.858,-82.1412C114.288,-70.425 98.9028,-54.8446 86.3704,-42.1535"/>
<polygon fill="#2e3436" stroke="#2e3436" stroke-width="2" points="80.837,-36.5501 88.5083,-39.5152 83.8277,-38.8671 86.4626,-41.5354 86.1068,-41.8867 85.7511,-42.238 83.1161,-39.5697 83.7054,-44.2581 80.837,-36.5501 80.837,-36.5501"/>
<text text-anchor="middle" x="123" y="-57.6" font-family="sans-serif" font-size="8.00" fill="#2e3436">ACTS_IN</text>
</g>
<!-- N2 -->
<g id="node4" class="node"><title>N2</title>
<path fill="#ffffff" stroke="#2e3436" stroke-width="1.5" d="M169,-164.5C169,-164.5 243,-164.5 243,-164.5 249,-164.5 255,-170.5 255,-176.5 255,-176.5 255,-188.5 255,-188.5 255,-194.5 249,-200.5 243,-200.5 243,-200.5 169,-200.5 169,-200.5 163,-200.5 157,-194.5 157,-188.5 157,-188.5 157,-176.5 157,-176.5 157,-170.5 163,-164.5 169,-164.5"/>
<text text-anchor="middle" x="206" y="-189.6" font-family="sans-serif" font-size="8.00" fill="#1c2021">Actor</text>
<polyline fill="none" stroke="#2e3436" stroke-width="1.5" points="157,-182.5 255,-182.5 "/>
<text text-anchor="start" x="165" y="-171.6" font-family="sans-serif" font-size="8.00" fill="#1c2021">name = &#39;Hitchcock&#39;</text>
</g>
</g>
</svg>
