<?xml version="1.0" encoding="UTF-8" standalone="no"?>
<!DOCTYPE svg PUBLIC "-//W3C//DTD SVG 1.1//EN"
 "http://www.w3.org/Graphics/SVG/1.1/DTD/svg11.dtd">
<!-- Generated by graphviz version 2.38.0 (20140413.2041)
 -->
<!-- Title: g Pages: 1 -->
<svg width="327pt" height="152pt"
 viewBox="0.00 0.00 326.50 152.00" xmlns="http://www.w3.org/2000/svg" xmlns:xlink="http://www.w3.org/1999/xlink">
<g id="graph0" class="graph" transform="scale(1 1) rotate(0) translate(4 148)">
<title>g</title>
<polygon fill="white" stroke="none" points="-4,4 -4,-148 322.5,-148 322.5,4 -4,4"/>
<!-- N0 -->
<g id="node1" class="node"><title>N0</title>
<path fill="#ffffff" stroke="#2e3436" stroke-width="1.5" d="M137.5,-91.5C137.5,-91.5 191.5,-91.5 191.5,-91.5 197.5,-91.5 203.5,-97.5 203.5,-103.5 203.5,-103.5 203.5,-131.5 203.5,-131.5 203.5,-137.5 197.5,-143.5 191.5,-143.5 191.5,-143.5 137.5,-143.5 137.5,-143.5 131.5,-143.5 125.5,-137.5 125.5,-131.5 125.5,-131.5 125.5,-103.5 125.5,-103.5 125.5,-97.5 131.5,-91.5 137.5,-91.5"/>
<text text-anchor="middle" x="164.5" y="-133.1" font-family="sans-serif" font-size="8.00" fill="#1c2021">Swedish</text>
<polyline fill="none" stroke="#2e3436" stroke-width="1.5" points="125.5,-126.5 203.5,-126.5 "/>
<text text-anchor="start" x="133.5" y="-116.1" font-family="sans-serif" font-size="8.00" fill="#1c2021">name = &#39;Andy&#39;</text>
<text text-anchor="start" x="133.5" y="-107.1" font-family="sans-serif" font-size="8.00" fill="#1c2021">age = 36</text>
<text text-anchor="start" x="133.5" y="-98.1" font-family="sans-serif" font-size="8.00" fill="#1c2021">belt = &#39;white&#39;</text>
</g>
<!-- N2 -->
<g id="node2" class="node"><title>N2</title>
<path fill="#ffffff" stroke="#2e3436" stroke-width="1.5" d="M12,-0.5C12,-0.5 143,-0.5 143,-0.5 149,-0.5 155,-6.5 155,-12.5 155,-12.5 155,-24.5 155,-24.5 155,-30.5 149,-36.5 143,-36.5 143,-36.5 12,-36.5 12,-36.5 6,-36.5 0,-30.5 0,-24.5 0,-24.5 0,-12.5 0,-12.5 0,-6.5 6,-0.5 12,-0.5"/>
<text text-anchor="start" x="8" y="-25.6" font-family="sans-serif" font-size="8.00" fill="#1c2021">email = &#39;peter_n@example.com&#39;</text>
<text text-anchor="start" x="8" y="-16.6" font-family="sans-serif" font-size="8.00" fill="#1c2021">name = &#39;Peter&#39;</text>
<text text-anchor="start" x="8" y="-7.6" font-family="sans-serif" font-size="8.00" fill="#1c2021">age = 35</text>
</g>
<!-- N0&#45;&gt;N2 -->
<g id="edge1" class="edge"><title>N0&#45;&gt;N2</title>
<path fill="none" stroke="#2e3436" stroke-width="2" d="M141.869,-91.2676C128.268,-76.1035 111.1,-56.9624 97.9157,-42.2623"/>
<polygon fill="#2e3436" stroke="#2e3436" stroke-width="2" points="92.8934,-36.6628 100.414,-39.9926 95.7695,-39.1206 98.2734,-41.9122 97.9011,-42.2461 97.5289,-42.5799 95.0251,-39.7883 95.3886,-44.4996 92.8934,-36.6628 92.8934,-36.6628"/>
<text text-anchor="middle" x="153" y="-66.6" font-family="sans-serif" font-size="8.00" fill="#2e3436">KNOWS</text>
<text text-anchor="start" x="124.5" y="-57.6" font-family="sans-serif" font-size="8.00" fill="#2e3436">since = 1999</text>
</g>
<!-- N1 -->
<g id="node3" class="node"><title>N1</title>
<path fill="#ffffff" stroke="#2e3436" stroke-width="1.5" d="M196.5,-0.5C196.5,-0.5 306.5,-0.5 306.5,-0.5 312.5,-0.5 318.5,-6.5 318.5,-12.5 318.5,-12.5 318.5,-24.5 318.5,-24.5 318.5,-30.5 312.5,-36.5 306.5,-36.5 306.5,-36.5 196.5,-36.5 196.5,-36.5 190.5,-36.5 184.5,-30.5 184.5,-24.5 184.5,-24.5 184.5,-12.5 184.5,-12.5 184.5,-6.5 190.5,-0.5 196.5,-0.5"/>
<text text-anchor="start" x="192.5" y="-25.6" font-family="sans-serif" font-size="8.00" fill="#1c2021">address = &#39;Sweden/Malmo&#39;</text>
<text text-anchor="start" x="192.5" y="-16.6" font-family="sans-serif" font-size="8.00" fill="#1c2021">name = &#39;Timothy&#39;</text>
<text text-anchor="start" x="192.5" y="-7.6" font-family="sans-serif" font-size="8.00" fill="#1c2021">age = 25</text>
</g>
<!-- N0&#45;&gt;N1 -->
<g id="edge2" class="edge"><title>N0&#45;&gt;N1</title>
<path fill="none" stroke="#2e3436" stroke-width="2" d="M187.131,-91.2676C200.732,-76.1035 217.9,-56.9624 231.084,-42.2623"/>
<polygon fill="#2e3436" stroke="#2e3436" stroke-width="2" points="236.107,-36.6628 233.611,-44.4996 233.975,-39.7883 231.471,-42.5799 231.099,-42.2461 230.727,-41.9122 233.231,-39.1206 228.586,-39.9926 236.107,-36.6628 236.107,-36.6628"/>
<text text-anchor="middle" x="247" y="-66.6" font-family="sans-serif" font-size="8.00" fill="#2e3436">KNOWS</text>
<text text-anchor="start" x="218.5" y="-57.6" font-family="sans-serif" font-size="8.00" fill="#2e3436">since = 2012</text>
</g>
</g>
</svg>
