<?xml version="1.0" encoding="UTF-8" standalone="no"?>
<!DOCTYPE svg PUBLIC "-//W3C//DTD SVG 1.1//EN"
 "http://www.w3.org/Graphics/SVG/1.1/DTD/svg11.dtd">
<!-- Generated by graphviz version 2.38.0 (20140413.2041)
 -->
<!-- Title: g Pages: 1 -->
<svg width="292pt" height="209pt"
 viewBox="0.00 0.00 292.00 209.00" xmlns="http://www.w3.org/2000/svg" xmlns:xlink="http://www.w3.org/1999/xlink">
<g id="graph0" class="graph" transform="scale(1 1) rotate(0) translate(4 205)">
<title>g</title>
<polygon fill="white" stroke="none" points="-4,4 -4,-205 288,-205 288,4 -4,4"/>
<!-- N0 -->
<g id="node1" class="node"><title>N0</title>
<path fill="#ffffff" stroke="#2e3436" stroke-width="1.5" d="M134.5,-164.5C134.5,-164.5 198.5,-164.5 198.5,-164.5 204.5,-164.5 210.5,-170.5 210.5,-176.5 210.5,-176.5 210.5,-188.5 210.5,-188.5 210.5,-194.5 204.5,-200.5 198.5,-200.5 198.5,-200.5 134.5,-200.5 134.5,-200.5 128.5,-200.5 122.5,-194.5 122.5,-188.5 122.5,-188.5 122.5,-176.5 122.5,-176.5 122.5,-170.5 128.5,-164.5 134.5,-164.5"/>
<text text-anchor="start" x="130.5" y="-180.6" font-family="sans-serif" font-size="8.00" fill="#1c2021">name = &#39;Anders&#39;</text>
</g>
<!-- N2 -->
<g id="node2" class="node"><title>N2</title>
<path fill="#ffffff" stroke="#2e3436" stroke-width="1.5" d="M12,-82.5C12,-82.5 77,-82.5 77,-82.5 83,-82.5 89,-88.5 89,-94.5 89,-94.5 89,-106.5 89,-106.5 89,-112.5 83,-118.5 77,-118.5 77,-118.5 12,-118.5 12,-118.5 6,-118.5 0,-112.5 0,-106.5 0,-106.5 0,-94.5 0,-94.5 0,-88.5 6,-82.5 12,-82.5"/>
<text text-anchor="start" x="8" y="-98.6" font-family="sans-serif" font-size="8.00" fill="#1c2021">name = &#39;Ceasar&#39;</text>
</g>
<!-- N0&#45;&gt;N2 -->
<g id="edge1" class="edge"><title>N0&#45;&gt;N2</title>
<path fill="none" stroke="#2e3436" stroke-width="2" d="M140.328,-164.338C121.834,-152.211 96.9174,-135.872 77.1271,-122.895"/>
<polygon fill="#2e3436" stroke="#2e3436" stroke-width="2" points="70.6288,-118.634 78.7513,-119.924 74.0389,-120.272 77.1748,-122.328 76.9006,-122.746 76.6264,-123.164 73.4905,-121.108 75.0499,-125.569 70.6288,-118.634 70.6288,-118.634"/>
<text text-anchor="middle" x="126" y="-139.6" font-family="sans-serif" font-size="8.00" fill="#2e3436">BLOCKS</text>
</g>
<!-- N1 -->
<g id="node3" class="node"><title>N1</title>
<path fill="#ffffff" stroke="#2e3436" stroke-width="1.5" d="M129.5,-82.5C129.5,-82.5 203.5,-82.5 203.5,-82.5 209.5,-82.5 215.5,-88.5 215.5,-94.5 215.5,-94.5 215.5,-106.5 215.5,-106.5 215.5,-112.5 209.5,-118.5 203.5,-118.5 203.5,-118.5 129.5,-118.5 129.5,-118.5 123.5,-118.5 117.5,-112.5 117.5,-106.5 117.5,-106.5 117.5,-94.5 117.5,-94.5 117.5,-88.5 123.5,-82.5 129.5,-82.5"/>
<text text-anchor="start" x="125.5" y="-98.6" font-family="sans-serif" font-size="8.00" fill="#1c2021">name = &#39;Bossman&#39;</text>
</g>
<!-- N0&#45;&gt;N1 -->
<g id="edge2" class="edge"><title>N0&#45;&gt;N1</title>
<path fill="none" stroke="#4e9a06" stroke-width="2" d="M166.5,-164.141C166.5,-153.058 166.5,-138.518 166.5,-126.236"/>
<polygon fill="#4e9a06" stroke="#4e9a06" stroke-width="2" points="166.5,-118.55 169.875,-126.05 167,-122.3 167,-126.05 166.5,-126.05 166,-126.05 166,-122.3 163.125,-126.05 166.5,-118.55 166.5,-118.55"/>
<text text-anchor="middle" x="182" y="-139.6" font-family="sans-serif" font-size="8.00" fill="#4e9a06">KNOWS</text>
</g>
<!-- N4 -->
<g id="node5" class="node"><title>N4</title>
<path fill="#ffffff" stroke="#2e3436" stroke-width="1.5" d="M73,-0.5C73,-0.5 138,-0.5 138,-0.5 144,-0.5 150,-6.5 150,-12.5 150,-12.5 150,-24.5 150,-24.5 150,-30.5 144,-36.5 138,-36.5 138,-36.5 73,-36.5 73,-36.5 67,-36.5 61,-30.5 61,-24.5 61,-24.5 61,-12.5 61,-12.5 61,-6.5 67,-0.5 73,-0.5"/>
<text text-anchor="start" x="69" y="-16.6" font-family="sans-serif" font-size="8.00" fill="#1c2021">name = &#39;George&#39;</text>
</g>
<!-- N2&#45;&gt;N4 -->
<g id="edge5" class="edge"><title>N2&#45;&gt;N4</title>
<path fill="none" stroke="#4e9a06" stroke-width="2" d="M57.7361,-82.1412C66.5087,-70.6361 78.1226,-55.4048 87.7015,-42.8423"/>
<polygon fill="#4e9a06" stroke="#4e9a06" stroke-width="2" points="92.4993,-36.5501 90.6355,-44.5606 90.6231,-39.8353 88.3493,-42.8173 87.9517,-42.5141 87.5541,-42.211 89.8279,-39.2289 85.2679,-40.4677 92.4993,-36.5501 92.4993,-36.5501"/>
<text text-anchor="middle" x="93" y="-57.6" font-family="sans-serif" font-size="8.00" fill="#4e9a06">KNOWS</text>
</g>
<!-- N3 -->
<g id="node4" class="node"><title>N3</title>
<path fill="#ffffff" stroke="#2e3436" stroke-width="1.5" d="M215,-0.5C215,-0.5 272,-0.5 272,-0.5 278,-0.5 284,-6.5 284,-12.5 284,-12.5 284,-24.5 284,-24.5 284,-30.5 278,-36.5 272,-36.5 272,-36.5 215,-36.5 215,-36.5 209,-36.5 203,-30.5 203,-24.5 203,-24.5 203,-12.5 203,-12.5 203,-6.5 209,-0.5 215,-0.5"/>
<text text-anchor="start" x="211" y="-16.6" font-family="sans-serif" font-size="8.00" fill="#1c2021">name = &#39;David&#39;</text>
</g>
<!-- N1&#45;&gt;N3 -->
<g id="edge3" class="edge"><title>N1&#45;&gt;N3</title>
<path fill="none" stroke="#2e3436" stroke-width="2" d="M183.208,-82.1412C194.485,-70.425 209.481,-54.8446 221.696,-42.1535"/>
<polygon fill="#2e3436" stroke="#2e3436" stroke-width="2" points="227.089,-36.5501 224.32,-44.2942 224.849,-39.5987 222.248,-42.3005 221.888,-41.9538 221.528,-41.607 224.129,-38.9052 219.457,-39.6133 227.089,-36.5501 227.089,-36.5501"/>
<text text-anchor="middle" x="224" y="-57.6" font-family="sans-serif" font-size="8.00" fill="#2e3436">BLOCKS</text>
</g>
<!-- N1&#45;&gt;N4 -->
<g id="edge4" class="edge"><title>N1&#45;&gt;N4</title>
<path fill="none" stroke="#4e9a06" stroke-width="2" d="M153.264,-82.1412C144.491,-70.6361 132.877,-55.4048 123.299,-42.8423"/>
<polygon fill="#4e9a06" stroke="#4e9a06" stroke-width="2" points="118.501,-36.5501 125.732,-40.4677 121.172,-39.2289 123.446,-42.211 123.048,-42.5141 122.651,-42.8173 120.377,-39.8353 120.364,-44.5606 118.501,-36.5501 118.501,-36.5501"/>
<text text-anchor="middle" x="153" y="-57.6" font-family="sans-serif" font-size="8.00" fill="#4e9a06">KNOWS</text>
</g>
<!-- N3&#45;&gt;N0 -->
<g id="edge6" class="edge"><title>N3&#45;&gt;N0</title>
<path fill="none" stroke="#4e9a06" stroke-width="2" d="M246.428,-36.7827C247.275,-42.5573 248.082,-49.0396 248.5,-55 250.566,-84.4758 245.727,-93.6778 230.5,-119 221.352,-134.212 207.615,-148.299 195.211,-159.234"/>
<polygon fill="#4e9a06" stroke="#4e9a06" stroke-width="2" points="189.254,-164.339 192.752,-156.896 191.776,-161.519 194.623,-159.079 194.948,-159.458 195.274,-159.838 192.427,-162.278 197.145,-162.021 189.254,-164.339 189.254,-164.339"/>
<text text-anchor="middle" x="263" y="-98.6" font-family="sans-serif" font-size="8.00" fill="#4e9a06">KNOWS</text>
</g>
</g>
</svg>
